<svg width="48" height="48" viewBox="0 0 48 48" fill="none" xmlns="http://www.w3.org/2000/svg">
<circle cx="24" cy="24" r="24" fill="#E6F7FF"/>
<path d="M22.38 24.6901C25.0309 24.6901 27.18 22.5411 27.18 19.8901C27.18 17.2391 25.0309 15.0901 22.38 15.0901C19.729 15.0901 17.58 17.2391 17.58 19.8901C17.58 22.5411 19.729 24.6901 22.38 24.6901Z" fill="#1890FF"/>
<path d="M23.64 32.8801C24.45 32.8801 24 32.3101 24 32.3101C23.3371 31.4689 22.9169 30.4624 22.7847 29.3996C22.6525 28.3368 22.8134 27.2581 23.25 26.2801L23.31 26.1601C23.351 26.1088 23.3768 26.0469 23.3844 25.9816C23.392 25.9163 23.3811 25.8502 23.3529 25.7908C23.3248 25.7314 23.2805 25.6811 23.2252 25.6456C23.1699 25.6101 23.1057 25.5909 23.04 25.5901C22.8009 25.5645 22.5604 25.5545 22.32 25.5601C20.5657 25.562 18.8712 26.1975 17.5482 27.3495C16.2253 28.5016 15.363 30.0927 15.12 31.8301C15.12 32.1901 15.24 32.8801 16.38 32.8801H23.64Z" fill="#1890FF"/>
<path d="M28.5601 24.3601C27.7175 24.3601 26.8939 24.61 26.1933 25.078C25.4928 25.5461 24.9468 26.2115 24.6243 26.9899C24.3019 27.7683 24.2175 28.6248 24.3819 29.4512C24.5463 30.2776 24.952 31.0366 25.5478 31.6324C26.1435 32.2282 26.9026 32.6339 27.729 32.7983C28.5553 32.9626 29.4119 32.8783 30.1903 32.5558C30.9687 32.2334 31.634 31.6874 32.1021 30.9868C32.5702 30.2863 32.8201 29.4627 32.8201 28.6201C32.8161 27.4915 32.366 26.4102 31.568 25.6122C30.7699 24.8142 29.6887 24.3641 28.5601 24.3601ZM27.1201 31.2001C26.9124 31.2001 26.7094 31.1385 26.5367 31.0231C26.364 30.9078 26.2294 30.7438 26.15 30.5519C26.0705 30.3601 26.0497 30.1489 26.0902 29.9453C26.1307 29.7416 26.2307 29.5545 26.3776 29.4076C26.5244 29.2608 26.7115 29.1608 26.9152 29.1203C27.1189 29.0798 27.33 29.1006 27.5219 29.18C27.7137 29.2595 27.8777 29.3941 27.9931 29.5668C28.1085 29.7394 28.1701 29.9424 28.1701 30.1501C28.1669 30.4276 28.0553 30.6929 27.8591 30.8891C27.6628 31.0854 27.3976 31.197 27.1201 31.2001ZM28.1701 27.6301C28.1539 27.7113 28.1118 27.785 28.0501 27.8401L27.2401 28.2901C27.2266 28.3045 27.2103 28.3159 27.1923 28.3237C27.1742 28.3315 27.1547 28.3356 27.1351 28.3356C27.1154 28.3356 27.0959 28.3315 27.0778 28.3237C27.0598 28.3159 27.0435 28.3045 27.0301 28.2901L26.2201 27.8401C26.1866 27.8153 26.1586 27.7839 26.138 27.7477C26.1173 27.7116 26.1044 27.6715 26.1001 27.6301V26.7001C26.1044 26.6587 26.1173 26.6186 26.138 26.5825C26.1586 26.5463 26.1866 26.5149 26.2201 26.4901L27.0301 26.0401C27.0435 26.0258 27.0598 26.0143 27.0778 26.0065C27.0959 25.9987 27.1154 25.9947 27.1351 25.9947C27.1547 25.9947 27.1742 25.9987 27.1923 26.0065C27.2103 26.0143 27.2266 26.0258 27.2401 26.0401L28.0501 26.4901C28.0835 26.5149 28.1115 26.5463 28.1322 26.5825C28.1528 26.6186 28.1657 26.6587 28.1701 26.7001V27.6301ZM28.9501 26.3401C28.9492 26.3123 28.9541 26.2846 28.9643 26.2588C28.9746 26.2329 28.99 26.2094 29.0097 26.1898C29.0294 26.1701 29.0529 26.1547 29.0787 26.1444C29.1046 26.1341 29.1322 26.1293 29.16 26.1301H30.7201C30.7479 26.1293 30.7755 26.1341 30.8014 26.1444C30.8272 26.1547 30.8507 26.1701 30.8704 26.1898C30.8901 26.2094 30.9055 26.2329 30.9158 26.2588C30.926 26.2846 30.9309 26.3123 30.9301 26.3401V27.9001C30.9309 27.9279 30.926 27.9556 30.9158 27.9814C30.9055 28.0073 30.8901 28.0308 30.8704 28.0504C30.8507 28.0701 30.8272 28.0856 30.8014 28.0958C30.7755 28.1061 30.7479 28.1109 30.7201 28.1101H29.1901C29.1622 28.1109 29.1346 28.1061 29.1087 28.0958C29.0829 28.0856 29.0594 28.0701 29.0397 28.0504C29.02 28.0308 29.0046 28.0073 28.9943 27.9814C28.9841 27.9556 28.9792 27.9279 28.9801 27.9001L28.9501 26.3401ZM31.0201 30.3001L30.0901 31.2601C30.0766 31.2745 30.0603 31.2859 30.0423 31.2937C30.0242 31.3015 30.0047 31.3056 29.985 31.3056C29.9654 31.3056 29.9459 31.3015 29.9278 31.2937C29.9098 31.2859 29.8935 31.2745 29.8801 31.2601L28.9501 30.3001C28.9357 30.2866 28.9243 30.2704 28.9164 30.2523C28.9086 30.2343 28.9046 30.2148 28.9046 30.1951C28.9046 30.1754 28.9086 30.156 28.9164 30.1379C28.9243 30.1198 28.9357 30.1036 28.9501 30.0901L29.8801 29.1301C29.8935 29.1158 29.9098 29.1043 29.9278 29.0965C29.9459 29.0887 29.9654 29.0847 29.985 29.0847C30.0047 29.0847 30.0242 29.0887 30.0423 29.0965C30.0603 29.1043 30.0766 29.1158 30.0901 29.1301L31.0201 30.0901C31.0344 30.1036 31.0458 30.1198 31.0537 30.1379C31.0615 30.156 31.0655 30.1754 31.0655 30.1951C31.0655 30.2148 31.0615 30.2343 31.0537 30.2523C31.0458 30.2704 31.0344 30.2866 31.0201 30.3001Z" fill="#1890FF"/>
</svg>
