<svg width="20" height="21" viewBox="0 0 20 21" fill="none" xmlns="http://www.w3.org/2000/svg">
<g clip-path="url(#clip0_741_3423)">
<rect width="20" height="20" transform="translate(0 0.399902)" fill="white" fill-opacity="0.01"/>
<g clip-path="url(#clip1_741_3423)">
<path fill-rule="evenodd" clip-rule="evenodd" d="M12.9167 7.06657C12.6867 7.06657 12.5 6.8799 12.5 6.6499L7.18762 3.08657C7.15224 3.05839 7.11435 3.03291 7.07421 3.0105L4.42455 1.23324H1.66671C1.43671 1.23324 1.25004 1.04657 1.25004 0.816569C1.25004 0.586569 1.43671 0.399902 1.66671 0.399902H11.25C12.3992 0.399902 13.3334 1.3349 13.3334 2.48324V6.6499C13.3334 6.8799 13.1467 7.06657 12.9167 7.06657ZM7.07421 3.0105C7.0279 2.98465 6.9786 2.96287 6.92671 2.94574L1.92671 1.27908C1.84087 1.24824 1.75337 1.23324 1.66671 1.23324C1.20671 1.23324 0.833374 1.60741 0.833374 2.06658V17.0666C0.833374 17.4232 1.06337 17.7399 1.40671 17.8549L6.40671 19.5216C6.95337 19.7157 7.50004 19.2782 7.50004 18.7332V17.4839L7.50004 17.4832L7.50004 17.4826V3.73324C7.50004 3.4766 7.38151 3.24101 7.18762 3.08657L7.07421 3.0105ZM18.5775 9.56658H11.25C11.02 9.56658 10.8334 9.37991 10.8334 9.14991C10.8334 8.91991 11.02 8.73324 11.25 8.73324H18.5759L15.955 6.11241C15.7925 5.94991 15.7925 5.68574 15.955 5.52324C16.1175 5.36074 16.3817 5.36074 16.5442 5.52324L19.8549 8.83395C19.9438 8.91039 20 9.02362 20 9.14991C20 9.20757 19.9883 9.26251 19.9671 9.31246C19.9468 9.36094 19.917 9.40633 19.8775 9.44574L16.5442 12.7791C16.4634 12.8591 16.3567 12.8999 16.25 12.8999C16.1434 12.8999 16.0367 12.8591 15.955 12.7782C15.7925 12.6157 15.7925 12.3516 15.955 12.1891L18.5775 9.56658Z" fill="#1890FF"/>
</g>
</g>
<defs>
<clipPath id="clip0_741_3423">
<rect width="20" height="20" fill="white" transform="translate(0 0.399902)"/>
</clipPath>
<clipPath id="clip1_741_3423">
<rect width="20" height="20" fill="white" transform="translate(0 0.399902)"/>
</clipPath>
</defs>
</svg>
