<svg width="688" height="510" viewBox="0 0 688 510" fill="none" xmlns="http://www.w3.org/2000/svg">
<path d="M80.4045 95.8043C80.4045 95.8043 143.126 40.9233 220.22 67.0566C297.314 93.1899 357.423 212.098 431.904 216.019C506.385 219.939 575.64 179.432 634.44 214.711C693.241 249.992 703.694 402.875 591.319 418.554C478.944 434.234 416.224 378.047 367.876 380.66C319.529 383.273 201.927 442.075 109.152 415.941C16.3771 389.808 -67.2504 209.485 80.4045 95.8043Z" fill="#E8F4FF"/>
<g opacity="0.46">
<path d="M499.465 104.775H231.355C228.537 104.775 226.479 102.111 227.189 99.3847L252.218 3.22168C252.711 1.32466 254.424 0 256.384 0H524.493C527.311 0 529.369 2.66307 528.66 5.38988L503.631 101.553C503.137 103.45 501.425 104.775 499.465 104.775Z" fill="#BFD9FF"/>
<path d="M268.127 20.572H361.418" stroke="#A9C2FF" stroke-width="3.4455" stroke-miterlimit="10" stroke-linecap="round" stroke-linejoin="round"/>
<path d="M260.95 63.6299H354.243" stroke="#A9C2FF" stroke-width="3.4455" stroke-miterlimit="10" stroke-linecap="round" stroke-linejoin="round"/>
<path d="M300.181 47.3639H393.474" stroke="#A9C2FF" stroke-width="3.4455" stroke-miterlimit="10" stroke-linecap="round" stroke-linejoin="round"/>
<path d="M265.734 34.9247H293.722" stroke="#A9C2FF" stroke-width="3.4455" stroke-miterlimit="10" stroke-linecap="round" stroke-linejoin="round"/>
<path d="M261.907 47.3639H289.895" stroke="#A9C2FF" stroke-width="3.4455" stroke-miterlimit="10" stroke-linecap="round" stroke-linejoin="round"/>
<path d="M376.25 20.572H409.502" stroke="#A9C2FF" stroke-width="3.4455" stroke-miterlimit="10" stroke-linecap="round" stroke-linejoin="round"/>
<path d="M392.542 83.8297H342.89C342.64 83.8297 342.458 83.5935 342.52 83.3511L344.742 74.8133C344.786 74.6446 344.938 74.5271 345.112 74.5271H394.764C395.014 74.5271 395.197 74.7633 395.134 75.0057L392.912 83.5436C392.869 83.7123 392.716 83.8297 392.542 83.8297Z" stroke="#84AEE5" stroke-width="1.1485" stroke-miterlimit="10"/>
<path d="M330.827 83.8297H281.174C280.924 83.8297 280.742 83.5935 280.804 83.3511L283.026 74.8133C283.07 74.6446 283.222 74.5271 283.396 74.5271H333.049C333.298 74.5271 333.481 74.7633 333.418 75.0057L331.197 83.5436C331.153 83.7123 331.002 83.8297 330.827 83.8297Z" stroke="#84AEE5" stroke-width="1.1485" stroke-miterlimit="10"/>
<path d="M479.811 71.4504C477.267 68.06 466.941 65.5944 464.088 62.2053C462.631 60.4732 462.631 57.2553 462.978 54.5197C463.994 53.8724 464.838 53.2225 465.34 52.6189C466.197 51.3668 467.164 49.616 468.132 47.6952C468.424 47.9814 468.815 48.2051 469.32 48.1901C470.675 48.1501 475.836 41.1256 474.505 39.4973C473.744 38.5663 472.516 39.3736 471.602 40.2359C472.968 37.1079 473.929 34.7098 473.929 34.7098H473.877C474.007 34.3149 474.125 33.9187 474.226 33.5163C476.273 25.3034 471.277 18.6464 463.064 18.6464C454.853 18.6464 446.535 25.3034 444.488 33.5163C444.388 33.9187 444.309 34.3161 444.242 34.7098H444.189C444.189 34.7098 443.954 37.1079 443.76 40.2359C443.277 39.3736 442.451 38.5663 441.226 39.4973C439.083 41.1256 440.741 48.1501 442.077 48.1901C442.575 48.2051 443.077 47.9814 443.512 47.6952C443.523 49.616 443.617 51.3668 443.849 52.6189C444.095 53.3563 444.815 54.1636 445.751 54.9521C444.729 57.5877 443.173 60.5644 440.974 62.2053C436.431 65.5956 424.875 68.06 420.64 71.4504C416.831 74.4996 413.432 83.4049 412.787 85.1644H480.825C481.058 83.4049 482.101 74.4996 479.811 71.4504Z" fill="#8DBCF8"/>
</g>
<path d="M452.819 181.322H184.71C181.892 181.322 179.833 178.659 180.542 175.932L205.571 79.7695C206.064 77.8724 207.778 76.5478 209.737 76.5478H477.846C480.664 76.5478 482.722 79.2109 482.014 81.9377L456.985 178.101C456.492 179.998 454.778 181.322 452.819 181.322Z" stroke="#7094D8" stroke-width="1.1485" stroke-miterlimit="10"/>
<path d="M447.796 174.146H179.686C176.868 174.146 174.81 171.483 175.52 168.756L200.549 72.5927C201.042 70.6957 202.756 69.371 204.715 69.371H472.824C475.642 69.371 477.702 72.0341 476.992 74.7609L451.963 170.924C451.468 172.822 449.755 174.146 447.796 174.146Z" fill="#A5C5FF"/>
<path d="M263.821 174.146H398.02" stroke="#7094D8" stroke-width="1.1485" stroke-miterlimit="10"/>
<path d="M226.505 69.371H339.891" stroke="#7094D8" stroke-width="1.1485" stroke-miterlimit="10"/>
<path d="M426.15 159.793H365.869C363.095 159.793 361.406 157.543 362.099 154.769L377.307 93.7696C377.998 90.9953 380.809 88.7459 383.583 88.7459H443.864C446.638 88.7459 448.327 90.9953 447.634 93.7696L432.426 154.769C431.735 157.543 428.924 159.793 426.15 159.793Z" fill="#B7DEFF"/>
<path d="M396.566 160.031L401.841 138.873L393.192 135.211C393.192 135.211 377.073 141.111 375.701 142.536C374.55 143.729 368.763 156.071 366.921 160.031H396.566Z" fill="#023F61"/>
<path d="M426.413 160.031C426.547 156.071 426.913 143.729 426.358 142.536C425.696 141.111 412.519 135.211 412.519 135.211L402.044 138.873L396.77 160.031H426.413Z" fill="#023F61"/>
<path d="M402.022 160.031L410.285 141.722L392.536 142.739L390.8 160.031H402.022Z" fill="#BEBECF"/>
<path d="M396.393 131.346L392.529 133.788L389.991 139.892L389.335 148.232L394.776 145.995L399 151.08L404.642 146.401L408.104 149.657L413.335 138.467L412.414 131.55L410.227 130.533L396.393 131.346Z" fill="#DEE0E8"/>
<path d="M397.582 115.33C397.582 115.33 396.284 112.38 393.622 114.343C390.96 116.305 394.076 123.884 396.004 121.604C397.932 119.323 397.582 115.33 397.582 115.33Z" fill="#FB8E74"/>
<path d="M416.551 115.173C416.551 115.173 419.08 112.046 420.99 113.798C422.898 115.55 416.623 123.561 415.592 121.418C414.561 119.274 416.551 115.173 416.551 115.173Z" fill="#FB8E74"/>
<path d="M410.621 137.255L413.344 122.811L397.585 124.177L394.105 137.742C394.105 137.742 396.861 144.163 399.813 147.011C399.813 147.011 408.978 139.094 410.621 137.255Z" fill="#FB8877"/>
<path d="M423.402 109.342C422.816 111.099 421.368 111.537 421.26 112.562C421.154 113.587 420.497 116.221 419.497 117.246C418.497 118.271 417.979 118.563 417.979 118.563C417.979 118.563 404.457 122.37 397.591 117.098C397.591 117.098 397.141 115.098 397.613 112.707C398.079 110.34 396.93 109.925 398.264 108.754C399.597 107.583 400.001 106.559 400.032 105.242C400.063 103.924 400.167 102.314 401.536 100.996C402.906 99.6792 404.135 100.118 405.468 98.9469C405.468 98.9469 407.44 95.6365 410.044 95.2603C412.649 94.8841 418.14 93.5032 421.405 97.5197C424.672 101.536 423.167 105.052 424.11 106.306C425.054 107.563 423.402 109.342 423.402 109.342Z" fill="#713336"/>
<path d="M397.476 112.843C397.476 112.843 391.097 130.418 403.112 131.735C413.73 131.981 417.5 119.024 419.02 112.38C420.539 105.735 419.601 98.7782 411.102 99.0056C402.602 99.2331 398.411 108.907 397.476 112.843Z" fill="#FBA990"/>
<path d="M400.813 106.54C400.813 106.54 401.599 107.948 400.87 109.369C400.142 110.79 398.165 111.336 397.868 113.211C397.572 115.085 396.705 118.984 396.174 119.154C395.643 119.326 396.019 115.348 396.108 113.984C396.198 112.621 397.214 106.984 400.048 103.403C402.882 99.8231 404.633 98.3109 409.679 97.4899C414.724 96.6689 418.549 98.7921 419.953 101.871C421.357 104.951 419.111 112.792 419.111 112.792C419.111 112.792 419.447 109.064 418.198 108.191C416.95 107.316 415.918 106.669 416.125 106.158C416.331 105.647 412.131 107.5 407.933 106.15C403.734 104.801 402.377 105.414 401.679 105.847C400.98 106.278 400.813 106.54 400.813 106.54Z" fill="#713336"/>
<path d="M388.922 140.095C388.821 140.502 383.058 154.234 383.058 154.234L388.12 156.777L386.698 159.625" stroke="#022755" stroke-width="0.4884" stroke-miterlimit="10"/>
<path d="M413.845 140.095C413.744 140.502 412.659 154.234 412.659 154.234L406.328 156.777L406.329 159.625" stroke="#022755" stroke-width="0.4884" stroke-miterlimit="10"/>
<path d="M426.15 159.793H365.869C363.095 159.793 361.406 157.543 362.099 154.769L377.307 93.7696C377.998 90.9953 380.809 88.7459 383.583 88.7459H443.864C446.638 88.7459 448.327 90.9953 447.634 93.7696L432.426 154.769C431.735 157.543 428.924 159.793 426.15 159.793Z" stroke="white" stroke-width="1.1485" stroke-miterlimit="10"/>
<path d="M216.457 92.3351H309.749" stroke="#73A5FF" stroke-width="3.4455" stroke-miterlimit="10" stroke-linecap="round" stroke-linejoin="round"/>
<path d="M209.281 135.393H302.574" stroke="#73A5FF" stroke-width="3.4455" stroke-miterlimit="10" stroke-linecap="round" stroke-linejoin="round"/>
<path d="M248.512 119.127H341.804" stroke="#73A5FF" stroke-width="3.4455" stroke-miterlimit="10" stroke-linecap="round" stroke-linejoin="round"/>
<path d="M214.065 106.688H242.053" stroke="#73A5FF" stroke-width="3.4455" stroke-miterlimit="10" stroke-linecap="round" stroke-linejoin="round"/>
<path d="M210.237 119.127H238.225" stroke="#73A5FF" stroke-width="3.4455" stroke-miterlimit="10" stroke-linecap="round" stroke-linejoin="round"/>
<path d="M324.581 92.3351H357.831" stroke="#73A5FF" stroke-width="3.4455" stroke-miterlimit="10" stroke-linecap="round" stroke-linejoin="round"/>
<path d="M340.874 155.594H291.222C290.972 155.594 290.79 155.358 290.852 155.115L293.074 146.578C293.118 146.409 293.27 146.291 293.444 146.291H343.096C343.346 146.291 343.529 146.528 343.466 146.77L341.244 155.308C341.201 155.475 341.048 155.594 340.874 155.594Z" stroke="#7094D8" stroke-width="1.1485" stroke-miterlimit="10"/>
<path d="M279.158 155.594H229.505C229.255 155.594 229.073 155.358 229.135 155.115L231.357 146.578C231.401 146.409 231.554 146.291 231.727 146.291H281.38C281.63 146.291 281.812 146.528 281.75 146.77L279.528 155.308C279.484 155.475 279.331 155.594 279.158 155.594Z" stroke="#7094D8" stroke-width="1.1485" stroke-miterlimit="10"/>
<path d="M336.303 58.6063H394.43" stroke="#7094D8" stroke-width="1.1485" stroke-miterlimit="10"/>
<path d="M450.666 311.453H182.557C179.739 311.453 177.679 308.79 178.39 306.063L203.419 209.9C203.913 208.003 205.626 206.679 207.586 206.679H475.695C478.513 206.679 480.571 209.342 479.861 212.068L454.832 308.231C454.339 310.13 452.626 311.453 450.666 311.453Z" fill="#BFD9FF"/>
<path d="M219.328 227.251H312.621" stroke="#A9C2FF" stroke-width="3.4455" stroke-miterlimit="10" stroke-linecap="round" stroke-linejoin="round"/>
<path d="M212.152 270.309H305.445" stroke="#A9C2FF" stroke-width="3.4455" stroke-miterlimit="10" stroke-linecap="round" stroke-linejoin="round"/>
<path d="M251.383 254.043H344.675" stroke="#A9C2FF" stroke-width="3.4455" stroke-miterlimit="10" stroke-linecap="round" stroke-linejoin="round"/>
<path d="M216.937 241.604H244.924" stroke="#A9C2FF" stroke-width="3.4455" stroke-miterlimit="10" stroke-linecap="round" stroke-linejoin="round"/>
<path d="M213.108 254.043H241.096" stroke="#A9C2FF" stroke-width="3.4455" stroke-miterlimit="10" stroke-linecap="round" stroke-linejoin="round"/>
<path d="M327.452 227.251H360.702" stroke="#A9C2FF" stroke-width="3.4455" stroke-miterlimit="10" stroke-linecap="round" stroke-linejoin="round"/>
<path d="M343.746 290.509H294.093C293.843 290.509 293.661 290.272 293.723 290.03L295.945 281.492C295.989 281.323 296.141 281.206 296.315 281.206H345.967C346.217 281.206 346.4 281.442 346.337 281.685L344.115 290.222C344.072 290.391 343.919 290.509 343.746 290.509Z" stroke="#84AEE5" stroke-width="1.1485" stroke-miterlimit="10"/>
<path d="M282.028 290.509H232.376C232.126 290.509 231.942 290.272 232.006 290.03L234.228 281.492C234.272 281.323 234.424 281.206 234.598 281.206H284.25C284.5 281.206 284.682 281.442 284.62 281.685L282.398 290.222C282.354 290.391 282.202 290.509 282.028 290.509Z" stroke="#84AEE5" stroke-width="1.1485" stroke-miterlimit="10"/>
<path d="M431.012 278.131C428.468 274.74 418.142 272.275 415.289 268.885C413.832 267.153 413.832 263.935 414.179 261.2C415.195 260.553 416.039 259.903 416.541 259.299C417.398 258.047 418.366 256.296 419.333 254.375C419.625 254.662 420.017 254.885 420.521 254.87C421.876 254.829 427.037 247.805 425.706 246.177C424.945 245.246 423.717 246.054 422.803 246.916C424.169 243.788 425.13 241.39 425.13 241.39H425.078C425.208 240.995 425.326 240.599 425.428 240.197C427.475 231.985 422.478 225.328 414.265 225.328C406.054 225.328 397.736 231.985 395.689 240.197C395.589 240.599 395.51 240.996 395.443 241.39H395.39C395.39 241.39 395.155 243.788 394.962 246.916C394.478 246.054 393.652 245.246 392.427 246.177C390.284 247.806 391.942 254.83 393.278 254.87C393.776 254.885 394.278 254.662 394.713 254.375C394.724 256.296 394.818 258.047 395.05 259.299C395.297 260.036 396.016 260.844 396.952 261.632C395.93 264.268 394.374 267.245 392.175 268.885C387.632 272.276 376.076 274.741 371.841 278.131C368.032 281.18 364.633 290.085 363.988 291.845H432.026C432.26 290.084 433.302 281.18 431.012 278.131Z" fill="#8DBCF8"/>
<g opacity="0.46">
<path d="M422.916 439.67H154.808C151.99 439.67 149.932 437.007 150.642 434.28L175.671 338.117C176.164 336.22 177.878 334.896 179.837 334.896H447.946C450.764 334.896 452.823 337.559 452.113 340.286L427.084 436.449C426.59 438.347 424.877 439.67 422.916 439.67Z" fill="#BFD9FF"/>
<path d="M191.579 355.468H284.872" stroke="#A9C2FF" stroke-width="3.4455" stroke-miterlimit="10" stroke-linecap="round" stroke-linejoin="round"/>
<path d="M184.402 398.526H277.695" stroke="#A9C2FF" stroke-width="3.4455" stroke-miterlimit="10" stroke-linecap="round" stroke-linejoin="round"/>
<path d="M223.634 382.26H316.926" stroke="#A9C2FF" stroke-width="3.4455" stroke-miterlimit="10" stroke-linecap="round" stroke-linejoin="round"/>
<path d="M189.187 369.821H217.174" stroke="#A9C2FF" stroke-width="3.4455" stroke-miterlimit="10" stroke-linecap="round" stroke-linejoin="round"/>
<path d="M185.359 382.26H213.347" stroke="#A9C2FF" stroke-width="3.4455" stroke-miterlimit="10" stroke-linecap="round" stroke-linejoin="round"/>
<path d="M299.703 355.468H332.953" stroke="#A9C2FF" stroke-width="3.4455" stroke-miterlimit="10" stroke-linecap="round" stroke-linejoin="round"/>
<path d="M315.996 418.727H266.343C266.093 418.727 265.911 418.491 265.973 418.248L268.195 409.71C268.239 409.542 268.391 409.424 268.565 409.424H318.217C318.467 409.424 318.65 409.66 318.587 409.903L316.365 418.441C316.322 418.609 316.171 418.727 315.996 418.727Z" stroke="#84AEE5" stroke-width="1.1485" stroke-miterlimit="10"/>
<path d="M254.28 418.727H204.627C204.377 418.727 204.195 418.491 204.257 418.248L206.479 409.71C206.523 409.542 206.676 409.424 206.849 409.424H256.502C256.752 409.424 256.934 409.66 256.872 409.903L254.65 418.441C254.605 418.609 254.453 418.727 254.28 418.727Z" stroke="#84AEE5" stroke-width="1.1485" stroke-miterlimit="10"/>
<path d="M403.264 406.347C400.72 402.957 390.394 400.491 387.541 397.102C386.084 395.37 386.084 392.152 386.431 389.417C387.447 388.769 388.29 388.119 388.793 387.516C389.65 386.264 390.617 384.513 391.585 382.592C391.877 382.878 392.268 383.102 392.773 383.087C394.128 383.046 399.289 376.021 397.959 374.394C397.198 373.463 395.97 374.27 395.056 375.133C396.422 372.005 397.383 369.607 397.383 369.607H397.331C397.461 369.212 397.579 368.814 397.681 368.413C399.728 360.2 394.731 353.543 386.518 353.543C378.307 353.543 369.989 360.2 367.942 368.413C367.842 368.816 367.763 369.213 367.696 369.607H367.643C367.643 369.607 367.408 372.005 367.215 375.133C366.731 374.27 365.905 373.463 364.68 374.394C362.537 376.023 364.195 383.047 365.531 383.087C366.029 383.102 366.531 382.878 366.966 382.592C366.977 384.513 367.071 386.264 367.303 387.516C367.55 388.253 368.269 389.06 369.205 389.849C368.183 392.485 366.627 395.461 364.428 397.102C359.885 400.493 348.329 402.957 344.094 406.347C340.285 409.397 336.886 418.302 336.241 420.061H404.279C404.511 418.302 405.552 409.397 403.264 406.347Z" fill="#8DBCF8"/>
</g>
<path d="M369.312 440.149H417.155" stroke="#7094D8" stroke-width="1.1485" stroke-miterlimit="10"/>
<path d="M206.649 311.932H320.514" stroke="#7094D8" stroke-width="1.1485" stroke-miterlimit="10"/>
<path d="M346.589 311.932H374.337" stroke="#7094D8" stroke-width="1.1485" stroke-miterlimit="10"/>
<path d="M466.433 207.157H476.05C478.878 207.157 480.9 209.894 480.068 212.597L476 225.816" stroke="#7094D8" stroke-width="1.1485" stroke-miterlimit="10"/>
<path d="M161.814 38.0716H156.908C155.676 38.0716 154.927 37.0731 155.234 35.8409L156.457 30.9347C156.764 29.7025 158.012 28.704 159.244 28.704H164.15C165.382 28.704 166.131 29.7025 165.825 30.9347L164.601 35.8409C164.294 37.0731 163.047 38.0716 161.814 38.0716Z" fill="#BFD9FF"/>
<path d="M158.227 52.4567H153.321C152.089 52.4567 151.34 51.4582 151.647 50.226L152.87 45.3197C153.178 44.0875 154.425 43.0891 155.657 43.0891H160.563C161.795 43.0891 162.544 44.0875 162.238 45.3197L161.014 50.226C160.707 51.4582 159.46 52.4567 158.227 52.4567Z" fill="#EDF4FF"/>
<path d="M173.84 52.4565H168.934C167.701 52.4565 166.953 51.458 167.259 50.2259L168.482 45.3196C168.79 44.0874 170.037 43.0889 171.269 43.0889H176.175C177.408 43.0889 178.156 44.0874 177.85 45.3196L176.627 50.2259C176.319 51.458 175.072 52.4565 173.84 52.4565Z" fill="#BFD9FF"/>
<path d="M189.451 52.4565H184.545C183.313 52.4565 182.564 51.458 182.87 50.2259L184.094 45.3196C184.401 44.0874 185.648 43.0889 186.881 43.0889H191.787C193.019 43.0889 193.768 44.0874 193.461 45.3196L192.238 50.2259C191.93 51.458 190.683 52.4565 189.451 52.4565Z" fill="#EDF4FF"/>
<path d="M154.559 67.1768H149.652C148.42 67.1768 147.672 66.1783 147.978 64.9461L149.201 60.0398C149.509 58.8076 150.756 57.8091 151.988 57.8091H156.894C158.126 57.8091 158.875 58.8076 158.569 60.0398L157.345 64.9461C157.038 66.1783 155.789 67.1768 154.559 67.1768Z" fill="#EDF4FF"/>
<path d="M150.639 82.899H145.732C144.5 82.899 143.752 81.9005 144.058 80.6684L145.281 75.7621C145.589 74.5299 146.836 73.5314 148.068 73.5314H152.974C154.206 73.5314 154.955 74.5299 154.649 75.7621L153.425 80.6684C153.118 81.9005 151.87 82.899 150.639 82.899Z" fill="#EDF4FF"/>
<path d="M170.17 67.1768H165.264C164.032 67.1768 163.282 66.1783 163.589 64.9461L164.813 60.0398C165.12 58.8076 166.367 57.8091 167.6 57.8091H172.506C173.738 57.8091 174.487 58.8076 174.18 60.0398L172.957 64.9461C172.65 66.1783 171.402 67.1768 170.17 67.1768Z" fill="#EDF4FF"/>
<path d="M163.33 94.6084H158.424C157.192 94.6084 156.443 93.6099 156.749 92.3777L157.973 87.4715C158.28 86.2393 159.527 85.2408 160.759 85.2408H165.666C166.898 85.2408 167.646 86.2393 167.34 87.4715L166.117 92.3777C165.809 93.6099 164.562 94.6084 163.33 94.6084Z" fill="#BFD9FF"/>
<path d="M240.511 9.50897V9.50647C240.486 9.50522 240.462 9.50398 240.437 9.50273C240.362 9.49773 240.29 9.48773 240.213 9.48398L240.212 9.49023C239.707 9.45898 239.197 9.43524 238.676 9.43524C224.129 9.43524 209.404 21.0985 205.528 35.5836L205.356 36.2759H205.349C205.331 36.3484 205.319 36.4196 205.301 36.4921L205.191 36.9357H205.206C202.013 51.617 211.433 63.3028 226.516 62.6929C240.268 62.1356 254.137 51.1596 258.265 37.5556C262.743 22.8006 254.595 10.4937 240.511 9.50897ZM250.545 37.0557C247.642 46.727 237.728 54.535 227.971 54.8449C217.482 55.1773 210.937 47.0369 213.1 36.7995L213.403 35.5836H213.391C216.182 25.4399 226.511 17.297 236.717 17.297C237.245 17.297 237.76 17.3245 238.268 17.3682C248.016 18.1918 253.63 26.7733 250.545 37.0557Z" fill="#EBEDFC"/>
<path d="M239.077 14.0416C238.626 15.8499 239.471 17.4195 241.117 17.8556C249.071 19.9601 253.315 27.8231 250.543 37.057C247.64 46.7283 237.726 54.535 227.97 54.8449C218.402 55.1486 212.112 48.4053 212.72 39.4501C212.846 37.6018 211.534 36.2772 209.656 36.2772C207.22 36.2772 204.795 38.4741 204.632 40.8698C203.767 53.6477 212.806 63.249 226.515 62.6942C240.268 62.1368 254.137 51.1609 258.265 37.5568C262.249 24.4239 256.234 13.2256 244.932 10.2276C242.598 9.60647 239.717 11.476 239.077 14.0416Z" fill="#A5C5FF"/>
<path d="M306.774 6.82459L306.775 6.82209C306.751 6.82084 306.728 6.81959 306.705 6.81834C306.613 6.81209 306.519 6.80834 306.426 6.80209C305.938 6.7721 305.445 6.75085 304.941 6.75085C290.228 6.75085 275.326 18.6778 271.658 33.3916C267.99 48.1041 276.943 60.0323 291.656 60.0323C292.159 60.0323 292.661 60.011 293.164 59.981C293.259 59.976 293.352 59.971 293.447 59.966C293.473 59.9648 293.5 59.9635 293.526 59.961V59.9585C307.534 59.0125 321.268 47.6067 324.874 33.624C324.894 33.5465 324.918 33.4703 324.938 33.3928C328.452 19.3014 320.384 7.7756 306.774 6.82459ZM294.939 52.118C294.914 52.1193 294.891 52.1218 294.866 52.123C294.556 52.143 294.246 52.1555 293.936 52.1618C293.83 52.163 293.722 52.1693 293.616 52.1693C283.245 52.1693 276.934 43.7614 279.52 33.3903C282.105 23.0192 292.609 14.6114 302.98 14.6114C303.086 14.6114 303.19 14.6176 303.295 14.6189C303.603 14.6239 303.908 14.6376 304.21 14.6576C304.236 14.6588 304.261 14.6613 304.287 14.6638C313.872 15.3424 319.551 23.4641 317.075 33.3903C317.055 33.4678 317.031 33.544 317.011 33.6215C314.444 43.4478 304.788 51.4507 294.939 52.118Z" fill="white"/>
<path d="M315.869 36.903C312.566 44.4336 305.166 50.3721 297.281 51.8242C295.313 52.1866 293.531 53.7837 293.054 55.6957C292.436 58.1714 294.235 60.0171 296.783 59.5548C308.019 57.514 318.578 49.0424 323.257 38.3014C324.316 35.8733 323.032 33.6226 320.562 33.6226C318.643 33.6226 316.696 35.016 315.869 36.903Z" fill="#BFD9FF"/>
<path d="M236.099 100.574H186.447C186.197 100.574 186.013 100.338 186.077 100.096L188.299 91.5578C188.343 91.3891 188.495 91.2716 188.669 91.2716H238.321C238.571 91.2716 238.754 91.5078 238.691 91.7502L236.469 100.288C236.426 100.457 236.273 100.574 236.099 100.574Z" fill="#EDF4FF"/>
<path d="M466.415 140.201C476.749 131.075 479.358 117.144 472.242 109.085C465.125 101.025 450.978 101.89 440.643 111.015C430.309 120.141 427.7 134.072 434.816 142.132C441.933 150.191 456.08 149.327 466.415 140.201Z" fill="#73A5FF"/>
<path d="M486.102 149.268C485.271 152.6 481.897 155.302 478.564 155.302C475.232 155.302 473.204 152.601 474.035 149.268C474.866 145.936 478.24 143.235 481.573 143.235C484.905 143.235 486.933 145.935 486.102 149.268Z" fill="#73A5FF"/>
<path d="M447.831 136.789C447.137 136.789 446.51 136.524 446.113 135.995L440.415 128.406C439.62 127.347 440.048 125.632 441.371 124.573C442.695 123.515 444.409 123.515 445.204 124.573L449.463 130.245L464.677 118.069C465.999 117.01 467.715 117.01 468.509 118.069C469.304 119.127 468.877 120.843 467.553 121.901L449.945 135.995C449.284 136.524 448.524 136.789 447.831 136.789Z" fill="white"/>
<path d="M593.455 510C645.375 510 687.465 506.466 687.465 502.106C687.465 497.746 645.375 494.212 593.455 494.212C541.535 494.212 499.445 497.746 499.445 502.106C499.445 506.466 541.535 510 593.455 510Z" fill="#BFD9FF"/>
<path d="M597.043 81.8106C597.043 81.8106 594.651 86.5944 593.215 97.1204C591.781 107.645 595.607 168.406 595.607 168.406L636.752 164.101L618.093 84.6824L597.043 81.8106Z" fill="#024470"/>
<path d="M572.645 338.484L558.292 409.529L586.28 410.247C586.28 410.247 593.456 347.095 590.585 347.095C587.714 347.095 572.645 338.484 572.645 338.484Z" fill="#45242C"/>
<path d="M637.71 491.818C637.71 491.818 627.185 502.822 622.879 505.214C623.836 507.127 639.145 507.127 644.887 504.257C650.628 501.386 654.934 494.688 654.934 494.688L654.456 501.865H657.326C657.326 501.865 660.197 491.817 660.197 489.425C660.197 487.033 657.326 483.684 657.326 483.684L637.71 491.818Z" fill="#713336"/>
<path d="M633.403 350.206L643.928 479.38L656.367 478.423C656.367 478.423 670.72 383.695 664.979 351.162C659.238 318.629 633.403 350.206 633.403 350.206Z" fill="#FF8D68"/>
<path d="M643.929 479.38C643.929 479.38 640.101 489.428 634.839 494.212C629.576 498.995 642.971 498.995 648.713 494.212C654.454 489.428 654.932 486.557 656.845 485.6C658.759 484.643 656.367 478.424 656.367 478.424L643.929 479.38Z" fill="#FF8D68"/>
<path d="M551.321 489.65C551.321 489.65 539.092 498.722 534.444 500.355C535.065 502.403 550.155 504.983 556.298 503.122C562.441 501.26 567.813 495.384 567.813 495.384L566.132 502.377L568.962 502.861C568.962 502.861 573.484 493.442 573.888 491.084C574.292 488.726 572.026 484.942 572.026 484.942L551.321 489.65Z" fill="#713336"/>
<path d="M570.947 349.337L559.549 478.437L571.971 479.59C571.971 479.59 602.085 388.637 601.911 355.602C601.734 322.568 570.947 349.337 570.947 349.337Z" fill="#FF8D68"/>
<path d="M559.549 478.438C559.549 478.438 554.083 487.696 548.089 491.525C542.096 495.354 555.3 497.612 561.765 493.863C568.231 490.115 569.185 487.366 571.233 486.746C573.28 486.125 571.972 479.592 571.972 479.592L559.549 478.438Z" fill="#FF8D68"/>
<path d="M526.867 144.097L502.135 139.226C502.135 139.226 501.76 142.599 504.008 143.349C506.256 144.098 506.256 144.098 506.256 144.098C506.256 144.098 511.877 157.589 514.5 159.088C517.123 160.587 532.868 167.084 532.868 167.084L536.985 151.219L526.867 144.097Z" fill="#FF7759"/>
<path d="M544.656 164.1C544.656 164.1 544.417 162.425 541.108 155.714C537.439 148.275 536.612 145.222 536.612 145.222C536.612 145.222 524.995 140.726 523.122 138.476C521.248 136.228 520.124 135.853 520.124 135.853C520.124 135.853 517.875 139.974 521.248 142.972C524.621 145.97 527.619 148.219 527.619 148.219C527.619 148.219 527.244 156.838 528.369 160.96C529.494 165.083 532.872 167.083 532.872 167.083L544.656 164.1Z" fill="#FF8D68"/>
<path d="M583.169 177.973C583.169 177.973 566.424 204.765 565.946 202.373C565.467 199.982 544.416 163.142 544.416 163.142L532.869 167.082C532.869 167.082 550.157 221.031 561.162 229.643C561.162 229.643 562.119 231.077 565.468 230.6C568.817 230.121 594.652 203.329 594.652 203.329L583.169 177.973Z" fill="#FF8D68"/>
<path d="M598.838 146.158C598.838 146.158 589.867 149.746 585.561 155.965C581.256 162.185 568.816 190.412 568.816 190.412C568.816 190.412 575.515 202.372 590.824 206.678L611.875 167.925L598.838 146.158Z" fill="#E86D5E"/>
<path d="M587.714 238.016C587.714 238.016 588.431 249.498 588.431 253.804C588.431 253.804 571.208 337.049 570.491 356.425C569.774 375.802 584.126 415.272 584.126 415.272C584.126 415.272 645.843 413.837 665.937 409.531L668.09 367.908C668.09 367.908 670.96 295.426 668.09 274.615C665.219 253.804 653.02 243.039 653.02 243.039L649.432 232.992L587.714 238.016Z" fill="#713336"/>
<path d="M640.461 141.134C640.461 141.134 656.608 148.67 661.631 156.563C666.654 164.457 681.724 207.156 681.724 207.156C681.724 207.156 664.86 213.256 650.149 213.256C650.149 213.256 651.583 226.891 653.019 231.196C654.454 235.501 649.431 237.296 649.431 237.296C649.431 237.296 614.268 246.985 588.073 241.242C588.073 241.242 584.844 240.525 584.844 239.089C584.844 237.653 585.203 234.065 585.203 234.065C585.203 234.065 582.691 209.665 581.973 205.36C581.256 201.054 573.362 189.333 574.079 184.668C574.797 180.003 586.997 158.355 586.997 158.355C586.997 158.355 595.25 148.667 598.838 146.155C602.426 143.644 611.396 143.644 611.396 143.644L640.461 141.134Z" fill="#E86D5E"/>
<path d="M609.86 128.222C609.872 128.785 611.92 140.963 605.176 149.582C598.43 158.388 625.037 158.014 631.221 149.02C636.842 140.963 636.279 139.651 636.279 139.651C636.279 139.651 631.783 125.036 633.094 115.479C632.719 106.862 609.485 112.108 609.86 128.222Z" fill="#FF8D68"/>
<path d="M609.689 77.3877C609.689 77.3877 601.933 79.3735 597.537 91.2842C593.144 103.195 596.073 128.506 599.002 131.484C601.931 134.462 610.83 133.323 623.171 129.251C636.209 124.947 640.615 111.392 642.945 102.451C647.407 85.3282 632.519 67.7102 609.689 77.3877Z" fill="#FF8D68"/>
<path d="M594.651 90.9007C594.651 90.9007 601.827 108.124 629.098 109.081L635.437 139.521C635.437 139.521 647.047 145.098 651.584 147.594C651.584 147.594 656.847 92.3353 644.409 78.94C631.969 65.5446 609.963 68.8925 601.351 76.5481C592.74 84.2036 594.651 90.9007 594.651 90.9007Z" fill="#024470"/>
<path d="M640.46 141.134L634.361 135.393C634.361 135.393 628.978 150.822 609.961 151.899C609.961 151.899 607.449 147.952 608.885 142.211L605.656 144.723C605.656 144.723 598.838 154.411 599.556 157.281C600.273 160.152 609.363 155.128 609.363 155.128C609.363 155.128 620.128 161.587 624.433 161.945C628.738 162.305 639.743 142.211 640.46 141.134Z" fill="white"/>
<path d="M629.522 108.636C629.522 108.636 632.399 103.891 635.276 105.639C638.152 107.388 633.445 118.125 629.522 118.375C625.598 118.625 627.691 111.383 629.522 108.636Z" fill="#FF7759"/>
<path d="M636.274 172.233L647.278 211.463" stroke="#BB524F" stroke-width="1.1485" stroke-miterlimit="10"/>
<path d="M629.457 174.504C629.457 174.504 631.969 182.04 640.222 187.062" stroke="#BB524F" stroke-width="1.1485" stroke-miterlimit="10"/>
<path d="M642.016 165.176C642.016 165.176 643.45 155.128 654.934 154.411" stroke="#BB524F" stroke-width="1.1485" stroke-miterlimit="10"/>
<path d="M585.681 160.869C585.681 160.869 573.959 180.125 574.079 184.671C574.199 189.216 581.733 202.134 581.733 202.134L591.062 226.534" stroke="#BB524F" stroke-width="1.1485" stroke-miterlimit="10"/>
<path d="M626.229 240.886L638.787 226.534" stroke="#BB524F" stroke-width="1.1485" stroke-miterlimit="10"/>
<path d="M520.973 148.311L506.256 144.097C506.256 144.097 507.577 147.354 508.534 148.311C509.491 149.268 519.777 152.856 519.777 152.856" stroke="#E66657" stroke-width="1.026" stroke-miterlimit="10"/>
<path d="M508.535 148.311C508.535 148.311 509.97 152.616 510.688 153.335C511.406 154.052 520.496 156.684 520.496 156.684" stroke="#E66657" stroke-width="1.026" stroke-miterlimit="10"/>
<path d="M523.127 144.723L527.617 148.22L531.021 147.354" stroke="#E66657" stroke-width="1.026" stroke-miterlimit="10"/>
<path d="M611.396 132.284C611.396 132.284 620.487 130.37 625.27 121.759" stroke="#E66657" stroke-width="1.026" stroke-miterlimit="10"/>
<path d="M603.503 111.233L601.828 120.323L604.937 121.04" stroke="#E66657" stroke-width="1.026" stroke-miterlimit="10"/>
<path d="M603.023 125.107C603.023 125.107 607.568 126.064 612.352 123.432" stroke="#E66657" stroke-width="1.026" stroke-miterlimit="10"/>
<path d="M620.008 115.898C620.008 118.342 618.026 120.323 615.583 120.323C613.139 120.323 611.158 118.342 611.158 115.898C611.158 113.453 613.14 111.473 615.583 111.473C618.026 111.473 620.008 113.453 620.008 115.898Z" fill="#FA6157"/>
<path d="M611.396 109.917C611.396 110.512 610.914 110.993 610.32 110.993C609.727 110.993 609.244 110.511 609.244 109.917C609.244 109.322 609.727 108.841 610.32 108.841C610.914 108.841 611.396 109.323 611.396 109.917Z" fill="#024470"/>
<path d="M599.795 109.917C599.795 110.512 599.312 110.993 598.719 110.993C598.125 110.993 597.643 110.511 597.643 109.917C597.643 109.322 598.125 108.841 598.719 108.841C599.312 108.841 599.795 109.323 599.795 109.917Z" fill="#024470"/>
<path d="M592.14 251.291C592.14 251.291 611.875 257.391 630.534 249.496" stroke="#562525" stroke-width="1.1485" stroke-miterlimit="10"/>
<path d="M598 258.348C598 258.348 608.047 261.697 624.313 255.478" stroke="#562525" stroke-width="1.1485" stroke-miterlimit="10"/>
<path d="M593.675 253.204L555.765 275.092L584.829 325.432L622.739 303.543L593.675 253.204Z" fill="white"/>
<path d="M629.576 272.701C629.576 272.701 623.596 279.279 621.802 280.715C620.007 282.15 607.808 283.227 607.808 283.227C607.808 283.227 602.425 292.197 600.991 291.838C599.556 291.48 599.915 290.404 599.915 290.404C599.915 290.404 599.556 274.257 600.632 272.463C601.708 270.669 619.291 265.646 619.291 265.646L621.444 263.135L629.576 272.701Z" fill="#FF8D68"/>
<path d="M676.462 208.832C676.94 210.268 680.767 221.51 682.681 227.251C684.595 232.992 641.537 263.133 634.839 268.396L629.576 272.701L621.443 263.132L659.239 225.336L653.736 212.897L676.462 208.832Z" fill="#FF8D68"/>
<path d="M600.99 291.838L603.262 281.791" stroke="#E66657" stroke-width="1.026" stroke-miterlimit="10"/>
<path d="M599.675 282.748L602.307 277.007" stroke="#E66657" stroke-width="1.026" stroke-miterlimit="10"/>
<path d="M600.632 272.462L599.675 291.838H602.784L607.808 283.227" stroke="#E66657" stroke-width="1.026" stroke-miterlimit="10"/>
<path d="M113.117 510C165.037 510 207.127 506.466 207.127 502.106C207.127 497.746 165.037 494.211 113.117 494.211C61.197 494.211 19.1074 497.746 19.1074 502.106C19.1074 506.466 61.197 510 113.117 510Z" fill="#BFD9FF"/>
<path d="M75.271 476.709C75.271 476.709 77.2655 472.435 84.6736 473.575C92.0817 474.715 92.9365 476.139 93.7913 479.843C94.6461 483.547 97.2104 487.536 98.92 488.391C100.63 489.246 106.898 493.52 112.027 494.375C117.155 495.229 117.725 498.364 116.585 499.788C115.446 501.213 96.072 502.353 91.7981 501.783C91.7981 501.783 77.2668 501.498 73.8489 500.358C70.4285 499.218 74.9861 478.134 75.271 476.709Z" fill="#2D2737"/>
<path d="M67.0428 376.558C67.0428 376.558 64.8759 364.758 77.3364 360.798C89.797 356.838 92.1552 362.596 95.9279 373.358C99.7007 384.121 92.6863 476.056 92.6863 476.056C92.6863 476.056 78.3374 478.505 74.6571 476.333C74.6571 476.333 63.7261 416.485 64.4872 400.061C65.2482 383.636 67.0428 376.558 67.0428 376.558Z" fill="#3D4776"/>
<path d="M73.1338 472.72C73.1338 472.72 89.3747 471.296 94.5033 470.441L94.2184 477.849C94.2184 477.849 81.3967 480.128 73.4187 478.989L73.1338 472.72Z" fill="#51598D"/>
<path d="M69.1459 146.204C69.1459 146.204 58.8885 146.773 52.6201 170.136C46.3517 193.499 42.3627 221.992 44.6421 229.4C46.9216 236.808 71.4241 256.752 80.5417 256.752C89.6594 256.752 90.2293 249.913 88.5197 244.215C86.8101 238.516 69.1459 223.132 69.1459 223.132C69.1459 223.132 83.3923 177.544 82.8224 165.577C82.2513 153.612 75.4131 146.204 69.1459 146.204Z" fill="#7E78C7"/>
<path d="M197.58 139.234L195.879 139.408L199.692 131.86C199.692 131.86 209.383 131.249 210.938 135.341L206.492 145.2L197.58 139.234Z" fill="#FF8D68"/>
<path d="M203.026 117.785C203.026 117.785 202.648 110.071 205.393 108.975C208.138 107.879 211.212 110.013 211.212 110.013C211.212 110.013 215.655 109.561 217.072 111.456C218.489 113.352 218.374 116.22 218.374 116.22C218.374 116.22 220.879 116.781 221.531 119.163C222.182 121.545 221.018 126.151 221.018 126.151C221.018 126.151 218.116 129.712 214.762 128.83C211.408 127.947 203.026 117.785 203.026 117.785Z" fill="#FF7759"/>
<path d="M197.949 124.014C197.949 124.014 196.92 113.918 198.008 112.584C199.096 111.249 210.22 95.8616 210.22 95.8616C210.22 95.8616 212.527 98.4822 211.199 101.474C209.872 104.466 204.634 113.541 204.634 113.541L204.607 121.296C204.607 121.296 201.181 123.686 197.949 124.014Z" fill="#FF7759"/>
<path d="M198.773 132.091C198.773 132.091 196.115 115.876 197.928 113.652C199.741 111.426 208.632 112.725 210.33 113.367C212.027 114.011 216.725 120.06 217.376 122.442C218.027 124.824 213.599 133.436 210.937 135.34C208.275 137.243 200.314 135.199 198.773 132.091Z" fill="#FF8D68"/>
<path d="M192.515 142.785L195.934 136.516C195.934 136.516 203.912 135.091 207.901 141.36C209.04 143.639 208.471 143.639 208.471 143.639L205.906 148.768L192.515 142.785Z" fill="#DEE0E8"/>
<path d="M111.347 74.1883C111.347 74.1883 119.777 76.3453 124.552 89.2895C129.327 102.234 126.144 129.739 122.96 132.975C119.776 136.21 110.106 134.974 96.6955 130.548C82.5266 125.871 77.7391 111.14 75.2072 101.424C70.3584 82.8174 86.5381 63.671 111.347 74.1883Z" fill="#FF8D68"/>
<path d="M81.1113 145.634L87.9496 121.131C87.9496 121.131 101.626 117.142 110.173 126.26L113.022 130.249V146.205C113.022 146.205 98.7768 149.053 81.1113 145.634Z" fill="#FF8D68"/>
<path d="M62.0226 277.551C62.0226 277.551 56.8939 307.468 62.0226 341.658C67.1513 375.848 77.4087 379.267 86.81 379.267C96.2126 379.267 98.777 351.915 100.487 339.948C102.196 327.981 109.034 286.953 96.2126 277.55C83.3909 268.149 68.8608 267.294 62.0226 277.551Z" fill="#3D4776"/>
<path d="M97.9225 317.725C97.9225 317.725 87.6652 290.373 105.616 278.406C123.566 266.439 137.241 268.149 141.515 287.809C145.789 307.469 146.644 374.994 140.66 388.671C134.677 402.346 113.307 380.978 97.9225 317.725Z" fill="#3D4776"/>
<path d="M127.796 75.358C127.796 75.358 131.841 80.6167 129.414 86.6839C126.987 92.7511 118.088 95.178 118.088 95.178C118.088 95.178 120.92 99.2232 118.088 104.885L116.066 108.121C116.066 108.121 118.898 114.593 118.088 116.211C117.28 117.83 114.448 117.425 114.448 117.425C114.448 117.425 111.213 108.526 109.998 109.334C108.784 110.143 105.549 114.188 105.549 117.828C105.549 121.469 106.762 124.301 105.954 126.727C105.145 129.154 92.6061 129.154 87.3474 128.346C82.0887 127.537 73.9996 111.358 71.9763 104.076C71.9763 104.076 69.1445 93.9633 73.1898 85.4692C73.1898 85.4692 72.3812 78.1886 79.257 70.9079C86.134 63.6273 107.976 66.0541 111.616 68.8859C111.616 68.8859 111.211 64.8407 115.257 65.6505C119.302 66.459 125.369 70.0994 127.796 75.358Z" fill="#C53A45"/>
<path d="M115.661 112.167C115.661 112.167 114.448 106.909 109.998 109.336C105.549 111.763 110.806 124.302 114.448 123.493C118.088 122.684 116.47 114.189 115.661 112.167Z" fill="#FF7759"/>
<path d="M77.4941 145.505C77.4941 145.505 79.4024 138.797 81.112 138.227C82.8215 137.657 103.905 135.378 115.302 142.216C120.431 146.205 119.861 149.054 119.861 149.054C119.861 149.054 85.842 142.526 77.4941 145.505Z" fill="#DEE0E8"/>
<path d="M73.1333 143.924C73.1333 143.924 108.463 141.645 133.537 152.472C144.934 158.171 171.003 183.955 171.003 183.955L191.517 141.217C191.517 141.217 203.056 137.086 207.615 147.913C207.615 147.913 194.651 198.344 183.825 214.299C176.987 219.997 144.364 201.477 144.364 201.477C144.364 201.477 149.493 267.578 147.783 297.21C145.504 302.909 101.056 305.758 93.0783 305.188C85.1003 304.618 57.1787 295.501 56.6088 293.791C56.0389 292.081 60.5978 223.701 59.4581 215.723C58.3184 207.745 54.8992 168.427 56.039 162.728C57.1787 157.031 62.3074 146.204 73.1333 143.924Z" fill="#7E78C7"/>
<path d="M110.744 478.419C110.744 478.419 112.738 474.145 120.147 475.285C127.555 476.424 128.409 477.849 129.264 481.553C130.119 485.257 132.683 489.246 134.393 490.101C136.102 490.956 142.371 495.23 147.5 496.084C152.628 496.939 153.198 500.073 152.058 501.498C150.919 502.923 131.545 504.062 127.271 503.492C127.271 503.492 112.74 503.207 109.321 502.068C105.9 500.927 110.458 479.843 110.744 478.419Z" fill="#3E3343"/>
<path d="M114.162 378.413C114.162 378.413 113.307 366.446 126.129 363.882C138.95 361.318 140.66 367.301 143.224 378.413C145.789 389.525 128.693 480.128 128.693 480.128C128.693 480.128 114.162 480.983 110.744 478.419C110.744 478.419 106.47 417.731 109.034 401.491C111.597 385.25 114.162 378.413 114.162 378.413Z" fill="#3D4776"/>
<path d="M109.604 479.844C109.604 479.844 120.716 482.978 130.118 481.268L130.973 474.715L109.319 473.29L109.604 479.844Z" fill="#51598D"/>
<path d="M94.5029 311.314C94.5029 311.314 106.47 349.778 115.444 368.583" stroke="#2A2E59" stroke-width="1.026" stroke-miterlimit="10"/>
<path d="M118.863 376.276C118.863 376.276 126.129 372.003 133.395 376.276" stroke="#2A2E59" stroke-width="1.026" stroke-miterlimit="10"/>
<path d="M117.581 380.978C117.581 380.978 123.565 377.558 133.822 384.824" stroke="#2A2E59" stroke-width="1.026" stroke-miterlimit="10"/>
<path d="M72.7061 371.148C72.7061 371.148 77.4074 366.874 88.0921 371.575" stroke="#2A2E59" stroke-width="1.026" stroke-miterlimit="10"/>
<path d="M76.125 375.421C76.125 375.421 82.9633 372.002 89.3741 377.131" stroke="#2A2E59" stroke-width="1.026" stroke-miterlimit="10"/>
<path d="M91.9384 382.259L89.374 469.444" stroke="#2A2E59" stroke-width="1.026" stroke-miterlimit="10"/>
<path d="M127.269 309.177C127.269 309.177 136.956 314.876 140.945 305.758" stroke="#2A2E59" stroke-width="1.026" stroke-miterlimit="10"/>
<path d="M136.956 310.317C136.956 310.317 141.515 345.647 140.375 369.011" stroke="#2A2E59" stroke-width="1.026" stroke-miterlimit="10"/>
<path d="M56.0391 177.546L60.5979 226.551" stroke="#524B81" stroke-width="1.026" stroke-miterlimit="10"/>
<path d="M134.249 194.64C134.249 194.64 168.012 219 183.825 214.3" stroke="#524B81" stroke-width="1.026" stroke-miterlimit="10"/>
<path d="M174.423 188.656C174.423 188.656 181.261 192.503 180.834 201.478" stroke="#524B81" stroke-width="1.026" stroke-miterlimit="10"/>
<path d="M172.713 185.238C172.713 185.238 179.979 183.101 184.252 190.366" stroke="#524B81" stroke-width="1.026" stroke-miterlimit="10"/>
<path d="M132.967 155.749C132.967 155.749 115.018 165.151 126.983 186.947" stroke="#524B81" stroke-width="1.026" stroke-miterlimit="10"/>
<path d="M107.539 127.328C107.539 127.328 110.531 135.021 120.574 133.739" stroke="#E66657" stroke-width="1.026" stroke-miterlimit="10"/>
<path d="M204.268 111.515L207.615 108.523C207.615 108.523 209.965 108.511 211.212 110.013" stroke="#E66657" stroke-width="1.026" stroke-miterlimit="10"/>
<path d="M208.257 112.014C208.257 111.8 213.029 109.236 213.029 109.236C213.029 109.236 217.375 110.304 218.016 112.583C218.657 114.863 218.158 116.074 218.158 116.074" stroke="#E66657" stroke-width="1.026" stroke-miterlimit="10"/>
<path d="M213.884 116.145C214.097 116.074 219.938 116.43 219.938 116.43C219.938 116.43 222.075 117.855 222.004 120.633C221.933 123.411 221.018 126.151 221.018 126.151C221.018 126.151 218.941 129.108 215.38 129.037" stroke="#E66657" stroke-width="1.026" stroke-miterlimit="10"/>
<path d="M217.232 122.129C217.232 122.129 217.944 123.268 217.018 125.334C216.092 127.4 214.971 132.81 210.938 135.34" stroke="#E66657" stroke-width="1.026" stroke-miterlimit="10"/>
<path d="M95.9994 85.0181C87.6652 80.9578 76.9805 85.8728 76.9805 85.8728C76.9805 85.8728 78.2626 80.3168 84.2461 78.3935" stroke="#A03A45" stroke-width="1.368" stroke-miterlimit="10"/>
<path d="M77.4072 89.2921C77.4072 89.2921 79.5442 89.0784 82.3222 93.3523" stroke="#A03A45" stroke-width="1.368" stroke-miterlimit="10"/>
<path d="M114.162 70.1305C114.162 70.1305 124.704 71.8401 124.989 82.3824" stroke="#A03A45" stroke-width="1.368" stroke-miterlimit="10"/>
</svg>
