<svg width="711" height="668" viewBox="0 0 711 668" fill="none" xmlns="http://www.w3.org/2000/svg">
<path d="M711 543.77H0V544.125H711V543.77Z" fill="#EBEBEB"/>
<path d="M448.878 553.454H412.676V553.809H448.878V553.454Z" fill="#EBEBEB"/>
<path d="M647.641 561.148H561.848V561.504H647.641V561.148Z" fill="#EBEBEB"/>
<path d="M404.974 553.632H316.337V553.987H404.974V553.632Z" fill="#EBEBEB"/>
<path d="M258.862 564.27H240.318V564.625H258.862V564.27Z" fill="#EBEBEB"/>
<path d="M361.307 564.27H276.875V564.625H361.307V564.27Z" fill="#EBEBEB"/>
<path d="M129.278 558.266H74.5967V558.621H129.278V558.266Z" fill="#EBEBEB"/>
<path d="M337.034 480.352H62.4471C57.9721 480.352 54.3304 476.71 54.3304 472.235V86.2585C54.3304 81.7835 57.9721 78.1417 62.4471 78.1417H337.034C341.508 78.1417 345.149 81.7835 345.149 86.2585V472.235C345.149 476.71 341.508 480.352 337.034 480.352ZM62.4471 78.4986C58.1669 78.4986 54.6859 81.9797 54.6859 86.2599V472.236C54.6859 476.516 58.1669 479.997 62.4471 479.997H337.034C341.313 479.997 344.794 476.516 344.794 472.236V86.2585C344.794 81.9797 341.313 78.4972 337.034 78.4972L62.4471 78.4986Z" fill="#EBEBEB"/>
<path d="M644.607 480.352H370.021C365.546 480.352 361.906 476.71 361.906 472.235V86.2585C361.906 81.7835 365.548 78.1417 370.021 78.1417H644.607C649.083 78.1417 652.724 81.7835 652.724 86.2585V472.235C652.725 476.71 649.083 480.352 644.607 480.352ZM370.021 78.4986C365.743 78.4986 362.262 81.9797 362.262 86.2599V472.236C362.262 476.516 365.743 479.997 370.021 479.997H644.607C648.887 479.997 652.368 476.516 652.368 472.236V86.2585C652.368 81.9797 648.887 78.4972 644.607 78.4972L370.021 78.4986Z" fill="#EBEBEB"/>
<path d="M278.658 420.438H184.236L178.504 354.315H272.926L278.658 420.438Z" fill="#E6E6E6"/>
<path d="M283.548 420.438H189.127L183.395 354.315H277.816L283.548 420.438Z" fill="#F0F0F0"/>
<path d="M202.033 406.238L198.885 368.514H264.909L268.056 406.238H202.033Z" fill="white"/>
<path d="M299.886 420.438H288.807V543.769H299.886V420.438Z" fill="#E6E6E6"/>
<path d="M303.382 420.438H295.688V543.769H303.382V420.438Z" fill="#F0F0F0"/>
<path d="M196.15 434.05H303.382V420.437H196.15V434.05Z" fill="#F0F0F0"/>
<path d="M199.94 434.05H188.861V543.767H199.94V434.05Z" fill="#E6E6E6"/>
<path d="M203.437 434.05H195.743V543.767H203.437V434.05Z" fill="#F0F0F0"/>
<path d="M121.08 434.05H110.002V543.767H121.08V434.05Z" fill="#E6E6E6"/>
<path d="M124.577 434.05H116.883V543.767H124.577V434.05Z" fill="#F0F0F0"/>
<path d="M229.777 434.05H218.698V543.767H229.777V434.05Z" fill="#E6E6E6"/>
<path d="M233.273 434.05H225.579V543.767H233.273V434.05Z" fill="#F0F0F0"/>
<path d="M196.149 420.438H110.002V434.051H196.149V420.438Z" fill="#E6E6E6"/>
<path d="M517.378 112.927H184.16V298.435H517.378V112.927Z" fill="#E0E0E0"/>
<path d="M535.676 112.927H185.843V298.435H535.676V112.927Z" fill="#F5F5F5"/>
<path d="M529.961 292.718V118.641L191.559 118.641L191.559 292.718L529.961 292.718Z" fill="white"/>
<path d="M328.576 292.719L392.466 118.642H287.025L223.135 292.719H328.576Z" fill="#F5F5F5"/>
<path d="M430.071 292.719L493.96 118.642H414.419L350.53 292.719H430.071Z" fill="#F5F5F5"/>
<path d="M622.994 366.596H594.669V543.77H622.994V366.596Z" fill="#E6E6E6"/>
<path d="M615.547 543.77H622.994V530.129H607.737L615.547 543.77Z" fill="#FAFAFA"/>
<path d="M361.834 366.596H333.509V543.77H361.834V366.596Z" fill="#E6E6E6"/>
<path d="M622.994 366.596H355.334V540.09H622.994V366.596Z" fill="#FAFAFA"/>
<path d="M617.927 422.574H360.4V373.575H617.927V422.574ZM361.822 421.152H616.505V374.997H361.822V421.152Z" fill="#E6E6E6"/>
<path d="M572.592 397.365H410.738C403.221 397.365 395.984 391.302 390.886 380.731L390.394 379.711H592.937L592.445 380.731C587.347 391.302 580.111 397.365 572.592 397.365ZM392.672 381.133C397.485 390.562 404.026 395.943 410.738 395.943H572.592C579.304 395.943 585.847 390.562 590.659 381.133H392.672Z" fill="#E6E6E6"/>
<path d="M362.782 543.77H355.334V530.129H370.59L362.782 543.77Z" fill="#FAFAFA"/>
<path d="M617.927 477.843H360.4V428.844H617.927V477.843ZM361.822 476.421H616.505V430.266H361.822V476.421Z" fill="#E6E6E6"/>
<path d="M572.592 452.633H410.738C403.221 452.633 395.984 446.569 390.886 435.998L390.394 434.978H592.937L592.445 435.998C587.347 446.571 580.111 452.633 572.592 452.633ZM392.672 436.4C397.485 445.83 404.026 451.211 410.738 451.211H572.592C579.306 451.211 585.847 445.83 590.659 436.4H392.672Z" fill="#E6E6E6"/>
<path d="M617.927 533.111H360.4V484.11H617.927V533.111ZM361.822 531.689H616.505V485.532H361.822V531.689Z" fill="#E6E6E6"/>
<path d="M572.592 507.9H410.738C403.221 507.9 395.984 501.837 390.886 491.265L390.394 490.246H592.937L592.445 491.265C587.347 501.838 580.111 507.9 572.592 507.9ZM392.672 491.668C397.485 501.097 404.026 506.478 410.738 506.478H572.592C579.306 506.478 585.847 501.097 590.659 491.668H392.672Z" fill="#E6E6E6"/>
<path d="M172.038 390.03V393.469H169.837L168.019 420.438H141.236L139.42 393.469H137.219V390.03H172.038Z" fill="#E6E6E6"/>
<path d="M163.223 323.094C161.022 307.03 139.34 302.441 111.829 301.852C85.6485 301.293 77.2629 292.029 77.2629 292.029C77.2629 292.029 77.3454 329.54 115.07 343.121C150.891 356.018 165.428 339.187 163.223 323.094Z" fill="#E6E6E6"/>
<path d="M149.849 359.516C150.308 352.908 160.858 340.765 186.234 346.285C204.583 350.277 211.404 340.765 211.404 340.765C211.404 340.765 209.705 367.611 182.11 375.682C155.905 383.347 149.04 371.136 149.849 359.516Z" fill="#E6E6E6"/>
<path d="M155.638 400.156C155.915 400.156 156.191 400.038 156.386 399.81C158.226 397.635 156.72 392.429 154.638 385.223C151.965 375.974 148.639 364.466 151.456 356.107C153.046 351.389 155.014 347.23 156.915 343.205C160.898 334.781 164.338 327.506 161.468 319.909C161.278 319.403 160.713 319.148 160.207 319.339C159.702 319.529 159.446 320.094 159.637 320.6C162.212 327.42 159.093 334.016 155.144 342.368C153.307 346.251 151.227 350.654 149.6 355.48C146.587 364.419 150.008 376.254 152.757 385.764C154.378 391.373 156.053 397.17 154.891 398.544C154.543 398.956 154.594 399.573 155.007 399.923C155.19 400.08 155.415 400.156 155.638 400.156Z" fill="#E6E6E6"/>
<path d="M355.5 607.992C507.771 607.992 631.21 600.783 631.21 591.89C631.21 582.998 507.771 575.789 355.5 575.789C203.23 575.789 79.7899 582.998 79.7899 591.89C79.7899 600.783 203.23 607.992 355.5 607.992Z" fill="#F5F5F5"/>
<path d="M355.443 513.41H153.519L142.467 188.672H344.391L355.443 513.41Z" fill="#407BFF"/>
<path d="M365.521 503.333H163.597L152.544 178.595H354.468L365.521 503.333Z" fill="#407BFF"/>
<path opacity="0.3" d="M365.521 503.333H163.597L152.544 178.595H354.468L365.521 503.333Z" fill="white"/>
<path d="M297.884 312.243C319.506 290.251 318.589 254.288 295.835 231.918C273.081 209.547 237.108 209.24 215.486 231.232C193.864 253.224 194.782 289.187 217.535 311.557C240.289 333.928 276.262 334.235 297.884 312.243Z" fill="#407BFF"/>
<path d="M303.553 271.729C303.829 279.824 302.034 287.425 298.648 294.058C291.238 308.669 276.093 318.606 258.271 318.606C240.45 318.606 224.628 308.669 216.222 294.058C212.386 287.426 210.073 279.825 209.798 271.729C208.916 245.834 229.187 224.851 255.08 224.851C280.973 224.851 302.671 245.834 303.553 271.729Z" fill="white"/>
<path opacity="0.6" d="M298.647 294.058C291.237 308.669 276.091 318.606 258.269 318.606C240.449 318.606 224.626 308.669 216.221 294.058C227.755 286.175 241.76 281.572 257.008 281.572C272.259 281.572 286.577 286.173 298.647 294.058Z" fill="#407BFF"/>
<path opacity="0.6" d="M271.286 270.583C279.235 262.497 278.898 249.276 270.532 241.051C262.167 232.827 248.942 232.714 240.993 240.799C233.044 248.884 233.381 262.106 241.746 270.33C250.111 278.555 263.337 278.668 271.286 270.583Z" fill="#407BFF"/>
<path d="M324.961 385.733H196.151L195.279 360.137H324.091L324.961 385.733Z" fill="white"/>
<path d="M326.52 431.483H197.708L196.836 405.887H325.648L326.52 431.483Z" fill="white"/>
<path d="M276.804 409.405L245.763 413.626C244.487 413.799 243.648 414.961 243.89 416.195L247.966 436.996C248.209 438.239 249.447 439.109 250.723 438.937L281.764 434.717C283.039 434.543 283.88 433.39 283.636 432.147L279.561 411.346C279.319 410.11 278.079 409.232 276.804 409.405ZM267.885 430.478L262.265 431.243L261.699 424.53C260.503 424.002 259.637 422.941 259.393 421.691C258.995 419.658 260.368 417.774 262.454 417.489C264.533 417.206 266.554 418.63 266.953 420.663C267.198 421.913 266.781 423.147 265.85 423.965L267.885 430.478Z" fill="#407BFF"/>
<path d="M273.741 408.29C272.606 408.444 271.511 407.673 271.295 406.568L270.895 404.532C269.797 398.928 264.439 394.697 258.639 395.202C252.439 395.743 248.283 401.217 249.443 407.138L249.901 409.478C250.117 410.583 249.373 411.604 248.239 411.757C247.104 411.911 246.009 411.14 245.793 410.035L245.404 408.05C243.874 400.24 248.79 392.732 256.744 391.349C265.105 389.892 273.35 395.532 274.944 403.67L275.402 406.009C275.618 407.114 274.874 408.135 273.741 408.29Z" fill="#407BFF"/>
<path d="M305.256 467.325H221.41L220.844 450.663H304.689L305.256 467.325Z" fill="#407BFF"/>
<path d="M264.802 372.935C264.89 375.52 262.865 377.616 260.28 377.616C257.695 377.616 255.528 375.52 255.44 372.935C255.351 370.35 257.376 368.254 259.961 368.254C262.547 368.254 264.714 370.35 264.802 372.935Z" fill="#263238"/>
<path d="M244.648 372.935C244.736 375.52 242.711 377.616 240.126 377.616C237.541 377.616 235.374 375.52 235.286 372.935C235.197 370.35 237.222 368.254 239.808 368.254C242.393 368.254 244.56 370.35 244.648 372.935Z" fill="#263238"/>
<path d="M224.494 372.935C224.582 375.52 222.557 377.616 219.972 377.616C217.387 377.616 215.22 375.52 215.132 372.935C215.043 370.35 217.068 368.254 219.653 368.254C222.239 368.254 224.406 370.35 224.494 372.935Z" fill="#263238"/>
<path d="M284.956 372.935C285.044 375.52 283.019 377.616 280.434 377.616C277.849 377.616 275.682 375.52 275.594 372.935C275.505 370.35 277.53 368.254 280.116 368.254C282.701 368.254 284.868 370.35 284.956 372.935Z" fill="#263238"/>
<path d="M305.11 372.935C305.198 375.52 303.173 377.616 300.588 377.616C298.003 377.616 295.836 375.52 295.748 372.935C295.659 370.35 297.684 368.254 300.27 368.254C302.855 368.254 305.023 370.35 305.11 372.935Z" fill="#263238"/>
<path d="M474.82 247.828C476.716 250.864 478.283 253.777 479.909 256.802C481.529 259.797 482.994 262.878 484.431 265.982C487.26 272.215 489.791 278.645 491.682 285.508C491.935 286.35 492.129 287.243 492.339 288.117L492.65 289.432L492.805 290.089L492.99 291.173C493.397 294.062 493.04 296.419 492.547 298.498C491.527 302.641 489.883 305.946 488.121 309.1C484.525 315.344 480.327 320.662 475.486 325.699L469.497 321.166C472.45 315.563 475.367 309.693 477.513 304.049C478.553 301.242 479.427 298.385 479.683 296.041C479.807 294.887 479.725 293.896 479.565 293.528L479.004 291.79C478.77 291.076 478.563 290.367 478.281 289.647C476.232 283.909 473.626 278.146 470.789 272.464C467.992 266.803 464.892 261.039 461.84 255.66L474.82 247.828Z" fill="#FF8B7B"/>
<path d="M471.018 319.132L464.489 322.598L471.995 331.386C471.995 331.386 476.68 328.216 476.892 323.376L471.018 319.132Z" fill="#FF8B7B"/>
<path d="M455.703 328.017L463.745 334.398L471.995 331.387L464.488 322.599L455.703 328.017Z" fill="#FF8B7B"/>
<path d="M428.237 201.304C428.076 202.095 427.527 202.651 427.01 202.545C426.493 202.44 426.205 201.715 426.365 200.924C426.526 200.134 427.075 199.578 427.593 199.683C428.109 199.788 428.397 200.515 428.237 201.304Z" fill="#263238"/>
<path d="M427.6 202.666C427.6 202.666 424.875 206.861 422.449 208.66C423.583 210.25 426.082 210.136 426.082 210.136L427.6 202.666Z" fill="#FF5652"/>
<path d="M425.037 230.56L425.098 221.24L437.441 222.732C437.441 222.732 437.229 230.747 430.337 233.103L425.037 230.56Z" fill="#FF8B7B"/>
<path d="M428.585 214.529L437.276 217.026L437.443 222.732L425.098 221.24L428.585 214.529Z" fill="#FF8B7B"/>
<path opacity="0.2" d="M437.279 217.026L428.591 214.523L426.899 217.765C427.112 223.268 430.468 227.79 434.919 229.824C437.336 226.653 437.436 222.728 437.436 222.728L437.279 217.026Z" fill="black"/>
<path d="M432.023 197.503C432.139 197.503 432.254 197.462 432.345 197.376C432.537 197.199 432.548 196.899 432.37 196.707C430.592 194.781 428.433 195.124 428.339 195.14C428.082 195.184 427.908 195.428 427.952 195.686C427.996 195.943 428.244 196.115 428.497 196.074C428.568 196.063 430.256 195.815 431.675 197.351C431.769 197.452 431.896 197.503 432.023 197.503Z" fill="#263238"/>
<path d="M450.192 215.693C448.758 223.011 447.892 233.148 453.011 238.031C453.011 238.031 451.01 245.454 437.414 245.454C422.463 245.454 430.222 238.94 430.222 238.94C436.436 237.012 436.382 229.933 434.96 224.247L450.192 215.693Z" fill="#FF8B7B"/>
<path d="M455.811 242.925C457.142 241.039 457.089 235.082 455.667 234.031C453.372 232.335 443.556 231.945 430.333 234.985C431.756 240.756 428.707 243.781 428.707 243.781L455.811 242.925Z" fill="#407BFF"/>
<path d="M500.253 580.513C499.249 580.731 498.246 580.787 497.763 580.376C497.559 580.203 497.356 579.873 497.534 579.276C497.627 578.962 497.832 578.727 498.144 578.579C499.495 577.935 502.597 579.199 502.73 579.253C502.816 579.289 502.873 579.371 502.876 579.465C502.879 579.559 502.826 579.644 502.742 579.685C502.267 579.914 501.261 580.295 500.253 580.513ZM498.626 578.915C498.523 578.937 498.431 578.967 498.348 579.007C498.161 579.097 498.043 579.229 497.989 579.411C497.862 579.838 498.02 579.971 498.073 580.015C498.61 580.473 500.608 580.051 502.014 579.488C501.059 579.152 499.514 578.723 498.626 578.915Z" fill="#407BFF"/>
<path d="M502.69 579.704C502.651 579.712 502.612 579.711 502.573 579.7C501.443 579.37 499.024 577.651 498.994 576.517C498.988 576.311 499.061 575.938 499.6 575.751C499.95 575.628 500.302 575.657 500.649 575.835C501.986 576.517 502.831 579.287 502.866 579.405C502.892 579.489 502.869 579.579 502.808 579.64C502.774 579.673 502.734 579.694 502.69 579.704ZM499.859 576.169C499.824 576.176 499.789 576.186 499.755 576.197C499.462 576.3 499.466 576.443 499.468 576.504C499.485 577.176 501.081 578.524 502.252 579.07C501.959 578.27 501.291 576.694 500.435 576.257C500.238 576.156 500.049 576.128 499.859 576.169Z" fill="#407BFF"/>
<path d="M426.408 582.191C425.124 582.191 423.884 582.015 423.469 581.437C423.324 581.235 423.209 580.891 423.489 580.402C423.645 580.128 423.898 579.941 424.239 579.848C425.905 579.395 429.4 581.386 429.548 581.471C429.633 581.521 429.679 581.618 429.663 581.715C429.647 581.811 429.572 581.89 429.475 581.909C428.837 582.037 427.604 582.191 426.408 582.191ZM424.821 580.251C424.655 580.251 424.5 580.268 424.363 580.305C424.144 580.365 423.994 580.473 423.9 580.637C423.732 580.931 423.793 581.078 423.854 581.16C424.319 581.807 426.847 581.821 428.707 581.558C427.779 581.083 425.99 580.251 424.821 580.251Z" fill="#407BFF"/>
<path d="M429.428 581.915C429.396 581.915 429.363 581.908 429.332 581.894C428.124 581.352 425.733 579.189 425.916 578.057C425.959 577.791 426.148 577.461 426.798 577.395C427.284 577.345 427.723 577.483 428.112 577.801C429.384 578.846 429.653 581.54 429.664 581.655C429.673 581.739 429.635 581.821 429.566 581.87C429.526 581.899 429.477 581.915 429.428 581.915ZM426.988 577.86C426.941 577.86 426.894 577.862 426.846 577.867C426.419 577.909 426.392 578.077 426.384 578.133C426.274 578.811 427.898 580.512 429.131 581.251C429.003 580.465 428.646 578.852 427.812 578.167C427.56 577.962 427.288 577.86 426.988 577.86Z" fill="#407BFF"/>
<path d="M440.428 581.678H430.425L429.43 558.516H439.431L440.428 581.678Z" fill="#FF8B7B"/>
<path d="M513.838 577.048L504.063 579.164L494.249 557.59L504.024 555.473L513.838 577.048Z" fill="#FF8B7B"/>
<path d="M503.124 578.182L514.106 575.805C514.505 575.718 514.912 575.921 515.083 576.293L518.895 584.564C519.29 585.422 518.767 586.429 517.84 586.612C513.992 587.376 512.081 587.555 507.25 588.6C504.278 589.243 497.571 590.878 493.468 591.765C489.455 592.634 487.951 588.712 489.551 587.981C496.726 584.704 499.724 581.817 501.666 579.127C502.017 578.642 502.539 578.309 503.124 578.182Z" fill="#263238"/>
<path d="M430.491 580.52H441.413C441.822 580.52 442.175 580.804 442.265 581.203L444.24 590.093C444.445 591.014 443.745 591.888 442.801 591.872C438.86 591.805 433.167 591.573 428.215 591.573C422.425 591.573 417.424 591.889 410.632 591.889C406.526 591.889 405.387 587.738 407.106 587.361C414.931 585.649 421.319 585.466 428.08 581.298C428.817 580.846 429.627 580.52 430.491 580.52Z" fill="#263238"/>
<path d="M470.919 240.292C480.293 242.441 488.023 266.373 488.023 266.373L469.199 280.721C469.199 280.721 462.289 274.207 459.215 262.237C455.991 249.693 461.334 238.095 470.919 240.292Z" fill="#407BFF"/>
<path opacity="0.4" d="M470.919 240.292C480.293 242.441 488.023 266.373 488.023 266.373L469.199 280.721C469.199 280.721 462.289 274.207 459.215 262.237C455.991 249.693 461.334 238.095 470.919 240.292Z" fill="black"/>
<path d="M421.626 268.853C419.287 271.377 416.955 273.623 414.539 275.933C413.34 277.082 412.114 278.209 410.861 279.314L408.973 280.967L408.498 281.378C408.268 281.576 407.987 281.811 407.687 282.039C407.062 282.502 406.376 283.041 404.94 283.662C404.179 283.955 403.201 284.343 401.482 284.377C400.664 284.39 399.555 284.248 398.496 283.847C397.413 283.446 396.367 282.752 395.65 282.038C394.163 280.544 393.713 279.232 393.42 278.355C393.149 277.451 393.071 276.805 393.015 276.241C392.926 275.137 392.983 274.391 393.044 273.699C393.11 273.017 393.204 272.427 393.308 271.869C393.726 269.677 394.318 267.908 394.959 266.136C395.609 264.383 396.328 262.699 397.169 260.997C398.072 259.185 398.944 257.871 399.812 256.357C403.326 250.484 407.45 245.12 411.831 240.065C416.308 235.044 421.006 230.454 426.408 226.247L431.642 231.632C427.965 236.551 424.35 241.822 421.01 247.021C417.673 252.259 414.577 257.591 411.912 263.013C411.298 264.353 410.54 265.82 410.113 266.941C409.614 268.165 409.156 269.48 408.779 270.776C408.407 272.056 408.107 273.389 407.972 274.368C407.941 274.604 407.925 274.81 407.925 274.929C407.921 275.039 407.949 275.1 407.935 274.797C407.921 274.632 407.905 274.386 407.751 273.866C407.578 273.371 407.308 272.434 406.11 271.222C405.533 270.655 404.666 270.061 403.767 269.739C402.898 269.399 401.989 269.3 401.372 269.303C400.057 269.332 399.47 269.601 399.08 269.741C398.383 270.042 398.369 270.123 398.376 270.092L398.922 269.594L400.63 268.03L404.03 264.846C406.28 262.726 408.543 260.465 410.681 258.366L421.626 268.853Z" fill="#FF8B7B"/>
<path opacity="0.2" d="M462.885 257.891C467.977 262.929 469.638 272.105 470.034 280.083L469.203 280.723C469.203 280.723 462.287 274.201 459.209 262.234C459.019 261.486 458.855 260.736 458.719 260.001L462.885 257.891Z" fill="black"/>
<path d="M411.68 250.322C409.636 261.128 408.356 283.316 414.293 327.259H467.79C468.158 319.047 462.998 278.986 470.919 240.292C470.919 240.292 461.749 238.452 453.011 238.031C446.175 237.702 436.278 237.484 430.269 238.033C427.76 238.262 425.299 238.624 423.105 239.013C417.32 240.035 412.772 244.55 411.68 250.322Z" fill="#407BFF"/>
<path opacity="0.4" d="M411.68 250.322C409.636 261.128 408.356 283.316 414.293 327.259H467.79C468.158 319.047 462.998 278.986 470.919 240.292C470.919 240.292 461.749 238.452 453.011 238.031C446.175 237.702 436.278 237.484 430.269 238.033C427.76 238.262 425.299 238.624 423.105 239.013C417.32 240.035 412.772 244.55 411.68 250.322Z" fill="black"/>
<path opacity="0.2" d="M419.867 266.292L410.2 263.977C409.9 269.832 409.873 277.088 410.31 286.061C414.762 280.996 420.438 273.099 419.867 266.292Z" fill="black"/>
<path opacity="0.2" d="M429.431 558.522L429.943 570.461H439.95L439.438 558.522H429.431Z" fill="black"/>
<path opacity="0.2" d="M504.029 555.479L494.249 557.596L499.313 568.716L509.093 566.599L504.029 555.479Z" fill="black"/>
<path d="M454.946 204.988C452.377 214.577 451.36 220.319 445.443 224.306C436.543 230.303 425.462 223.42 425.115 213.257C424.804 204.11 429.059 189.966 439.347 188.034C449.484 186.131 457.516 195.4 454.946 204.988Z" fill="#FF8B7B"/>
<path d="M432.497 205.357C432.022 204.071 429.807 194.163 431.886 191.59C433.966 189.018 457.639 190.868 461.14 194.313C466.948 200.028 462.919 205.129 456.562 211.71C451.779 216.659 451.596 222.237 449.184 223.055C444.958 224.49 438.404 223.142 437.09 218.63C435.776 214.119 432.497 205.357 432.497 205.357Z" fill="#263238"/>
<path d="M458.274 183.043C449.905 179.479 434.218 183.421 425.745 181.379C425.442 185.766 428.09 192.8 436.561 194.692C436.561 194.692 448.587 197.037 457.891 196.658C467.195 196.28 465.379 186.069 458.274 183.043Z" fill="#263238"/>
<path d="M459.582 194.616C459.582 194.616 464.757 195.199 468.43 192.918C470.001 196.7 461.399 197.738 459.582 194.616Z" fill="#263238"/>
<path d="M437.057 205.751C436.902 208.346 435.698 210.787 434.248 212.386C432.068 214.787 429.792 213.293 429.406 210.366C429.057 207.733 429.772 203.309 432.439 201.985C435.065 200.678 437.234 202.783 437.057 205.751Z" fill="#FF8B7B"/>
<path d="M433.269 327.259C433.269 327.259 444.62 403.696 450.852 432.332C457.676 463.691 494.267 567.442 494.267 567.442L512.172 563.566C512.172 563.566 486.586 479.016 480.858 435.175C476.458 401.499 467.79 327.259 467.79 327.259H433.269Z" fill="#407BFF"/>
<path d="M489.98 561.465C489.903 561.482 493.317 567.94 493.317 567.94L513.461 563.578L511.764 557.522L489.98 561.465Z" fill="#263238"/>
<path opacity="0.3" d="M440.443 354.493C453.568 357.067 452.179 406.012 450.601 431.186C446.815 413.391 441.275 379.149 437.49 354.847C438.36 354.412 439.341 354.276 440.443 354.493Z" fill="black"/>
<path d="M414.293 327.259C414.293 327.259 412.915 402.042 414.002 432.543C415.134 464.269 426.216 568.149 426.216 568.149H443.159C443.159 568.149 443.781 466.123 444.534 434.964C445.356 400.997 449.457 327.259 449.457 327.259H414.293Z" fill="#407BFF"/>
<path d="M422.955 561.4C422.877 561.4 423.911 568.435 423.911 568.435H444.521L445.079 562.156L422.955 561.4Z" fill="#263238"/>
<path d="M432.646 253.602C437.443 266.527 409.266 281.751 409.266 281.751L397.068 266.069C397.068 266.069 405.206 249.872 415.193 242.57C427.529 233.551 428.995 243.763 432.646 253.602Z" fill="#407BFF"/>
<path opacity="0.4" d="M432.646 253.602C437.443 266.527 409.266 281.751 409.266 281.751L397.068 266.069C397.068 266.069 405.206 249.872 415.193 242.57C427.529 233.551 428.995 243.763 432.646 253.602Z" fill="black"/>
<path d="M543.026 155.472C571.367 155.472 594.342 140.829 594.342 122.766C594.342 104.702 571.367 90.0595 543.026 90.0595C514.685 90.0595 491.711 104.702 491.711 122.766C491.711 140.829 514.685 155.472 543.026 155.472Z" fill="#407BFF"/>
<path d="M524.499 139.228C521.648 139.228 518.865 138.375 516.448 136.727C513.205 134.517 511.051 131.167 510.381 127.293C509.104 119.889 514.022 112.511 521.344 110.848C527.373 109.481 533.496 112.051 536.734 117.271L569.677 110.472C572.346 109.922 575.058 111.513 575.715 114.023C576.064 115.357 575.857 116.735 575.132 117.904C574.406 119.073 573.265 119.867 571.918 120.146L571.054 120.325C570.795 120.378 570.585 120.534 570.459 120.765C570.334 120.992 570.316 121.261 570.41 121.503L570.99 123.013C571.384 124.035 571.017 125.186 570.114 125.747C569.411 126.185 568.934 126.936 568.838 127.758C568.722 128.765 568.049 129.54 567.126 129.73L566.448 129.87C565.528 130.058 564.604 129.617 564.096 128.738C563.502 127.711 562.321 127.182 561.155 127.424C559.985 127.666 559.105 128.62 558.963 129.799C558.842 130.807 558.169 131.58 557.249 131.77L556.585 131.906C555.674 132.095 554.741 131.652 554.233 130.774C553.816 130.058 553.077 129.557 552.254 129.435C551.203 129.278 550.408 128.368 550.364 127.27L550.298 125.654C550.288 125.391 550.169 125.157 549.963 124.997C549.757 124.835 549.509 124.776 549.242 124.827L538.745 126.995C537.854 132.943 533.371 137.705 527.438 138.929C526.459 139.127 525.475 139.228 524.499 139.228ZM521.658 112.234C515.061 113.733 510.632 120.381 511.785 127.051C512.386 130.542 514.327 133.56 517.25 135.552C520.172 137.544 523.687 138.248 527.152 137.533C532.649 136.398 536.768 131.89 537.399 126.316L537.458 125.804L548.955 123.431C549.619 123.293 550.305 123.455 550.839 123.873C551.372 124.29 551.692 124.917 551.72 125.594L551.786 127.211C551.801 127.62 552.093 127.971 552.463 128.025C553.73 128.215 554.822 128.955 555.463 130.059C555.619 130.329 555.917 130.589 556.299 130.511L556.963 130.375C557.34 130.296 557.515 129.938 557.552 129.628C557.764 127.842 559.098 126.396 560.87 126.03C562.636 125.666 564.426 126.468 565.327 128.024C565.484 128.294 565.78 128.557 566.162 128.476L566.842 128.337C567.219 128.259 567.392 127.902 567.426 127.593C567.574 126.325 568.282 125.213 569.366 124.54C569.685 124.343 569.811 123.906 569.665 123.525L569.084 122.013C568.841 121.38 568.888 120.678 569.214 120.084C569.539 119.491 570.105 119.071 570.769 118.935L571.634 118.755C572.595 118.558 573.409 117.989 573.926 117.157C574.444 116.324 574.592 115.34 574.343 114.387C573.874 112.598 571.907 111.466 569.966 111.87L536.024 118.875L535.768 118.428C532.92 113.453 527.258 110.962 521.658 112.234ZM524.518 133.971C522.757 133.971 521.035 133.459 519.529 132.469C517.496 131.131 516.106 129.083 515.616 126.702C515.122 124.315 515.587 121.882 516.925 119.852C518.262 117.823 520.311 116.435 522.694 115.943C525.081 115.449 527.514 115.913 529.543 117.248C531.572 118.582 532.96 120.633 533.452 123.02C533.945 125.402 533.48 127.834 532.147 129.864C530.811 131.898 528.761 133.288 526.373 133.78C525.756 133.908 525.135 133.971 524.518 133.971ZM524.56 117.173C524.035 117.173 523.508 117.227 522.982 117.335C520.971 117.75 519.242 118.922 518.114 120.634C516.987 122.347 516.594 124.399 517.009 126.414C517.425 128.424 518.596 130.151 520.313 131.28C522.028 132.408 524.08 132.802 526.09 132.387C528.104 131.972 529.833 130.797 530.961 129.082C532.087 127.369 532.478 125.318 532.063 123.306C531.646 121.291 530.476 119.56 528.764 118.434C527.497 117.605 526.045 117.173 524.56 117.173Z" fill="white"/>
<path opacity="0.6" d="M501.248 174.647C510.563 174.647 518.114 169.834 518.114 163.897C518.114 157.96 510.563 153.147 501.248 153.147C491.933 153.147 484.382 157.96 484.382 163.897C484.382 169.834 491.933 174.647 501.248 174.647Z" fill="#407BFF"/>
<path opacity="0.3" d="M474.42 179.058C478.244 179.058 481.344 177.083 481.344 174.646C481.344 172.209 478.244 170.233 474.42 170.233C470.597 170.233 467.497 172.209 467.497 174.646C467.497 177.083 470.597 179.058 474.42 179.058Z" fill="#407BFF"/>
</svg>
