<svg width="690" height="690" viewBox="0 0 690 690" fill="none" xmlns="http://www.w3.org/2000/svg">
<path d="M690 527.709H0V528.054H690V527.709Z" fill="#EBEBEB"/>
<path d="M443.706 546.952H397.998V547.297H443.706V546.952Z" fill="#EBEBEB"/>
<path d="M573.774 543.208H561.777V543.553H573.774V543.208Z" fill="#EBEBEB"/>
<path d="M547.289 537.107H452.18V537.452H547.289V537.107Z" fill="#EBEBEB"/>
<path d="M310.703 545.253H268.883V545.598H310.703V545.253Z" fill="#EBEBEB"/>
<path d="M256.596 545.253H230.069V545.598H256.596V545.253Z" fill="#EBEBEB"/>
<path d="M137.03 539.425H72.3933V539.77H137.03V539.425Z" fill="#EBEBEB"/>
<path d="M327.079 466.164H60.6026C56.2598 466.164 52.7256 462.63 52.7256 458.287V83.7108C52.7256 79.3679 56.2598 75.8337 60.6026 75.8337H327.079C331.421 75.8337 334.955 79.3679 334.955 83.7108V458.287C334.955 462.63 331.421 466.164 327.079 466.164ZM60.6026 76.1801C56.4488 76.1801 53.0706 79.5584 53.0706 83.7122V458.288C53.0706 462.442 56.4488 465.82 60.6026 465.82H327.079C331.232 465.82 334.61 462.442 334.61 458.288V83.7108C334.61 79.5584 331.232 76.1787 327.079 76.1787L60.6026 76.1801Z" fill="#EBEBEB"/>
<path d="M625.568 466.164H359.092C354.75 466.164 351.217 462.63 351.217 458.287V83.7108C351.217 79.3679 354.751 75.8337 359.092 75.8337H625.568C629.912 75.8337 633.445 79.3679 633.445 83.7108V458.287C633.446 462.63 629.912 466.164 625.568 466.164ZM359.092 76.1801C354.94 76.1801 351.562 79.5584 351.562 83.7122V458.288C351.562 462.442 354.94 465.82 359.092 465.82H625.568C629.721 465.82 633.1 462.442 633.1 458.288V83.7108C633.1 79.5584 629.721 76.1787 625.568 76.1787L359.092 76.1801Z" fill="#EBEBEB"/>
<path d="M79.1264 323.947L314.132 323.947V107.589L79.1264 107.589L79.1264 323.947Z" fill="#E6E6E6"/>
<path d="M73.5471 323.947L311.708 323.947V107.589L73.5471 107.589L73.5471 323.947Z" fill="#F5F5F5"/>
<path d="M301.694 313.124L301.694 118.412L83.563 118.412L83.563 313.124H301.694Z" fill="#FAFAFA"/>
<path d="M274.741 313.125L201.386 118.412H170.499L243.856 313.125H274.741Z" fill="white"/>
<path d="M235.101 313.125L161.744 118.412H140.477L213.834 313.125H235.101Z" fill="white"/>
<path d="M169.351 313.125L169.351 118.413H157.403L157.403 313.125H169.351Z" fill="#E6E6E6"/>
<path d="M235.858 313.125L235.858 118.412H223.91L223.91 313.125H235.858Z" fill="#E6E6E6"/>
<path d="M167.195 319.992L167.195 110.366H152.093L152.093 319.992H167.195Z" fill="#F5F5F5"/>
<path d="M233.703 319.991L233.703 110.365H218.6L218.6 319.991H233.703Z" fill="#F5F5F5"/>
<path d="M84.626 313.125L84.626 118.413H83.5634L83.5634 313.125H84.626Z" fill="#E6E6E6"/>
<path d="M615.309 109.566H373.552V278.676H615.309V109.566Z" fill="#EBEBEB"/>
<path d="M615.308 278.677H617.346V109.568H615.308V278.677Z" fill="#E0E0E0"/>
<path d="M606.839 270.208V118.037L382.022 118.037V270.208H606.839Z" fill="white"/>
<path d="M383.703 270.207V118.036H382.023V270.207H383.703Z" fill="#E0E0E0"/>
<path d="M580.08 134.446H525.158V211.613H580.08V134.446Z" fill="#F5F5F5"/>
<path d="M454.554 148.75H399.631V225.917H454.554V148.75Z" fill="#F5F5F5"/>
<path d="M542.079 167.949H487.157V245.116H542.079V167.949Z" fill="#EBEBEB"/>
<path d="M466.767 171.337H445.316V192.787H466.767V171.337Z" fill="#F5F5F5"/>
<path d="M460.538 215.192H439.087V236.642H460.538V215.192Z" fill="#F0F0F0"/>
<path d="M564.557 517.794C564.557 512.318 568.996 507.879 574.472 507.879C579.948 507.879 584.387 512.318 584.387 517.794C584.387 523.27 579.948 527.709 574.472 527.709C568.996 527.709 564.557 523.271 564.557 517.794Z" fill="#E0E0E0"/>
<path d="M581.288 517.794C581.288 512.318 585.727 507.879 591.203 507.879C596.679 507.879 601.118 512.318 601.118 517.794C601.118 523.27 596.679 527.709 591.203 527.709C585.727 527.709 581.288 523.271 581.288 517.794Z" fill="#E0E0E0"/>
<path d="M307.292 517.794C307.292 512.318 311.731 507.879 317.207 507.879C322.683 507.879 327.122 512.318 327.122 517.794C327.122 523.27 322.683 527.709 317.207 527.709C311.731 527.709 307.292 523.271 307.292 517.794Z" fill="#E0E0E0"/>
<path d="M324.022 517.794C324.022 512.318 328.462 507.879 333.938 507.879C339.414 507.879 343.853 512.318 343.853 517.794C343.853 523.27 339.414 527.709 333.938 527.709C328.462 527.709 324.022 523.271 324.022 517.794Z" fill="#E0E0E0"/>
<path d="M581.724 519.162H605.191V307.741H581.724V519.162Z" fill="#EBEBEB"/>
<path d="M581.722 307.74H305.257V519.162H581.722V307.74Z" fill="#F5F5F5"/>
<path d="M572.736 316.416H314.245V510.487H572.736V316.416Z" fill="#EBEBEB"/>
<path d="M569.06 398.038H317.922V506.907H569.06V398.038Z" fill="#F5F5F5"/>
<path d="M569.06 320.501H317.922V395.28H569.06V320.501Z" fill="#F5F5F5"/>
<path d="M363.616 399.876H523.365C524.377 399.876 525.203 399.049 525.203 398.038C525.203 397.026 524.377 396.199 523.365 396.199H363.616C362.605 396.199 361.778 397.026 361.778 398.038C361.777 399.049 362.605 399.876 363.616 399.876Z" fill="#EBEBEB"/>
<path d="M363.616 322.339H523.365C524.377 322.339 525.203 321.512 525.203 320.501C525.203 319.489 524.377 318.663 523.365 318.663H363.616C362.605 318.663 361.778 319.491 361.778 320.501C361.777 321.512 362.605 322.339 363.616 322.339Z" fill="#EBEBEB"/>
<path d="M209.931 419.761H88.1931V527.71H209.931V419.761Z" fill="#F5F5F5"/>
<path d="M209.929 527.71H257.257V419.76H209.929V527.71Z" fill="#EBEBEB"/>
<path d="M212.571 400.824H82.1914V419.761H212.571V400.824Z" fill="#EBEBEB"/>
<path d="M212.572 419.761H263.258V400.824H212.572V419.761Z" fill="#E0E0E0"/>
<path d="M345 590.034C492.773 590.034 612.567 583.038 612.567 574.408C612.567 565.779 492.773 558.783 345 558.783C197.227 558.783 77.4331 565.779 77.4331 574.408C77.4331 583.038 197.227 590.034 345 590.034Z" fill="#F5F5F5"/>
<path d="M563.998 257.91H562.618V274.355H563.998V257.91Z" fill="#407BFF"/>
<path d="M563.998 210.792H562.618V246.398H563.998V210.792Z" fill="#407BFF"/>
<path d="M543.956 379.769H213.069C207.642 379.769 203.202 375.328 203.202 369.902V191.908C203.202 186.481 207.643 182.041 213.069 182.041H543.957C549.385 182.041 553.824 186.482 553.824 191.908V369.902C553.824 375.33 549.383 379.769 543.956 379.769Z" fill="#E0E0E0"/>
<path d="M549.001 374.725H218.113C212.686 374.725 208.246 370.284 208.246 364.858V186.864C208.246 181.437 212.687 176.997 218.113 176.997H549.001C554.429 176.997 558.868 181.438 558.868 186.864V364.858C558.868 370.284 554.427 374.725 549.001 374.725Z" fill="white"/>
<path d="M549 375.415H218.113C212.292 375.415 207.556 370.679 207.556 364.858V186.864C207.556 181.044 212.292 176.307 218.113 176.307H549C554.821 176.307 559.557 181.044 559.557 186.864V364.858C559.558 370.679 554.821 375.415 549 375.415ZM218.113 177.686C213.053 177.686 208.936 181.803 208.936 186.863V364.858C208.936 369.919 213.053 374.035 218.113 374.035H549C554.06 374.035 558.177 369.919 558.177 364.858V186.864C558.177 181.804 554.06 177.687 549 177.687H218.113V177.686Z" fill="#407BFF"/>
<path d="M362.66 262.875H235.144C232.309 262.875 230.003 260.569 230.003 257.734V240.159C230.003 237.324 232.309 235.018 235.144 235.018H362.66C365.494 235.018 367.8 237.324 367.8 240.159V257.734C367.802 260.569 365.496 262.875 362.66 262.875ZM235.145 236.398C233.072 236.398 231.385 238.086 231.385 240.159V257.734C231.385 259.807 233.072 261.495 235.145 261.495H362.661C364.734 261.495 366.422 259.807 366.422 257.734V240.159C366.422 238.086 364.734 236.398 362.661 236.398H235.145Z" fill="#E0E0E0"/>
<path d="M429.841 300.125H235.145C232.31 300.125 230.004 297.819 230.004 294.985V277.408C230.004 274.573 232.31 272.266 235.145 272.266H429.841C432.675 272.266 434.981 274.572 434.981 277.408V294.983C434.981 297.819 432.675 300.125 429.841 300.125ZM235.145 273.647C233.072 273.647 231.384 275.335 231.384 277.409V294.985C231.384 297.057 233.072 298.745 235.145 298.745H429.841C431.914 298.745 433.601 297.057 433.601 294.985V277.408C433.601 275.333 431.914 273.646 429.841 273.646L235.145 273.647Z" fill="#E0E0E0"/>
<path d="M236.615 291.738C236.234 291.738 235.925 291.428 235.925 291.048V281.345C235.925 280.964 236.234 280.655 236.615 280.655C236.996 280.655 237.305 280.964 237.305 281.345V291.048C237.305 291.428 236.996 291.738 236.615 291.738Z" fill="#E0E0E0"/>
<path d="M515.524 262.875H388.008C385.173 262.875 382.867 260.569 382.867 257.734V240.159C382.867 237.324 385.173 235.018 388.008 235.018H515.524C518.358 235.018 520.664 237.324 520.664 240.159V257.734C520.664 260.569 518.358 262.875 515.524 262.875ZM388.008 236.398C385.933 236.398 384.247 238.086 384.247 240.159V257.734C384.247 259.807 385.935 261.495 388.008 261.495H515.524C517.596 261.495 519.284 259.807 519.284 257.734V240.159C519.284 238.086 517.596 236.398 515.524 236.398H388.008Z" fill="#E0E0E0"/>
<path opacity="0.2" d="M318.102 210.792H236.368C233.248 210.792 230.695 208.239 230.695 205.119C230.695 201.999 233.248 199.446 236.368 199.446H318.102C321.223 199.446 323.777 201.999 323.777 205.119C323.777 208.239 321.224 210.792 318.102 210.792Z" fill="#407BFF"/>
<path opacity="0.2" d="M340.592 320.197H252.032C250.789 320.197 249.77 319.18 249.77 317.935C249.77 316.692 250.787 315.674 252.032 315.674H340.592C341.836 315.674 342.854 316.691 342.854 317.935C342.854 319.18 341.836 320.197 340.592 320.197Z" fill="#407BFF"/>
<path d="M235.258 322.5C237.779 322.5 239.822 320.457 239.822 317.937C239.822 315.416 237.779 313.373 235.258 313.373C232.738 313.373 230.695 315.416 230.695 317.937C230.695 320.457 232.738 322.5 235.258 322.5Z" fill="#407BFF"/>
<path d="M389.477 254.489C389.096 254.489 388.787 254.179 388.787 253.799V244.096C388.787 243.715 389.096 243.406 389.477 243.406C389.858 243.406 390.167 243.715 390.167 244.096V253.799C390.167 254.179 389.858 254.489 389.477 254.489Z" fill="#E0E0E0"/>
<path d="M236.615 254.489C236.234 254.489 235.925 254.179 235.925 253.799V244.096C235.925 243.715 236.234 243.406 236.615 243.406C236.996 243.406 237.305 243.715 237.305 244.096V253.799C237.305 254.179 236.996 254.489 236.615 254.489Z" fill="#E0E0E0"/>
<g opacity="0.6">
<path d="M242.111 253.059V244.583H247.829V245.583H243.232V248.208H247.21V249.209H243.232V253.06L242.111 253.059Z" fill="#263238"/>
<path d="M249.158 245.781V244.584H250.2V245.781H249.158ZM249.158 253.059V246.919H250.2V253.059H249.158Z" fill="#263238"/>
<path d="M251.771 253.059V246.919H252.708V247.849C252.947 247.415 253.168 247.128 253.371 246.988C253.572 246.85 253.796 246.78 254.037 246.78C254.389 246.78 254.745 246.892 255.107 247.115L254.748 248.081C254.493 247.931 254.24 247.856 253.985 247.856C253.757 247.856 253.551 247.924 253.372 248.061C253.191 248.197 253.062 248.388 252.986 248.63C252.87 249 252.812 249.405 252.812 249.845V253.06L251.771 253.059Z" fill="#263238"/>
<path d="M255.31 251.226L256.339 251.065C256.397 251.477 256.557 251.793 256.822 252.013C257.086 252.232 257.455 252.343 257.93 252.343C258.408 252.343 258.764 252.246 258.994 252.051C259.226 251.857 259.342 251.628 259.342 251.366C259.342 251.131 259.24 250.946 259.034 250.811C258.891 250.718 258.537 250.601 257.97 250.459C257.206 250.266 256.677 250.1 256.383 249.959C256.088 249.819 255.864 249.624 255.713 249.376C255.561 249.127 255.485 248.853 255.485 248.552C255.485 248.279 255.547 248.025 255.673 247.791C255.798 247.558 255.969 247.365 256.184 247.21C256.346 247.09 256.567 246.99 256.847 246.907C257.127 246.824 257.426 246.783 257.745 246.783C258.228 246.783 258.651 246.852 259.015 246.991C259.379 247.13 259.648 247.317 259.822 247.554C259.995 247.791 260.115 248.109 260.181 248.505L259.164 248.644C259.117 248.328 258.983 248.081 258.761 247.903C258.54 247.725 258.227 247.638 257.821 247.638C257.344 247.638 257.001 247.717 256.799 247.874C256.593 248.033 256.491 248.218 256.491 248.429C256.491 248.564 256.534 248.686 256.619 248.793C256.705 248.905 256.836 248.997 257.018 249.071C257.121 249.109 257.428 249.198 257.937 249.336C258.673 249.533 259.186 249.693 259.477 249.819C259.768 249.944 259.997 250.126 260.163 250.365C260.329 250.604 260.411 250.901 260.411 251.255C260.411 251.602 260.311 251.929 260.108 252.235C259.906 252.541 259.614 252.779 259.232 252.947C258.851 253.115 258.419 253.198 257.937 253.198C257.139 253.198 256.531 253.033 256.113 252.701C255.692 252.369 255.425 251.878 255.31 251.226Z" fill="#263238"/>
<path d="M263.918 252.129L264.068 253.048C263.775 253.109 263.514 253.14 263.282 253.14C262.905 253.14 262.613 253.08 262.403 252.961C262.196 252.842 262.048 252.685 261.964 252.49C261.88 252.296 261.837 251.886 261.837 251.262V247.729H261.073V246.919H261.837V245.398L262.872 244.773V246.919H263.918V247.729H262.872V251.32C262.872 251.617 262.89 251.809 262.926 251.893C262.963 251.977 263.022 252.045 263.105 252.094C263.189 252.144 263.307 252.17 263.461 252.17C263.577 252.169 263.73 252.156 263.918 252.129Z" fill="#263238"/>
<path d="M268.225 253.059V246.919H269.162V247.791C269.613 247.117 270.265 246.78 271.116 246.78C271.487 246.78 271.827 246.846 272.136 246.98C272.448 247.112 272.68 247.288 272.833 247.503C272.987 247.72 273.095 247.975 273.157 248.272C273.194 248.465 273.215 248.802 273.215 249.283V253.059H272.173V249.323C272.173 248.9 272.133 248.582 272.052 248.372C271.972 248.163 271.828 247.994 271.623 247.869C271.417 247.743 271.174 247.681 270.897 247.681C270.454 247.681 270.07 247.822 269.75 248.103C269.428 248.385 269.266 248.918 269.266 249.704V253.058H268.225V253.059Z" fill="#263238"/>
<path d="M278.818 252.303C278.433 252.63 278.062 252.862 277.704 252.997C277.348 253.132 276.966 253.198 276.558 253.198C275.883 253.198 275.365 253.033 275.002 252.704C274.639 252.374 274.457 251.953 274.457 251.44C274.457 251.139 274.526 250.866 274.663 250.616C274.8 250.368 274.979 250.168 275.201 250.017C275.422 249.867 275.672 249.754 275.949 249.675C276.153 249.621 276.462 249.569 276.875 249.519C277.714 249.418 278.334 249.3 278.731 249.16C278.735 249.017 278.737 248.927 278.737 248.888C278.737 248.463 278.639 248.165 278.441 247.991C278.176 247.757 277.78 247.638 277.257 247.638C276.769 247.638 276.407 247.725 276.174 247.896C275.939 248.067 275.767 248.371 275.656 248.807L274.638 248.668C274.731 248.233 274.884 247.881 275.095 247.613C275.307 247.346 275.614 247.139 276.015 246.994C276.415 246.85 276.881 246.777 277.408 246.777C277.932 246.777 278.357 246.838 278.687 246.962C279.014 247.085 279.254 247.241 279.409 247.427C279.562 247.615 279.67 247.851 279.732 248.135C279.766 248.312 279.784 248.632 279.784 249.094V250.482C279.784 251.45 279.806 252.061 279.85 252.318C279.894 252.574 279.983 252.82 280.114 253.055H279.028C278.919 252.844 278.85 252.591 278.818 252.303ZM278.733 249.979C278.356 250.133 277.787 250.263 277.032 250.372C276.605 250.434 276.302 250.503 276.124 250.58C275.946 250.658 275.81 250.771 275.713 250.918C275.618 251.066 275.57 251.232 275.57 251.413C275.57 251.69 275.674 251.922 275.886 252.107C276.095 252.292 276.403 252.384 276.807 252.384C277.209 252.384 277.565 252.297 277.877 252.122C278.19 251.947 278.419 251.706 278.566 251.401C278.676 251.167 278.733 250.82 278.733 250.361V249.979Z" fill="#263238"/>
<path d="M281.396 253.059V246.919H282.327V247.78C282.52 247.48 282.776 247.238 283.096 247.055C283.416 246.872 283.78 246.78 284.189 246.78C284.644 246.78 285.018 246.874 285.308 247.063C285.599 247.252 285.805 247.515 285.924 247.855C286.411 247.137 287.043 246.78 287.821 246.78C288.428 246.78 288.897 246.948 289.226 247.286C289.553 247.623 289.719 248.143 289.719 248.844V253.059H288.684V249.191C288.684 248.774 288.649 248.475 288.583 248.291C288.515 248.109 288.392 247.961 288.214 247.849C288.038 247.738 287.829 247.681 287.591 247.681C287.159 247.681 286.801 247.825 286.516 248.112C286.23 248.399 286.088 248.858 286.088 249.49V253.058H285.046V249.068C285.046 248.606 284.96 248.258 284.792 248.027C284.622 247.797 284.345 247.681 283.958 247.681C283.664 247.681 283.394 247.758 283.146 247.913C282.896 248.067 282.716 248.292 282.605 248.589C282.493 248.886 282.436 249.314 282.436 249.872V253.059H281.396Z" fill="#263238"/>
<path d="M295.463 251.083L296.538 251.215C296.369 251.843 296.054 252.332 295.596 252.678C295.136 253.024 294.551 253.198 293.839 253.198C292.941 253.198 292.229 252.922 291.702 252.369C291.176 251.816 290.914 251.04 290.914 250.041C290.914 249.007 291.179 248.205 291.711 247.636C292.244 247.064 292.932 246.78 293.781 246.78C294.602 246.78 295.273 247.06 295.793 247.618C296.314 248.176 296.573 248.963 296.573 249.977C296.573 250.038 296.57 250.132 296.567 250.255H291.989C292.026 250.93 292.218 251.446 292.56 251.804C292.904 252.163 293.331 252.343 293.845 252.343C294.226 252.343 294.553 252.242 294.822 252.042C295.091 251.842 295.305 251.522 295.463 251.083ZM292.047 249.401H295.474C295.428 248.884 295.296 248.497 295.081 248.239C294.75 247.838 294.319 247.637 293.792 247.637C293.315 247.637 292.912 247.797 292.588 248.117C292.26 248.436 292.08 248.864 292.047 249.401Z" fill="#263238"/>
</g>
<g opacity="0.6">
<path d="M242.075 290.309V281.833H248.204V282.834H243.196V285.43H247.885V286.425H243.196V289.31H248.4V290.311L242.075 290.309Z" fill="#263238"/>
<path d="M249.817 290.309V284.17H250.749V285.031C250.942 284.73 251.197 284.488 251.517 284.305C251.837 284.123 252.202 284.03 252.61 284.03C253.066 284.03 253.44 284.124 253.729 284.313C254.021 284.502 254.226 284.766 254.345 285.105C254.832 284.388 255.464 284.03 256.242 284.03C256.85 284.03 257.319 284.199 257.647 284.537C257.974 284.873 258.14 285.394 258.14 286.095V290.309H257.105V286.441C257.105 286.024 257.072 285.725 257.004 285.541C256.937 285.359 256.814 285.211 256.636 285.1C256.459 284.988 256.251 284.931 256.012 284.931C255.58 284.931 255.223 285.075 254.937 285.362C254.651 285.65 254.509 286.11 254.509 286.742V290.309H253.467V286.32C253.467 285.857 253.383 285.51 253.213 285.279C253.044 285.049 252.766 284.933 252.38 284.933C252.086 284.933 251.815 285.01 251.567 285.163C251.317 285.318 251.138 285.543 251.026 285.839C250.914 286.136 250.858 286.564 250.858 287.123V290.309H249.817Z" fill="#263238"/>
<path d="M263.686 289.552C263.301 289.879 262.93 290.11 262.573 290.246C262.217 290.381 261.834 290.447 261.426 290.447C260.751 290.447 260.233 290.282 259.871 289.953C259.508 289.623 259.325 289.202 259.325 288.69C259.325 288.39 259.394 288.115 259.531 287.867C259.668 287.618 259.847 287.418 260.069 287.268C260.29 287.117 260.54 287.004 260.817 286.927C261.021 286.873 261.331 286.821 261.743 286.771C262.582 286.67 263.202 286.551 263.599 286.412C263.603 286.269 263.605 286.179 263.605 286.14C263.605 285.715 263.507 285.417 263.309 285.245C263.045 285.01 262.648 284.891 262.125 284.891C261.637 284.891 261.275 284.978 261.042 285.148C260.808 285.32 260.635 285.623 260.525 286.059L259.506 285.919C259.599 285.483 259.752 285.133 259.963 284.865C260.176 284.597 260.482 284.39 260.883 284.245C261.284 284.101 261.749 284.029 262.276 284.029C262.8 284.029 263.227 284.09 263.555 284.214C263.882 284.337 264.122 284.493 264.277 284.679C264.43 284.866 264.538 285.102 264.6 285.387C264.634 285.563 264.652 285.884 264.652 286.346V287.734C264.652 288.702 264.674 289.314 264.718 289.57C264.763 289.826 264.851 290.072 264.981 290.306H263.895C263.787 290.093 263.718 289.84 263.686 289.552ZM263.601 287.228C263.224 287.382 262.657 287.513 261.902 287.621C261.473 287.683 261.172 287.752 260.994 287.829C260.816 287.907 260.679 288.02 260.583 288.167C260.487 288.315 260.439 288.481 260.439 288.661C260.439 288.939 260.544 289.171 260.755 289.354C260.965 289.539 261.273 289.632 261.677 289.632C262.079 289.632 262.435 289.543 262.746 289.369C263.06 289.193 263.289 288.954 263.435 288.649C263.545 288.414 263.602 288.068 263.602 287.609V287.228H263.601Z" fill="#263238"/>
<path d="M266.271 283.03V281.833H267.313V283.03H266.271ZM266.271 290.309V284.17H267.313V290.309H266.271Z" fill="#263238"/>
<path d="M268.874 290.309V281.833H269.914V290.309H268.874Z" fill="#263238"/>
</g>
<g opacity="0.6">
<path d="M394.869 253.059V244.583H395.991V252.058H400.164V253.059H394.869Z" fill="#263238"/>
<path d="M405.374 252.303C404.988 252.63 404.617 252.862 404.26 252.997C403.904 253.132 403.522 253.198 403.113 253.198C402.438 253.198 401.921 253.033 401.558 252.704C401.195 252.374 401.013 251.953 401.013 251.44C401.013 251.139 401.082 250.866 401.22 250.616C401.356 250.368 401.534 250.168 401.758 250.017C401.979 249.867 402.228 249.754 402.506 249.675C402.71 249.621 403.019 249.569 403.432 249.519C404.271 249.418 404.891 249.3 405.288 249.16C405.292 249.017 405.293 248.927 405.293 248.888C405.293 248.463 405.195 248.165 404.998 247.991C404.733 247.757 404.337 247.638 403.814 247.638C403.326 247.638 402.964 247.725 402.731 247.896C402.496 248.067 402.324 248.371 402.213 248.807L401.195 248.668C401.287 248.233 401.441 247.881 401.652 247.613C401.864 247.346 402.171 247.139 402.572 246.994C402.972 246.85 403.437 246.777 403.965 246.777C404.489 246.777 404.914 246.838 405.244 246.962C405.571 247.085 405.811 247.241 405.966 247.427C406.119 247.615 406.226 247.851 406.288 248.135C406.323 248.312 406.341 248.632 406.341 249.094V250.482C406.341 251.45 406.363 252.061 406.407 252.318C406.451 252.574 406.54 252.82 406.669 253.055H405.583C405.474 252.844 405.405 252.591 405.374 252.303ZM405.288 249.979C404.911 250.133 404.343 250.263 403.589 250.372C403.16 250.434 402.859 250.503 402.681 250.58C402.503 250.658 402.366 250.771 402.27 250.918C402.175 251.066 402.125 251.232 402.125 251.413C402.125 251.69 402.23 251.922 402.441 252.107C402.651 252.292 402.958 252.384 403.363 252.384C403.764 252.384 404.12 252.297 404.432 252.122C404.746 251.947 404.975 251.706 405.121 251.401C405.231 251.167 405.288 250.82 405.288 250.361V249.979Z" fill="#263238"/>
<path d="M407.535 251.226L408.564 251.065C408.622 251.477 408.782 251.793 409.047 252.013C409.311 252.232 409.68 252.343 410.155 252.343C410.633 252.343 410.989 252.246 411.219 252.051C411.451 251.857 411.567 251.628 411.567 251.366C411.567 251.131 411.465 250.946 411.259 250.811C411.117 250.718 410.762 250.601 410.195 250.459C409.431 250.266 408.902 250.1 408.608 249.959C408.313 249.819 408.089 249.624 407.937 249.376C407.786 249.127 407.71 248.853 407.71 248.552C407.71 248.279 407.772 248.025 407.897 247.791C408.023 247.558 408.194 247.365 408.409 247.21C408.571 247.09 408.792 246.99 409.07 246.907C409.351 246.824 409.65 246.783 409.969 246.783C410.452 246.783 410.874 246.852 411.238 246.991C411.603 247.13 411.872 247.317 412.046 247.554C412.218 247.791 412.338 248.109 412.405 248.505L411.387 248.644C411.341 248.328 411.207 248.081 410.985 247.903C410.764 247.725 410.45 247.638 410.045 247.638C409.567 247.638 409.225 247.717 409.022 247.874C408.818 248.033 408.714 248.218 408.714 248.429C408.714 248.564 408.757 248.686 408.843 248.793C408.928 248.905 409.059 248.997 409.242 249.071C409.345 249.109 409.651 249.198 410.161 249.336C410.896 249.533 411.41 249.693 411.701 249.819C411.992 249.944 412.221 250.126 412.387 250.365C412.552 250.604 412.635 250.901 412.635 251.255C412.635 251.602 412.534 251.929 412.331 252.235C412.129 252.541 411.837 252.779 411.455 252.947C411.074 253.115 410.642 253.198 410.159 253.198C409.362 253.198 408.753 253.033 408.335 252.701C407.918 252.369 407.652 251.878 407.535 251.226Z" fill="#263238"/>
<path d="M416.144 252.129L416.295 253.048C416.001 253.109 415.74 253.14 415.508 253.14C415.131 253.14 414.839 253.08 414.629 252.961C414.422 252.842 414.274 252.685 414.19 252.49C414.106 252.296 414.063 251.886 414.063 251.262V247.729H413.299V246.919H414.063V245.398L415.098 244.773V246.919H416.144V247.729H415.098V251.32C415.098 251.617 415.116 251.809 415.152 251.893C415.189 251.977 415.249 252.045 415.332 252.094C415.416 252.144 415.533 252.17 415.688 252.17C415.804 252.169 415.955 252.156 416.144 252.129Z" fill="#263238"/>
<path d="M420.451 253.059V246.919H421.388V247.791C421.84 247.117 422.491 246.78 423.342 246.78C423.714 246.78 424.053 246.846 424.362 246.98C424.674 247.112 424.905 247.288 425.059 247.503C425.214 247.72 425.321 247.975 425.383 248.272C425.421 248.465 425.441 248.802 425.441 249.283V253.059H424.4V249.323C424.4 248.9 424.359 248.582 424.278 248.372C424.197 248.163 424.054 247.994 423.849 247.869C423.643 247.743 423.4 247.681 423.123 247.681C422.68 247.681 422.296 247.822 421.976 248.103C421.655 248.385 421.492 248.918 421.492 249.704V253.058H420.451V253.059Z" fill="#263238"/>
<path d="M431.044 252.303C430.659 252.63 430.288 252.862 429.931 252.997C429.575 253.132 429.192 253.198 428.784 253.198C428.109 253.198 427.591 253.033 427.229 252.704C426.866 252.374 426.683 251.953 426.683 251.44C426.683 251.139 426.752 250.866 426.889 250.616C427.026 250.368 427.204 250.168 427.427 250.017C427.648 249.867 427.898 249.754 428.175 249.675C428.379 249.621 428.689 249.569 429.101 249.519C429.94 249.418 430.56 249.3 430.957 249.16C430.961 249.017 430.963 248.927 430.963 248.888C430.963 248.463 430.865 248.165 430.668 247.991C430.403 247.757 430.008 247.638 429.483 247.638C428.995 247.638 428.633 247.725 428.4 247.896C428.166 248.067 427.993 248.371 427.883 248.807L426.864 248.668C426.957 248.233 427.11 247.881 427.321 247.613C427.534 247.346 427.84 247.139 428.241 246.994C428.642 246.85 429.107 246.777 429.634 246.777C430.158 246.777 430.585 246.838 430.913 246.962C431.24 247.085 431.48 247.241 431.635 247.427C431.788 247.615 431.896 247.851 431.958 248.135C431.992 248.312 432.01 248.632 432.01 249.094V250.482C432.01 251.45 432.032 252.061 432.076 252.318C432.121 252.574 432.209 252.82 432.34 253.055H431.254C431.145 252.844 431.075 252.591 431.044 252.303ZM430.957 249.979C430.581 250.133 430.012 250.263 429.257 250.372C428.828 250.434 428.527 250.503 428.349 250.58C428.171 250.658 428.034 250.771 427.938 250.918C427.843 251.066 427.793 251.232 427.793 251.413C427.793 251.69 427.898 251.922 428.109 252.107C428.319 252.292 428.626 252.384 429.031 252.384C429.432 252.384 429.788 252.297 430.1 252.122C430.414 251.947 430.643 251.706 430.789 251.401C430.899 251.167 430.956 250.82 430.956 250.361V249.979H430.957Z" fill="#263238"/>
<path d="M433.622 253.059V246.919H434.554V247.78C434.747 247.48 435.002 247.238 435.322 247.055C435.642 246.872 436.007 246.78 436.415 246.78C436.871 246.78 437.245 246.874 437.533 247.063C437.824 247.252 438.03 247.515 438.148 247.855C438.636 247.137 439.268 246.78 440.046 246.78C440.653 246.78 441.122 246.948 441.451 247.286C441.778 247.623 441.942 248.143 441.942 248.844V253.059H440.907V249.191C440.907 248.774 440.874 248.475 440.806 248.291C440.739 248.109 440.616 247.961 440.438 247.849C440.261 247.738 440.053 247.681 439.814 247.681C439.382 247.681 439.025 247.825 438.739 248.112C438.453 248.399 438.311 248.858 438.311 249.49V253.058H437.269V249.068C437.269 248.606 437.185 248.258 437.016 248.027C436.846 247.797 436.568 247.681 436.182 247.681C435.888 247.681 435.618 247.758 435.369 247.913C435.119 248.067 434.941 248.292 434.828 248.589C434.716 248.886 434.66 249.314 434.66 249.872V253.059H433.622Z" fill="#263238"/>
<path d="M447.688 251.083L448.763 251.215C448.594 251.843 448.279 252.332 447.821 252.678C447.361 253.024 446.776 253.198 446.064 253.198C445.166 253.198 444.454 252.922 443.927 252.369C443.401 251.816 443.139 251.04 443.139 250.041C443.139 249.007 443.404 248.205 443.936 247.636C444.469 247.064 445.157 246.78 446.006 246.78C446.827 246.78 447.498 247.06 448.018 247.618C448.539 248.176 448.798 248.963 448.798 249.977C448.798 250.038 448.795 250.132 448.792 250.255H444.214C444.251 250.93 444.443 251.446 444.785 251.804C445.129 252.163 445.556 252.343 446.07 252.343C446.451 252.343 446.778 252.242 447.047 252.042C447.317 251.842 447.531 251.522 447.688 251.083ZM444.273 249.401H447.701C447.654 248.884 447.523 248.497 447.308 248.239C446.976 247.838 446.546 247.637 446.017 247.637C445.54 247.637 445.137 247.797 444.813 248.117C444.487 248.436 444.306 248.864 444.273 249.401Z" fill="#263238"/>
</g>
<path d="M412.67 336.603H459.868C464.012 336.603 467.403 339.993 467.403 344.137V352.667C467.403 356.811 464.012 360.202 459.868 360.202H412.67C408.525 360.202 405.135 356.811 405.135 352.667V344.137C405.135 339.993 408.525 336.603 412.67 336.603Z" fill="#407BFF"/>
<path opacity="0.2" d="M488.018 336.603H535.216C539.361 336.603 542.751 339.993 542.751 344.137V352.667C542.751 356.811 539.361 360.202 535.216 360.202H488.018C483.873 360.202 480.483 356.811 480.483 352.667V344.137C480.483 339.993 483.873 336.603 488.018 336.603Z" fill="#407BFF"/>
<path d="M188.791 120.303C178.598 118.772 176.285 128.035 165.564 127.671C167.251 133.289 172.844 135.669 172.844 135.669C172.844 135.669 164.329 141.857 166.228 151.098C172.9 143.548 181.861 150.714 191.606 150.414C211.856 149.792 219.166 140.411 212.154 132.364C218.672 124.121 200.863 119.701 201.266 113.557C199.228 114.507 199.304 118.427 199.304 118.427C199.304 118.427 191.953 119.051 185.613 113.902C185.352 117.688 188.791 120.303 188.791 120.303Z" fill="#263238"/>
<path d="M208.325 131.986C212.87 132.85 215.814 129.443 215.842 126.625C219.075 133.439 214.089 137.149 208.325 131.986Z" fill="#263238"/>
<path d="M217.895 547.569L208.292 553.101L194.151 531.765L203.754 526.233L217.895 547.569Z" fill="#FF8B7B"/>
<path d="M207.144 552.288L217.932 546.073C218.326 545.847 218.78 545.947 219.025 546.313L224.497 554.477C225.064 555.324 224.719 556.634 223.806 557.139C220.012 559.24 218.09 560.054 213.345 562.786C210.427 564.467 199.885 570.107 192.099 569.514C187.563 569.167 187.461 565.026 189.42 564.572C198.209 562.538 204.355 557.499 205.831 553.826C206.099 553.165 206.57 552.62 207.144 552.288Z" fill="#263238"/>
<path opacity="0.2" d="M203.76 526.238L194.154 531.772L201.447 542.768L211.054 537.233L203.76 526.238Z" fill="black"/>
<path d="M150.41 278.673C150.41 278.673 127.167 370.079 124.742 401.66C122.087 436.244 195.587 541.564 195.587 541.564L213.57 532.16C213.57 532.16 179.539 472.086 156.832 404.158C167.858 368.617 189.811 281.68 189.811 281.68L150.41 278.673Z" fill="#407BFF"/>
<g opacity="0.3">
<path d="M150.41 278.673C150.41 278.673 127.167 370.079 124.742 401.66C122.087 436.244 195.587 541.564 195.587 541.564L213.57 532.16C213.57 532.16 179.539 472.086 156.832 404.158C167.858 368.617 189.811 281.68 189.811 281.68L150.41 278.673Z" fill="white"/>
</g>
<path opacity="0.4" d="M171.003 314.605C161.886 330.573 158.808 368.751 161.149 389.602C167.526 367.396 175.566 336.927 181.517 314.031C177.505 310.943 173.578 310.09 171.003 314.605Z" fill="#407BFF"/>
<path d="M214.197 532.103L194.947 542.188L189.383 535.731L212.194 525.579L214.197 532.103Z" fill="#407BFF"/>
<path d="M204.711 555.908C205.598 555.398 206.473 554.651 207.07 554.094C207.145 554.025 207.171 553.918 207.138 553.823C207.104 553.726 207.017 553.66 206.916 553.652C206.485 553.617 202.689 553.34 201.784 554.473C201.573 554.735 201.52 555.055 201.631 555.402C201.811 555.972 202.143 556.322 202.614 556.445C203.215 556.6 203.967 556.337 204.711 555.908ZM206.267 554.127C204.748 555.456 203.452 556.132 202.746 555.948C202.453 555.872 202.249 555.643 202.123 555.247C202.065 555.064 202.086 554.92 202.188 554.793C202.675 554.183 204.741 554.065 206.267 554.127Z" fill="#407BFF"/>
<path d="M207.022 554.129C207.056 554.11 207.087 554.081 207.11 554.045C207.159 553.971 207.164 553.877 207.125 553.797C207.068 553.675 205.682 550.812 204.171 550.443C203.764 550.344 203.384 550.426 203.041 550.681C202.629 550.989 202.48 551.393 202.623 551.821C203.009 552.987 205.603 554.15 206.889 554.164C206.938 554.164 206.983 554.151 207.022 554.129ZM203.453 551.024C203.64 550.917 203.834 550.891 204.048 550.943C204.949 551.161 205.946 552.686 206.448 553.605C205.205 553.387 203.368 552.425 203.115 551.661C203.067 551.516 203.05 551.318 203.354 551.092C203.386 551.066 203.42 551.044 203.453 551.024Z" fill="#407BFF"/>
<path d="M166.848 200.246L156.859 217.423C155.227 220.28 153.613 223.128 152.104 225.931C151.356 227.327 150.666 228.731 150.014 230.051C149.38 231.34 148.807 232.719 148.561 233.404L148.026 228.298C148.161 228.927 148.241 229.574 148.362 230.176C148.5 230.746 148.567 231.389 148.707 231.917C148.812 232.486 148.937 233.039 149.059 233.58L149.239 234.382C149.268 234.527 149.286 234.648 149.298 234.778C149.29 234.833 149.315 234.92 149.282 234.97C149.224 235.026 149.342 235.105 148.996 235.109C151.421 235.483 153.085 237.752 152.711 240.178C152.337 242.603 150.068 244.267 147.642 243.893C147.064 243.854 146.953 243.872 146.671 243.86L145.982 243.828C145.556 243.787 145.135 243.734 144.743 243.664C143.945 243.509 143.205 243.301 142.485 243.032C141.055 242.495 139.795 241.748 138.642 240.915C137.499 240.057 136.5 239.132 135.61 238.122C135.177 237.621 134.776 237.112 134.36 236.593C133.976 236.083 133.641 235.543 133.283 235.008C132.477 233.808 132.239 232.392 132.505 231.078L132.746 229.902C133.285 227.286 133.93 225.491 134.585 223.65C135.235 221.843 135.962 220.167 136.677 218.508C138.115 215.208 139.645 212.051 141.24 208.95C142.815 205.841 144.486 202.809 146.182 199.802C147.9 196.791 149.628 193.862 151.538 190.894L151.543 190.886C154.223 186.718 159.775 185.512 163.943 188.192C167.993 190.793 169.236 196.124 166.848 200.246Z" fill="#FF8B7B"/>
<path d="M161.25 183.597C172.488 182.751 178.003 190.695 172.653 203.772C169.712 210.988 165.089 219.551 161.703 225.524C160.813 227.108 159.993 228.517 159.326 229.653L136.808 212.11C141.182 201.748 153.733 184.164 161.25 183.597Z" fill="#263238"/>
<path opacity="0.3" d="M158.797 196.391C166.25 191.565 155.89 214.228 151.616 223.648L145.001 218.491C146.784 211.779 153.074 200.097 158.797 196.391Z" fill="black"/>
<path d="M190.288 563.229L179.263 562.387L179.578 536.73L190.603 537.572L190.288 563.229Z" fill="#FF8B7B"/>
<path d="M178.772 561.067L191.159 562.012C191.61 562.046 191.928 562.386 191.925 562.828L191.854 572.679C191.848 573.702 190.828 574.591 189.79 574.494C185.483 574.091 183.441 573.68 177.994 573.264C174.643 573.009 160.371 572.269 155.744 571.916C151.218 571.571 151.561 566.995 153.551 566.73C162.473 565.542 173.547 563.81 176.828 561.601C177.418 561.202 178.112 561.016 178.772 561.067Z" fill="#263238"/>
<path opacity="0.2" d="M190.606 537.58L179.577 536.737L179.419 549.963L190.448 550.805L190.606 537.58Z" fill="black"/>
<path d="M171.937 280.317C171.937 280.317 165.165 363.981 164.793 395.701C164.384 430.439 174.907 546.423 174.907 546.423L195.1 547.965C195.1 547.965 193.59 435.476 197.149 401.323C201.012 364.257 209.376 283.175 209.376 283.175L171.937 280.317Z" fill="#407BFF"/>
<path opacity="0.3" d="M171.937 280.317C171.937 280.317 165.165 363.981 164.793 395.701C164.384 430.439 174.907 546.423 174.907 546.423L195.1 547.965C195.1 547.965 193.59 435.476 197.149 401.323C201.012 364.257 209.376 283.175 209.376 283.175L171.937 280.317Z" fill="white"/>
<path d="M195.914 548.027L174.094 546.361L173.408 538.602L197.409 541.638L195.914 548.027Z" fill="#407BFF"/>
<path d="M174.733 562.689C175.751 562.767 176.892 562.643 177.697 562.52C177.798 562.505 177.879 562.431 177.904 562.333C177.93 562.234 177.896 562.131 177.817 562.066C177.482 561.794 174.506 559.42 173.124 559.847C172.804 559.945 172.579 560.181 172.475 560.528C172.304 561.102 172.381 561.58 172.701 561.948C173.111 562.416 173.879 562.625 174.733 562.689ZM177.017 562.093C175.017 562.336 173.569 562.164 173.089 561.612C172.89 561.384 172.852 561.079 172.969 560.679C173.024 560.495 173.122 560.386 173.278 560.339C174.023 560.112 175.794 561.181 177.017 562.093Z" fill="#407BFF"/>
<path d="M177.639 562.521C177.679 562.524 177.721 562.518 177.759 562.502C177.841 562.467 177.899 562.393 177.911 562.306C177.93 562.172 178.395 559.019 177.356 557.861C177.076 557.549 176.717 557.401 176.292 557.419C175.78 557.441 175.43 557.692 175.307 558.126C174.97 559.31 176.456 561.737 177.511 562.476C177.549 562.503 177.594 562.518 177.639 562.521ZM176.438 557.935C176.652 557.952 176.829 558.04 176.975 558.203C177.596 558.893 177.562 560.717 177.46 561.762C176.557 560.879 175.582 559.045 175.802 558.269C175.844 558.122 175.942 557.949 176.318 557.933C176.36 557.931 176.4 557.933 176.438 557.935Z" fill="#407BFF"/>
<path d="M150.41 278.673L209.376 283.175C210.153 277.939 210.106 260.703 212.506 238.943C214.119 224.331 216.842 207.682 221.657 191.267C222.006 190.096 222.354 188.941 222.718 187.772C222.718 187.772 219.77 186.933 215.531 185.983C212.012 185.19 207.588 184.314 203.23 183.772C195.73 182.84 184.845 181.769 178.172 181.859C174.295 181.923 170.489 182.276 167.445 182.626C163.555 183.108 161.249 183.597 161.249 183.597C161.249 183.597 148.38 215.157 150.41 278.673Z" fill="#407BFF"/>
<path d="M153.024 233.873C153.024 233.873 155.309 230.577 157.396 229.578C158.884 228.866 160.018 228.151 160.689 227.692C161.154 227.373 161.78 227.703 161.815 228.269C161.866 229.135 161.408 230.521 159.131 232.415C158.765 235.13 154.534 237.815 154.534 237.815L153.024 233.873Z" fill="#FF8B7B"/>
<path opacity="0.3" d="M161.525 241.143L173.777 242.078L167.139 217.264L154.886 216.329L161.525 241.143Z" fill="black"/>
<path d="M160.687 241.079L172.94 242.015L166.302 217.201L154.049 216.265L160.687 241.079Z" fill="white"/>
<path opacity="0.3" d="M212.506 238.948C214.12 224.337 216.842 207.687 221.658 191.272C217.741 190.629 210.977 190.501 209.426 196.785C207.754 203.538 208.169 219.754 212.506 238.948Z" fill="black"/>
<path d="M226.864 196.393C227.482 198.317 227.973 199.988 228.446 201.788C228.932 203.556 229.348 205.336 229.755 207.12C230.539 210.697 231.255 214.296 231.753 217.975C232.265 221.656 232.665 225.372 232.792 229.206C232.931 233.046 232.832 236.974 232.277 241.098L232.218 241.543C231.986 243.269 231.183 244.783 230.031 245.916C229.083 246.848 228.168 247.469 227.323 247.963C226.514 248.411 225.722 248.775 225.034 249.025C223.621 249.556 222.391 249.841 221.232 250.046C218.927 250.447 216.889 250.56 214.899 250.611C210.947 250.695 207.255 250.36 203.611 249.959C199.974 249.515 196.413 248.935 192.888 248.223C189.352 247.497 185.907 246.707 182.386 245.669C180.01 244.968 178.651 242.473 179.353 240.097C179.924 238.162 181.684 236.902 183.601 236.878H183.686L193.975 236.764C197.398 236.711 200.798 236.642 204.135 236.471C207.462 236.333 210.76 236.055 213.77 235.629C215.258 235.41 216.696 235.123 217.798 234.766C218.339 234.588 218.796 234.396 218.998 234.267C219.123 234.203 219.107 234.163 219.056 234.182C218.951 234.216 218.744 234.317 218.413 234.632L216.164 239.449C216.254 236.618 216.033 233.547 215.716 230.424C215.359 227.292 214.809 224.086 214.221 220.873C213.595 217.66 212.895 214.42 212.122 211.194C211.754 209.576 211.333 207.966 210.934 206.358L209.713 201.665L209.643 201.396C208.395 196.602 211.271 191.705 216.064 190.458C220.688 189.256 225.412 191.908 226.864 196.393Z" fill="#FF8B7B"/>
<path d="M222.72 187.772C211.929 184.39 205.477 191.293 207.273 205.359C208.255 213.118 211.004 222.442 213.045 229.036L236.825 221.72C234.749 210.621 229.937 190.037 222.72 187.772Z" fill="#263238"/>
<path d="M179.368 181.861C186.773 180.692 188.36 176.28 188.208 171.287C188.186 170.074 188.064 168.807 187.881 167.551L197.532 160.66L204.619 155.606C202.207 163.545 199.104 178.101 204.194 183.904C204.194 183.904 194.316 191.191 182.297 195.884C180.398 196.625 178.199 195.638 177.599 193.69C175.299 186.217 179.368 181.861 179.368 181.861Z" fill="#FF8B7B"/>
<path opacity="0.2" d="M187.88 167.551C188.064 168.807 188.186 170.073 188.207 171.287C191.66 170.862 197.014 168.219 197.772 164.413C198.031 163.116 197.557 161.575 197.529 160.66L187.88 167.551Z" fill="black"/>
<path d="M205.189 139.268C205.708 150.27 206.567 156.669 201.702 163.015C194.385 172.562 180.468 169.388 176.701 158.85C173.31 149.364 173.03 132.967 183.165 127.178C193.149 121.474 204.669 128.267 205.189 139.268Z" fill="#FF8B7B"/>
<path d="M200.586 132.593C197.477 138.214 199.842 142.33 199.842 142.33L200.417 139.685C200.417 139.685 204.338 143.848 203.226 148.625C210.05 144.97 210.823 130.756 200.586 132.593Z" fill="#263238"/>
<path d="M206.317 134.277C193.893 137.005 186.903 135.758 184.696 135.277C189.896 134.927 191.262 132.567 191.262 132.567C191.262 132.567 178.867 135.61 176.318 134.637C178.82 127.066 184.633 123.585 196.378 124.044C208.122 124.505 206.317 134.277 206.317 134.277Z" fill="#263238"/>
<path d="M210.479 149.515C209.219 152.235 207.017 154.219 204.94 155.159C201.815 156.571 200.267 153.72 201.148 150.348C201.94 147.314 204.52 142.922 207.65 142.938C210.733 142.953 211.918 146.404 210.479 149.515Z" fill="#FF8B7B"/>
<path d="M189.085 144.559C189.181 145.448 188.792 146.232 188.215 146.31C187.639 146.389 187.093 145.732 186.997 144.843C186.9 143.955 187.289 143.171 187.866 143.092C188.443 143.014 188.988 143.67 189.085 144.559Z" fill="#263238"/>
<path d="M179.113 145.918C179.21 146.807 178.82 147.591 178.244 147.67C177.667 147.748 177.122 147.091 177.025 146.203C176.928 145.314 177.318 144.53 177.894 144.452C178.471 144.374 179.016 145.03 179.113 145.918Z" fill="#263238"/>
<path d="M182.331 145.928C182.331 145.928 180.881 151.327 178.942 154.1C180.661 155.355 183.243 154.323 183.243 154.323L182.331 145.928Z" fill="#FF5652"/>
<path d="M187.106 156.224C190.498 155.342 191.83 152.727 191.889 152.606C191.952 152.478 191.9 152.319 191.77 152.254C191.641 152.188 191.485 152.242 191.42 152.37C191.405 152.399 189.894 155.378 186.013 155.904C185.868 155.923 185.77 156.056 185.792 156.199C185.813 156.343 185.945 156.444 186.089 156.423C186.446 156.376 186.786 156.308 187.106 156.224Z" fill="#263238"/>
<path d="M191.817 140.897C191.9 140.875 191.979 140.833 192.045 140.77C192.252 140.57 192.259 140.238 192.057 140.029C190.069 137.953 187.69 138.421 187.59 138.443C187.319 138.472 187.128 138.778 187.189 139.063C187.25 139.346 187.528 139.528 187.81 139.47C187.909 139.45 189.742 139.121 191.304 140.752C191.442 140.894 191.639 140.942 191.817 140.897Z" fill="#263238"/>
<path d="M174.451 143.051C174.613 143.008 174.751 142.889 174.81 142.721C175.597 140.477 177.469 139.954 177.487 139.95C177.766 139.875 177.93 139.588 177.855 139.31C177.779 139.031 177.493 138.864 177.214 138.937L177.211 138.938C177.112 138.965 174.788 139.613 173.822 142.368C173.727 142.64 173.87 142.94 174.144 143.038C174.247 143.073 174.353 143.076 174.451 143.051Z" fill="#263238"/>
<path d="M186.021 237.872L174.701 230.88L175.742 244.795C175.742 244.795 185.221 248.193 186.526 243.167L186.021 237.872Z" fill="#FF8B7B"/>
<path d="M178.295 233.099C178.295 233.099 175.947 229.811 173.843 228.818C172.343 228.11 170.917 226.839 170.238 226.382C169.766 226.065 169.147 226.397 169.123 226.963C169.087 227.83 169.848 229.774 172.161 231.661C172.577 234.374 176.858 237.047 176.858 237.047L178.295 233.099Z" fill="#FF8B7B"/>
<path d="M164.911 232.053L165.912 240.762C165.999 241.512 166.529 242.139 167.255 242.349L175.74 244.795L174.691 231.001L166.976 230.013C165.786 229.858 164.775 230.859 164.911 232.053Z" fill="#FF8B7B"/>
<path d="M147.609 236.078L157.417 231.117L157.174 243.378C157.174 243.378 146.996 246.413 146.389 241.242L147.609 236.078Z" fill="#FF8B7B"/>
<path d="M161.713 231.579L161.714 241.261C161.714 241.808 161.348 242.282 160.823 242.42L157.174 243.378L157.417 231.117L160.197 230.401C160.963 230.203 161.713 230.786 161.713 231.579Z" fill="#FF8B7B"/>
<path d="M459.762 401.452C469.023 410.673 467.682 420.032 461.084 426.659C454.488 433.284 445.133 434.667 435.872 425.446C426.61 416.225 420.951 399.894 427.547 393.268C434.145 386.641 450.501 392.23 459.762 401.452Z" fill="#407BFF"/>
<path d="M492.537 461.944C481.09 463.963 474.193 458.548 471.794 450.789C469.396 443.031 472.403 435.867 483.85 433.848C495.297 431.829 510.848 435.718 513.247 443.477C515.647 451.235 503.984 459.925 492.537 461.944Z" fill="#407BFF"/>
<path d="M432.114 480.058C440.364 482.785 446.049 479.521 448.659 474.04C451.268 468.558 449.815 462.936 441.565 460.209C433.316 457.482 421.394 458.686 418.783 464.166C416.173 469.647 423.864 477.331 432.114 480.058Z" fill="#407BFF"/>
<path d="M498.943 400.923C491.016 411.771 481.231 412.667 473.392 407.98C465.553 403.295 462.627 394.803 470.555 383.955C478.482 373.106 494.259 364.009 502.099 368.696C509.939 373.381 506.871 390.075 498.943 400.923Z" fill="#407BFF"/>
<path d="M452.764 543.175C452.036 543.175 451.426 542.604 451.387 541.867C447.142 460.093 478.12 396.568 478.434 395.936C478.773 395.253 479.6 394.971 480.283 395.313C480.966 395.651 481.245 396.479 480.907 397.163C480.596 397.788 449.937 460.703 454.143 541.724C454.183 542.486 453.598 543.133 452.836 543.175C452.813 543.175 452.788 543.175 452.764 543.175Z" fill="#263238"/>
<path d="M464.22 441.11C464.175 441.11 464.133 441.107 464.087 441.103C463.33 441.031 462.772 440.358 462.844 439.6C462.86 439.421 464.382 421.607 452.169 415.762C451.482 415.434 451.191 414.609 451.521 413.921C451.849 413.233 452.676 412.946 453.36 413.271C467.32 419.953 465.667 439.051 465.591 439.861C465.524 440.575 464.922 441.11 464.22 441.11Z" fill="#263238"/>
<path d="M454.217 493.593C453.507 493.593 452.903 493.046 452.843 492.327C452.829 492.156 451.249 475.203 436.377 470.487C435.651 470.257 435.248 469.483 435.478 468.756C435.709 468.027 436.486 467.625 437.21 467.857C453.871 473.138 455.578 491.915 455.592 492.102C455.652 492.863 455.088 493.527 454.329 493.589C454.293 493.591 454.255 493.593 454.217 493.593Z" fill="#263238"/>
<path d="M457.201 472.488C457.09 472.488 456.98 472.476 456.87 472.448C456.13 472.266 455.677 471.518 455.86 470.779C462.319 444.571 482.694 445.196 482.903 445.199C483.665 445.233 484.254 445.878 484.22 446.64C484.185 447.403 483.538 448 482.779 447.956C482.039 447.931 464.44 447.499 458.539 471.44C458.384 472.068 457.82 472.488 457.201 472.488Z" fill="#263238"/>
<path d="M510.118 531.158C510.118 548.097 502.37 563.253 490.188 573.325C489.318 574.046 488.299 574.403 487.274 574.403H421.79C420.765 574.403 419.746 574.046 418.875 573.325C406.694 563.253 398.946 548.097 398.946 531.158C398.946 525.787 399.72 520.594 401.178 515.696C401.183 515.681 401.188 515.665 401.192 515.649C402.017 512.872 404.085 511.095 406.335 511.095H502.728C504.979 511.095 507.048 512.872 507.872 515.649C507.876 515.665 507.881 515.681 507.885 515.696C509.344 520.594 510.118 525.787 510.118 531.158Z" fill="#407BFF"/>
<path d="M509.954 535.181C478.278 545.471 447.023 557.604 416.69 571.419C417.068 571.767 417.464 572.096 417.85 572.432C447.777 558.828 478.59 546.854 509.824 536.683C509.876 536.185 509.917 535.684 509.954 535.181Z" fill="white"/>
<path d="M490.106 511.095H487.713C462.209 529.132 437.406 548.593 413.237 567.929C413.547 568.269 413.855 568.61 414.174 568.942C438.805 549.237 464.101 529.405 490.106 511.095Z" fill="white"/>
<path d="M474.586 574.403C486.039 565.016 497.276 555.309 508.225 545.358C508.44 544.56 508.645 543.759 508.824 542.947C497 553.747 484.833 564.266 472.414 574.403H474.586Z" fill="white"/>
<path d="M474.655 511.095C448.617 519.634 424.194 533.129 401.421 547.37C401.564 547.823 401.704 548.277 401.857 548.725C425.846 533.708 451.662 519.508 479.23 511.095H474.655Z" fill="white"/>
<path d="M399.782 521.782C407.132 517.901 414.649 514.342 422.299 511.097H418.849C412.499 513.872 406.237 516.849 400.096 520.061C399.978 520.63 399.883 521.207 399.782 521.782Z" fill="white"/>
<path d="M434.065 511.095H432.031L399.82 540.876C399.917 541.407 400.029 541.933 400.14 542.46L434.065 511.095Z" fill="white"/>
</svg>
