<svg width="20" height="20" viewBox="0 0 20 20" fill="none" xmlns="http://www.w3.org/2000/svg">
<g clip-path="url(#clip0_268_9215)">
<path d="M6.66675 4.99984V4.1665C6.66675 2.78579 7.78604 1.6665 9.16675 1.6665H10.8334C12.2141 1.6665 13.3334 2.78579 13.3334 4.1665V4.99984M1.66675 8.62274C1.66675 8.62274 4.26512 10.3535 8.3148 10.7589M18.3334 8.62274C18.3334 8.62274 15.735 10.3535 11.6854 10.7589M5.00008 18.3332H15.0001C16.841 18.3332 18.3334 16.8408 18.3334 14.9998V8.33317C18.3334 6.49222 16.841 4.99984 15.0001 4.99984H5.00008C3.15913 4.99984 1.66675 6.49222 1.66675 8.33317V14.9998C1.66675 16.8408 3.15913 18.3332 5.00008 18.3332Z" stroke="#16151C" stroke-width="1.5" stroke-linecap="round"/>
<path d="M11.6666 10.1331V10.9665C11.6666 10.9748 11.6666 10.9748 11.6666 10.9831C11.6666 11.8915 11.6583 12.6331 9.99992 12.6331C8.34992 12.6331 8.33325 11.8998 8.33325 10.9915V10.1331C8.33325 9.2998 8.33325 9.2998 9.16659 9.2998H10.8333C11.6666 9.2998 11.6666 9.2998 11.6666 10.1331Z" stroke="#16151C" stroke-width="1.5" stroke-miterlimit="10" stroke-linecap="round" stroke-linejoin="round"/>
</g>
<defs>
<clipPath id="clip0_268_9215">
<rect width="20" height="20" fill="white"/>
</clipPath>
</defs>
</svg>
