<svg width="18" height="20" viewBox="0 0 18 20" fill="none" xmlns="http://www.w3.org/2000/svg">
<path fill-rule="evenodd" clip-rule="evenodd" d="M14.233 17.5292H14.1953V14.9692C14.7977 14.6304 15.2118 14.0281 15.2118 13.3128C15.2118 12.5975 14.7977 11.9575 14.1953 11.6563V9.021H14.233C14.3835 9.021 14.4965 9.17158 14.4965 9.32217V10.1128C14.6094 10.1504 14.6847 10.1881 14.76 10.2257L15.3247 9.661C15.4377 9.54805 15.6259 9.54805 15.7388 9.661L16.9435 10.9033C17.0565 10.9786 17.0565 11.1669 16.9435 11.2798L16.3788 11.8445C16.4165 11.9198 16.4541 11.9951 16.4918 12.1081H17.2824C17.433 12.1081 17.5835 12.221 17.5835 12.3716V14.141C17.5835 14.2916 17.433 14.4045 17.2824 14.4045H16.4918C16.4541 14.5175 16.4165 14.5928 16.3788 14.7057L16.9435 15.2704C16.9812 15.3081 17.0188 15.3833 17.0188 15.4586C17.0188 15.4963 16.9812 15.5716 16.9435 15.6469L15.7388 16.8516C15.6259 16.9645 15.4377 16.9645 15.3247 16.8516L14.76 16.2869C14.6847 16.3245 14.5718 16.3622 14.4965 16.3998V17.1904C14.5341 17.4163 14.3835 17.5292 14.233 17.5292ZM14.1953 12.3339C14.4588 12.5598 14.6471 12.9363 14.6471 13.3128C14.6471 13.7269 14.4588 14.0657 14.1953 14.2916V12.3339Z" fill="#1890FF"/>
<path fill-rule="evenodd" clip-rule="evenodd" d="M13.3671 19.6376H0.71768C0.567092 19.6376 0.416504 19.5246 0.416504 19.374V2.54581C0.416504 2.39522 0.567092 2.24463 0.71768 2.24463H2.63768V2.58345V3.56228C2.63768 4.01404 2.9765 4.35286 3.42827 4.35286H10.6189C11.0706 4.35286 11.4094 3.97639 11.4094 3.52463V2.58345C11.4094 2.47051 11.4094 2.35757 11.3718 2.24463H13.3671C13.5177 2.24463 13.6683 2.39522 13.6683 2.54581V19.374C13.6306 19.5246 13.5177 19.6376 13.3671 19.6376ZM11.3718 5.25639H2.3365C2.14827 5.25639 2.03533 5.10581 2.03533 4.95522C2.03533 4.80463 2.14827 4.69169 2.3365 4.69169H11.3718C11.56 4.69169 11.673 4.80463 11.673 4.95522C11.673 5.10581 11.56 5.25639 11.3718 5.25639ZM11.3718 7.40228H2.3365C2.14827 7.40228 2.03533 7.28933 2.03533 7.13875C2.03533 6.95051 2.14827 6.83757 2.3365 6.83757H11.3718C11.56 6.83757 11.673 6.95051 11.673 7.13875C11.673 7.28933 11.56 7.40228 11.3718 7.40228ZM11.3718 9.5858H2.3365C2.14827 9.5858 2.03533 9.43522 2.03533 9.28463C2.03533 9.13404 2.14827 9.0211 2.3365 9.0211H11.3718C11.56 9.0211 11.673 9.13404 11.673 9.28463C11.673 9.43522 11.56 9.5858 11.3718 9.5858ZM11.3718 11.7317H2.3365C2.14827 11.7317 2.03533 11.6187 2.03533 11.4305C2.03533 11.2799 2.14827 11.167 2.3365 11.167H11.3718C11.56 11.167 11.673 11.2799 11.673 11.4305C11.673 11.6187 11.56 11.7317 11.3718 11.7317ZM11.3718 13.8776H2.3365C2.14827 13.8776 2.03533 13.7646 2.03533 13.614C2.03533 13.4635 2.14827 13.3129 2.3365 13.3129H11.3718C11.56 13.3129 11.673 13.4635 11.673 13.614C11.673 13.7646 11.56 13.8776 11.3718 13.8776ZM11.3718 16.0611H2.3365C2.14827 16.0611 2.03533 15.9105 2.03533 15.7599C2.03533 15.6093 2.14827 15.4964 2.3365 15.4964H11.3718C11.56 15.4964 11.673 15.6093 11.673 15.7599C11.673 15.9105 11.56 16.0611 11.3718 16.0611ZM11.3718 18.207H2.3365C2.14827 18.207 2.03533 18.094 2.03533 17.9435C2.03533 17.7929 2.14827 17.6423 2.3365 17.6423H11.3718C11.56 17.6423 11.673 17.7929 11.673 17.9435C11.673 18.094 11.56 18.207 11.3718 18.207Z" fill="#1890FF"/>
<path fill-rule="evenodd" clip-rule="evenodd" d="M10.6189 3.82583H3.42832C3.27774 3.82583 3.16479 3.71289 3.16479 3.5623V2.58348C3.16479 1.90583 3.7295 1.34113 4.3695 1.34113H4.74597V0.625834C4.74597 0.475246 4.89656 0.362305 5.04715 0.362305H9.00009C9.15068 0.362305 9.30127 0.475246 9.30127 0.625834V1.34113H9.64009C10.3554 1.34113 10.8824 1.86819 10.8824 2.58348V3.52466C10.8824 3.71289 10.7695 3.82583 10.6189 3.82583ZM7.94597 1.94348H6.13891C5.95068 1.94348 5.83774 1.83054 5.83774 1.6423C5.83774 1.49172 5.95068 1.37878 6.13891 1.37878H7.94597C8.09656 1.37878 8.2095 1.49172 8.2095 1.6423C8.2095 1.83054 8.09656 1.94348 7.94597 1.94348ZM8.96244 2.80936H5.12244C4.93421 2.80936 4.82127 2.65878 4.82127 2.50819C4.82127 2.3576 4.93421 2.24466 5.12244 2.24466H8.96244C9.11303 2.24466 9.22597 2.3576 9.22597 2.50819C9.22597 2.65878 9.11303 2.80936 8.96244 2.80936Z" fill="#1890FF"/>
</svg>
