<svg width="777" height="777" viewBox="0 0 777 777" fill="none" xmlns="http://www.w3.org/2000/svg">
<path d="M777 594.246H0V594.635H777V594.246Z" fill="#EBEBEB"/>
<path d="M699.146 619.26H647.675V619.648H699.146V619.26Z" fill="#EBEBEB"/>
<path d="M514.716 623.477H501.207V623.866H514.716V623.477Z" fill="#EBEBEB"/>
<path d="M646.119 604.829H616.295V605.218H646.119V604.829Z" fill="#EBEBEB"/>
<path d="M148.643 607.44H81.5213V607.828H148.643V607.44Z" fill="#EBEBEB"/>
<path d="M172.322 607.44H162.48V607.828H172.322V607.44Z" fill="#EBEBEB"/>
<path d="M349.878 614.003H204.306V614.391H349.878V614.003Z" fill="#EBEBEB"/>
<path d="M368.32 524.941H68.2439C63.3535 524.941 59.3737 520.961 59.3737 516.071V94.2656C59.3737 89.3752 63.3535 85.3954 68.2439 85.3954H368.32C373.209 85.3954 377.188 89.3752 377.188 94.2656V516.071C377.188 520.961 373.209 524.941 368.32 524.941ZM68.2439 85.7854C63.5663 85.7854 59.7622 89.5896 59.7622 94.2672V516.072C59.7622 520.75 63.5663 524.554 68.2439 524.554H368.32C372.996 524.554 376.8 520.75 376.8 516.072V94.2656C376.8 89.5896 372.996 85.7839 368.32 85.7839L68.2439 85.7854Z" fill="#EBEBEB"/>
<path d="M704.444 524.941H404.369C399.479 524.941 395.501 520.961 395.501 516.071V94.2656C395.501 89.3752 399.481 85.3954 404.369 85.3954H704.444C709.336 85.3954 713.314 89.3752 713.314 94.2656V516.071C713.315 520.961 709.336 524.941 704.444 524.941ZM404.369 85.7854C399.693 85.7854 395.889 89.5896 395.889 94.2672V516.072C395.889 520.75 399.693 524.554 404.369 524.554H704.444C709.121 524.554 712.925 520.75 712.925 516.072V94.2656C712.925 89.5896 709.121 85.7839 704.444 85.7839L404.369 85.7854Z" fill="#EBEBEB"/>
<path d="M346.048 285.518H102.791V593.552H346.048V285.518Z" fill="#F0F0F0"/>
<path d="M337.448 296.746H111.388V362.615H337.448V296.746Z" fill="#E0E0E0"/>
<path d="M124.23 307.409H111.388V362.615H124.23V307.409Z" fill="#EBEBEB"/>
<path d="M186.325 307.409H173.482V362.615H186.325V307.409Z" fill="#EBEBEB"/>
<path d="M256.813 306.048L244.157 308.229L253.531 362.634L266.187 360.454L256.813 306.048Z" fill="#EBEBEB"/>
<path d="M140.143 314.683H127.301V362.613H140.143V314.683Z" fill="#EBEBEB"/>
<path d="M169.66 314.683H156.817V362.613H169.66V314.683Z" fill="#EBEBEB"/>
<path d="M244.163 314.683H231.321V362.613H244.163V314.683Z" fill="#EBEBEB"/>
<path d="M203.19 313.045L190.653 315.83L201.049 362.619L213.586 359.834L203.19 313.045Z" fill="#EBEBEB"/>
<path d="M151.246 304.668H144.825V362.615H151.246V304.668Z" fill="#EBEBEB"/>
<path d="M227.628 304.668H221.207V362.615H227.628V304.668Z" fill="#EBEBEB"/>
<path d="M111.389 438.913H337.449V373.043H111.389V438.913Z" fill="#E0E0E0"/>
<path d="M324.605 438.913H337.448V383.707H324.605V438.913Z" fill="#EBEBEB"/>
<path d="M262.511 438.913H275.353V383.707H262.511V438.913Z" fill="#EBEBEB"/>
<path d="M182.621 436.73L195.277 438.91L204.651 384.505L191.995 382.324L182.621 436.73Z" fill="#EBEBEB"/>
<path d="M308.694 438.913H321.536V390.983H308.694V438.913Z" fill="#EBEBEB"/>
<path d="M279.178 438.913H292.02V390.983H279.178V438.913Z" fill="#EBEBEB"/>
<path d="M204.675 438.913H217.517V390.983H204.675V438.913Z" fill="#EBEBEB"/>
<path d="M235.241 436.128L247.777 438.913L258.173 392.124L245.637 389.338L235.241 436.128Z" fill="#EBEBEB"/>
<path d="M297.591 438.913H304.012V380.966H297.591V438.913Z" fill="#EBEBEB"/>
<path d="M221.208 438.913H227.629V380.966H221.208V438.913Z" fill="#EBEBEB"/>
<path d="M124.23 383.707H111.388V438.913H124.23V383.707Z" fill="#EBEBEB"/>
<path d="M140.143 390.982H127.301V438.912H140.143V390.982Z" fill="#EBEBEB"/>
<path d="M169.66 390.982H156.817V438.912H169.66V390.982Z" fill="#EBEBEB"/>
<path d="M151.246 380.966H144.825V438.913H151.246V380.966Z" fill="#EBEBEB"/>
<path d="M337.448 449.342H111.388V515.212H337.448V449.342Z" fill="#E0E0E0"/>
<path d="M253.981 460.006H241.139V515.212H253.981V460.006Z" fill="#EBEBEB"/>
<path d="M324.466 458.653L311.81 460.834L321.184 515.239L333.84 513.058L324.466 458.653Z" fill="#EBEBEB"/>
<path d="M207.799 467.282H194.957V515.212H207.799V467.282Z" fill="#EBEBEB"/>
<path d="M237.316 467.282H224.474V515.212H237.316V467.282Z" fill="#EBEBEB"/>
<path d="M311.818 467.282H298.976V515.212H311.818V467.282Z" fill="#EBEBEB"/>
<path d="M270.846 465.644L258.31 468.43L268.706 515.219L281.242 512.433L270.846 465.644Z" fill="#EBEBEB"/>
<path d="M218.903 457.266H212.482V515.213H218.903V457.266Z" fill="#EBEBEB"/>
<path d="M295.285 457.266H288.864V515.213H295.285V457.266Z" fill="#EBEBEB"/>
<path d="M176.72 458.648L164.064 460.829L173.438 515.234L186.094 513.053L176.72 458.648Z" fill="#EBEBEB"/>
<path d="M164.079 467.282H151.237V515.212H164.079V467.282Z" fill="#EBEBEB"/>
<path d="M123.103 465.643L110.567 468.429L120.963 515.218L133.499 512.433L123.103 465.643Z" fill="#EBEBEB"/>
<path d="M147.546 457.266H141.125V515.213H147.546V457.266Z" fill="#EBEBEB"/>
<path d="M474.411 409.686H611.496C626.365 409.686 638.419 421.74 638.419 436.609V543.654H447.487V436.609C447.487 421.74 459.541 409.686 474.411 409.686Z" fill="#E6E6E6"/>
<path d="M406.957 489.027H431.488C440.324 489.027 447.487 496.189 447.487 505.025V593.552H390.958V505.025C390.958 496.189 398.121 489.027 406.957 489.027Z" fill="#E0E0E0"/>
<path d="M406.957 489.027H407.474C416.31 489.027 423.473 496.189 423.473 505.025V593.552H390.957V505.025C390.958 496.189 398.121 489.027 406.957 489.027Z" fill="#EBEBEB"/>
<path d="M618.452 552.887H430.32V593.552H618.452V552.887Z" fill="#E6E6E6"/>
<path d="M430.054 515.696H611.488C620.472 515.696 627.754 522.978 627.754 531.962V542.094C627.754 551.078 620.472 558.36 611.488 558.36H430.054C421.07 558.36 413.788 551.078 413.788 542.094V531.962C413.788 522.978 421.07 515.696 430.054 515.696Z" fill="#F5F5F5"/>
<path d="M588.686 515.696H611.19C620.174 515.696 627.456 522.978 627.456 531.962V542.094C627.456 551.078 620.174 558.36 611.19 558.36H588.686C579.703 558.36 572.421 551.078 572.421 542.094V531.962C572.422 522.978 579.704 515.696 588.686 515.696Z" fill="#E0E0E0"/>
<path d="M613.617 489.027H638.149C646.985 489.027 654.147 496.189 654.147 505.025V593.552H597.619V505.025C597.619 496.189 604.781 489.027 613.617 489.027Z" fill="#E0E0E0"/>
<path d="M613.617 489.027H614.135C622.971 489.027 630.133 496.189 630.133 505.025V593.552H597.617V505.025C597.619 496.189 604.781 489.027 613.617 489.027Z" fill="#F0F0F0"/>
<path d="M233.499 248.092C253.453 244.853 267.004 226.052 263.766 206.097C260.527 186.143 241.726 172.592 221.771 175.83C201.817 179.069 188.266 197.87 191.504 217.825C194.743 237.779 213.544 251.33 233.499 248.092Z" fill="#E0E0E0"/>
<path d="M232.621 242.682C249.587 239.928 261.109 223.942 258.355 206.975C255.602 190.009 239.616 178.487 222.649 181.241C205.683 183.994 194.161 199.98 196.914 216.947C199.668 233.913 215.654 245.435 232.621 242.682Z" fill="#F0F0F0"/>
<path d="M226.161 233.313V211.557L211.743 219.715" fill="#F0F0F0"/>
<path d="M226.161 233.313V211.557L211.743 219.715" stroke="#E0E0E0" stroke-width="2" stroke-miterlimit="10" stroke-linecap="round" stroke-linejoin="round"/>
<path d="M666.058 165.787H431.79V373.665H666.058V165.787Z" fill="#E6E6E6"/>
<path d="M659.892 171.484H437.656V368.077H659.892V171.484Z" fill="#F0F0F0"/>
<path d="M489.813 171.484L437.656 367.65V275.473L465.193 171.484H489.813Z" fill="white"/>
<path d="M508.285 171.484L455.67 368.079H447.274L499.888 171.484H508.285Z" fill="white"/>
<path d="M659.892 295.537V326.951L649.246 368.079H640.849L659.892 295.537Z" fill="white"/>
<path d="M515.168 167.95H511.425V372.469H515.168V167.95Z" fill="#E6E6E6"/>
<path d="M587.718 167.95H583.975V372.469H587.718V167.95Z" fill="#E6E6E6"/>
<path d="M388.5 664.43C554.905 664.43 689.804 656.552 689.804 646.834C689.804 637.116 554.905 629.238 388.5 629.238C222.095 629.238 87.1965 637.116 87.1965 646.834C87.1965 656.552 222.095 664.43 388.5 664.43Z" fill="#F5F5F5"/>
<path d="M624.548 607.971C624.548 607.971 631.93 591.866 623.496 575.988C615.062 560.111 612.616 556.371 617.993 553.118C623.37 549.866 625.836 565.819 625.836 565.819C625.836 565.819 630.368 554.843 626.626 543.358C622.884 531.87 620.537 513.162 625.647 511.156C630.758 509.149 626.623 534.495 631.056 543.134C631.056 543.134 634.781 533.516 635.393 524.29C636.006 515.064 635.048 500.332 639.084 496.553C643.12 492.773 645.706 495.389 641.738 515.749C637.773 536.11 637.802 552.66 637.802 552.66C637.802 552.66 646.562 525.953 652.441 525.173C658.32 524.394 658.312 533.042 653.28 540.545C648.248 548.046 638.543 561.487 636.952 568.402C636.952 568.402 646.567 548.302 655.216 554.463C663.866 560.623 647.689 572.762 640.478 577.149C633.268 581.536 628.261 609.034 628.261 609.034L624.548 607.971Z" fill="#407BFF"/>
<path opacity="0.2" d="M624.548 607.971C624.548 607.971 631.93 591.866 623.496 575.988C615.062 560.111 612.616 556.371 617.993 553.118C623.37 549.866 625.836 565.819 625.836 565.819C625.836 565.819 630.368 554.843 626.626 543.358C622.884 531.87 620.537 513.162 625.647 511.156C630.758 509.149 626.623 534.495 631.056 543.134C631.056 543.134 634.781 533.516 635.393 524.29C636.006 515.064 635.048 500.332 639.084 496.553C643.12 492.773 645.706 495.389 641.738 515.749C637.773 536.11 637.802 552.66 637.802 552.66C637.802 552.66 646.562 525.953 652.441 525.173C658.32 524.394 658.312 533.042 653.28 540.545C648.248 548.046 638.543 561.487 636.952 568.402C636.952 568.402 646.567 548.302 655.216 554.463C663.866 560.623 647.689 572.762 640.478 577.149C633.268 581.536 628.261 609.034 628.261 609.034L624.548 607.971Z" fill="black"/>
<path d="M630.375 614.576C630.375 614.576 623.188 598.362 631.811 582.612C640.434 566.862 642.924 563.159 637.588 559.825C632.251 556.492 629.592 572.408 629.592 572.408C629.592 572.408 625.193 561.365 629.072 549.936C632.952 538.506 635.522 519.833 630.436 517.751C625.35 515.669 629.18 541.073 624.643 549.647C624.643 549.647 621.034 539.975 620.532 530.739C620.03 521.505 621.163 506.789 617.174 502.949C613.185 499.111 610.568 501.686 614.29 522.104C618.012 542.522 617.783 559.07 617.783 559.07C617.783 559.07 609.345 532.234 603.476 531.367C597.606 530.5 597.51 539.149 602.452 546.725C607.393 554.302 616.936 567.884 618.445 574.823C618.445 574.823 609.073 554.582 600.351 560.613C591.628 566.644 607.659 579.024 614.815 583.518C621.973 588.012 626.649 615.581 626.649 615.581L630.375 614.576Z" fill="#407BFF"/>
<path d="M597.222 603.019H656.602L651.796 645.511H602.027L597.222 603.019Z" fill="#263238"/>
<path d="M377.002 638.682V644.264C377.002 644.96 376.436 645.51 375.74 645.51H218.133C212.306 645.51 208.332 639.623 210.508 634.231L260.454 510.534L341.164 511.084L338.408 527.134L320.604 631.013C320.025 634.361 322.606 637.435 326.012 637.435H375.74C376.436 637.435 377.002 637.985 377.002 638.682Z" fill="#263238"/>
<path opacity="0.5" d="M377.002 638.682V644.264C377.002 644.96 376.436 645.51 375.74 645.51H218.133C212.306 645.51 208.332 639.623 210.508 634.231L241.476 557.55L260.454 510.534L341.164 511.084L338.408 527.134L330.666 572.31L320.604 631.013C320.025 634.361 322.606 637.435 326.012 637.435H375.74C376.436 637.435 377.002 637.985 377.002 638.682Z" fill="white"/>
<path opacity="0.2" d="M326.012 637.435H223.467C220.901 637.435 219.161 634.826 220.144 632.456L263.931 527.134H338.407L320.603 631.013C320.025 634.361 322.606 637.435 326.012 637.435Z" fill="black"/>
<path opacity="0.1" d="M341.162 511.086L338.408 527.134L330.666 572.31L241.474 557.552L260.452 510.534L341.162 511.086Z" fill="black"/>
<path d="M498.11 280.497H490.191H132.368H124.449C119.168 280.497 114.887 284.778 114.887 290.058V543.022C114.887 548.302 119.168 552.583 124.449 552.583H132.368H490.189H498.108C503.389 552.583 507.67 548.302 507.67 543.022V290.06C507.672 284.778 503.39 280.497 498.11 280.497Z" fill="#263238"/>
<path opacity="0.6" d="M498.11 280.497H490.191H132.368H124.449C119.168 280.497 114.887 284.778 114.887 290.058V543.022C114.887 548.302 119.168 552.583 124.449 552.583H132.368H490.189H498.108C503.389 552.583 507.67 548.302 507.67 543.022V290.06C507.672 284.778 503.39 280.497 498.11 280.497Z" fill="white"/>
<path opacity="0.2" d="M132.365 552.578H124.444C119.17 552.578 114.893 548.301 114.893 543.027V290.063C114.893 284.774 119.17 280.495 124.444 280.495H132.365C127.09 280.495 122.814 284.772 122.814 290.063V543.027C122.812 548.301 127.09 552.578 132.365 552.578Z" fill="black"/>
<path d="M499.059 288.713H131.434V532.641H499.059V288.713Z" fill="#407BFF"/>
<path opacity="0.4" d="M310.177 381.572C327.804 381.572 342.094 367.282 342.094 349.655C342.094 332.027 327.804 317.737 310.177 317.737C292.549 317.737 278.259 332.027 278.259 349.655C278.259 367.282 292.549 381.572 310.177 381.572Z" fill="white"/>
<path d="M302.562 344.805V341.816C302.562 338.917 304.92 336.559 307.819 336.559H312.534C315.434 336.559 317.791 338.917 317.791 341.816V344.805H321.196V341.816C321.196 337.039 317.311 333.154 312.536 333.154H307.821C303.046 333.154 299.161 337.039 299.161 341.816V344.805H302.562Z" fill="white"/>
<path d="M294.875 348.73V364.418C294.875 365.375 295.652 366.152 296.609 366.152H323.743C324.7 366.152 325.478 365.375 325.478 364.418V348.73C325.478 347.773 324.7 346.996 323.743 346.996H296.609C295.652 346.996 294.875 347.773 294.875 348.73ZM311.159 357.614V360.699H309.195V357.614C308.634 357.275 308.242 356.686 308.242 355.984C308.242 354.915 309.109 354.048 310.178 354.048C311.248 354.048 312.115 354.915 312.115 355.984C312.113 356.686 311.72 357.274 311.159 357.614Z" fill="white"/>
<path d="M232.312 444.652H202.164C200.371 444.652 198.917 443.198 198.917 441.404V411.255C198.917 409.462 200.371 408.007 202.164 408.007H232.312C234.105 408.007 235.56 409.462 235.56 411.255V441.404C235.56 443.198 234.107 444.652 232.312 444.652Z" fill="white"/>
<path d="M278.781 444.601H248.634C246.84 444.601 245.386 443.146 245.386 441.353V411.204C245.386 409.411 246.84 407.956 248.634 407.956H278.781C280.575 407.956 282.029 409.411 282.029 411.204V441.353C282.029 443.146 280.576 444.601 278.781 444.601Z" fill="white"/>
<path d="M325.251 444.55H295.103C293.31 444.55 291.855 443.095 291.855 441.302V411.153C291.855 409.359 293.31 407.905 295.103 407.905H325.251C327.044 407.905 328.498 409.359 328.498 411.153V441.302C328.498 443.095 327.045 444.55 325.251 444.55Z" fill="white"/>
<path d="M371.72 444.497H341.572C339.779 444.497 338.324 443.042 338.324 441.249V411.101C338.324 409.308 339.779 407.854 341.572 407.854H371.72C373.513 407.854 374.968 409.308 374.968 411.101V441.249C374.968 443.044 373.515 444.497 371.72 444.497Z" fill="white"/>
<path d="M418.189 444.446H388.042C386.248 444.446 384.794 442.991 384.794 441.198V411.049C384.794 409.255 386.248 407.801 388.042 407.801H418.189C419.982 407.801 421.437 409.255 421.437 411.049V441.198C421.437 442.991 419.982 444.446 418.189 444.446Z" fill="white"/>
<path d="M395.042 426.836C395.042 420.393 398.491 416.716 403.126 416.716C407.734 416.716 411.182 420.391 411.182 426.836C411.182 433.28 407.734 436.955 403.126 436.955C398.491 436.955 395.042 433.28 395.042 426.836ZM408.355 426.836C408.355 421.776 406.208 419.232 403.126 419.232C400.018 419.232 397.869 421.776 397.869 426.836C397.869 431.895 400.017 434.439 403.126 434.439C406.208 434.438 408.355 431.895 408.355 426.836Z" fill="#263238"/>
<path d="M224.598 426.582C224.598 433.338 220.783 436.955 215.243 436.955C213.378 436.955 211.597 436.589 210.325 435.796L211.398 433.592C212.444 434.27 213.773 434.525 215.215 434.525C219.229 434.525 221.773 432.01 221.773 427.062V426.357C220.614 428.08 218.523 428.957 216.063 428.957C212.135 428.957 209.308 426.61 209.308 422.966C209.308 419.15 212.36 416.717 216.29 416.717C221.603 416.716 224.598 420.278 224.598 426.582ZM221.122 422.823C221.122 420.786 219.482 419.007 216.402 419.007C213.83 419.007 212.049 420.505 212.049 422.851C212.049 425.168 213.774 426.666 216.544 426.666C219.257 426.666 221.122 424.999 221.122 422.823Z" fill="#263238"/>
<path d="M255.635 426.837C255.635 420.394 259.083 416.717 263.718 416.717C268.326 416.717 271.774 420.393 271.774 426.837C271.774 433.283 268.326 436.957 263.718 436.957C259.083 436.957 255.635 433.282 255.635 426.837ZM268.948 426.837C268.948 421.777 266.8 419.233 263.718 419.233C260.609 419.233 258.461 421.777 258.461 426.837C258.461 431.897 260.609 434.441 263.718 434.441C266.8 434.441 268.948 431.897 268.948 426.837Z" fill="#263238"/>
<path d="M317.325 434.27V436.728H303.108V434.806L311.164 427.035C313.255 424.999 313.652 423.756 313.652 422.512C313.652 420.477 312.211 419.233 309.44 419.233C307.321 419.233 305.596 419.911 304.38 421.383L302.46 419.715C303.986 417.821 306.613 416.717 309.695 416.717C313.821 416.717 316.478 418.837 316.478 422.23C316.478 424.152 315.913 425.877 313.227 428.449L307.178 434.272H317.325V434.27Z" fill="#263238"/>
<path d="M358.906 416.944V436.728H356.107V419.403H351.641V416.944H358.906Z" fill="#263238"/>
<g opacity="0.6">
<path d="M275.409 399.05V399.746H270.021V392.129H275.246V392.825H270.828V395.534H274.767V396.219H270.828V399.049H275.409V399.05Z" fill="white"/>
<path d="M282.404 396.429V399.748H281.631V396.505C281.631 395.297 281 394.676 279.913 394.676C278.682 394.676 277.91 395.437 277.91 396.744V399.748H277.137V394.023H277.877V395.078C278.29 394.382 279.064 393.979 280.054 393.979C281.446 393.978 282.404 394.784 282.404 396.429Z" fill="white"/>
<path d="M287.515 399.4C287.21 399.672 286.753 399.802 286.307 399.802C285.23 399.802 284.631 399.192 284.631 398.138V394.676H283.608V394.023H284.631V392.77H285.403V394.023H287.145V394.676H285.403V398.093C285.403 398.767 285.751 399.137 286.393 399.137C286.708 399.137 287.024 399.039 287.241 398.845L287.515 399.4Z" fill="white"/>
<path d="M293.695 397.125H288.906C288.993 398.321 289.908 399.115 291.159 399.115C291.855 399.115 292.477 398.865 292.912 398.365L293.347 398.865C292.836 399.476 292.042 399.802 291.139 399.802C289.353 399.802 288.135 398.584 288.135 396.885C288.135 395.187 289.321 393.979 290.932 393.979C292.544 393.979 293.707 395.167 293.707 396.885C293.706 396.951 293.695 397.036 293.695 397.125ZM288.906 396.547H292.965C292.867 395.426 292.051 394.641 290.929 394.641C289.819 394.641 289.004 395.426 288.906 396.547Z" fill="white"/>
<path d="M298.164 393.978V394.728C298.099 394.728 298.034 394.718 297.979 394.718C296.783 394.718 296.052 395.479 296.052 396.828V399.745H295.28V394.02H296.02V395.14C296.38 394.38 297.109 393.978 298.164 393.978Z" fill="white"/>
<path d="M307.302 394.023L304.439 400.433C303.959 401.555 303.35 401.913 302.534 401.913C302.001 401.913 301.49 401.739 301.142 401.39L301.501 400.814C301.784 401.097 302.132 401.249 302.545 401.249C303.056 401.249 303.404 401.01 303.731 400.292L303.981 399.737L301.423 394.023H302.228L304.383 398.887L306.539 394.023H307.302Z" fill="white"/>
<path d="M307.648 396.884C307.648 395.185 308.889 393.978 310.565 393.978C312.242 393.978 313.471 395.185 313.471 396.884C313.471 398.582 312.241 399.801 310.565 399.801C308.89 399.801 307.648 398.582 307.648 396.884ZM312.687 396.884C312.687 395.546 311.782 394.654 310.564 394.654C309.344 394.654 308.432 395.546 308.432 396.884C308.432 398.222 309.345 399.115 310.564 399.115C311.784 399.115 312.687 398.223 312.687 396.884Z" fill="white"/>
<path d="M320.205 394.023V399.748H319.465V398.702C319.063 399.4 318.323 399.802 317.408 399.802C315.95 399.802 314.991 398.986 314.991 397.342V394.023H315.765V397.266C315.765 398.484 316.396 399.106 317.484 399.106C318.682 399.106 319.432 398.334 319.432 397.027V394.023H320.205Z" fill="white"/>
<path d="M325.251 393.978V394.728C325.185 394.728 325.12 394.718 325.066 394.718C323.867 394.718 323.139 395.479 323.139 396.828V399.745H322.366V394.02H323.106V395.14C323.465 394.38 324.195 393.978 325.251 393.978Z" fill="white"/>
<path d="M329.066 395.937C329.066 393.717 330.764 392.063 333.07 392.063C335.356 392.063 337.066 393.707 337.066 395.937C337.066 398.169 335.356 399.812 333.07 399.812C330.764 399.812 329.066 398.158 329.066 395.937ZM336.261 395.937C336.261 394.119 334.899 392.781 333.072 392.781C331.232 392.781 329.861 394.119 329.861 395.937C329.861 397.756 331.232 399.094 333.072 399.094C334.899 399.094 336.261 397.756 336.261 395.937Z" fill="white"/>
<path d="M340.239 392.825H337.561V392.129H343.721V392.825H341.044V399.746H340.239V392.825Z" fill="white"/>
<path d="M350.968 394.741C350.968 396.363 349.791 397.342 347.854 397.342H345.808V399.748H345.002V392.13H347.854C349.791 392.129 350.968 393.108 350.968 394.741ZM350.161 394.741C350.161 393.523 349.356 392.826 347.832 392.826H345.807V396.635H347.832C349.356 396.634 350.161 395.937 350.161 394.741Z" fill="white"/>
</g>
<g opacity="0.6">
<path d="M279.947 464.483L280.262 463.864C280.806 464.397 281.776 464.789 282.777 464.789C284.202 464.789 284.822 464.191 284.822 463.44C284.822 461.35 280.13 462.634 280.13 459.816C280.13 458.694 281 457.726 282.938 457.726C283.798 457.726 284.69 457.976 285.3 458.4L285.028 459.042C284.376 458.618 283.613 458.411 282.938 458.411C281.546 458.411 280.924 459.031 280.924 459.794C280.924 461.885 285.616 460.621 285.616 463.397C285.616 464.519 284.724 465.476 282.775 465.476C281.633 465.473 280.512 465.07 279.947 464.483Z" fill="white"/>
<path d="M292.188 462.786H287.4C287.487 463.982 288.402 464.777 289.653 464.777C290.349 464.777 290.971 464.526 291.406 464.026L291.841 464.526C291.33 465.136 290.536 465.462 289.633 465.462C287.847 465.462 286.629 464.244 286.629 462.545C286.629 460.846 287.815 459.639 289.426 459.639C291.038 459.639 292.202 460.826 292.202 462.545C292.199 462.61 292.188 462.697 292.188 462.786ZM287.398 462.208H291.457C291.359 461.087 290.544 460.303 289.422 460.303C288.314 460.303 287.496 461.087 287.398 462.208Z" fill="white"/>
<path d="M299.041 462.088V465.407H298.269V462.164C298.269 460.957 297.638 460.335 296.55 460.335C295.319 460.335 294.547 461.097 294.547 462.404V465.407H293.774V459.683H294.514V460.738C294.927 460.041 295.701 459.639 296.691 459.639C298.082 459.639 299.041 460.446 299.041 462.088Z" fill="white"/>
<path d="M306.383 457.331V465.407H305.644V464.275C305.176 465.047 304.38 465.462 303.434 465.462C301.801 465.462 300.582 464.275 300.582 462.545C300.582 460.814 301.801 459.639 303.434 459.639C304.348 459.639 305.132 460.031 305.611 460.772V457.331H306.383ZM305.62 462.545C305.62 461.207 304.707 460.313 303.498 460.313C302.278 460.313 301.364 461.205 301.364 462.545C301.364 463.883 302.278 464.777 303.498 464.777C304.707 464.777 305.62 463.885 305.62 462.545Z" fill="white"/>
<path d="M315.704 461.86V465.407H314.965V464.515C314.617 465.103 313.942 465.462 312.994 465.462C311.7 465.462 310.904 464.786 310.904 463.798C310.904 462.916 311.47 462.175 313.114 462.175H314.93V461.825C314.93 460.846 314.376 460.313 313.31 460.313C312.57 460.313 311.874 460.575 311.404 460.988L311.056 460.411C311.633 459.922 312.481 459.639 313.386 459.639C314.867 459.639 315.704 460.38 315.704 461.86ZM314.932 463.689V462.753H313.136C312.026 462.753 311.667 463.188 311.667 463.776C311.667 464.441 312.2 464.853 313.115 464.853C313.986 464.853 314.627 464.439 314.932 463.689Z" fill="white"/>
<path d="M323.125 459.684V464.711C323.125 466.682 322.157 467.574 320.262 467.574C319.218 467.574 318.194 467.258 317.596 466.693L317.987 466.105C318.531 466.595 319.359 466.888 320.241 466.888C321.689 466.888 322.352 466.225 322.352 464.811V464.08C321.874 464.811 321.058 465.191 320.121 465.191C318.488 465.191 317.248 464.049 317.248 462.405C317.248 460.761 318.488 459.641 320.121 459.641C321.078 459.641 321.905 460.032 322.385 460.783V459.684H323.125ZM322.374 462.405C322.374 461.164 321.46 460.315 320.197 460.315C318.934 460.315 318.031 461.164 318.031 462.405C318.031 463.645 318.934 464.506 320.197 464.506C321.46 464.506 322.374 463.644 322.374 462.405Z" fill="white"/>
<path d="M329.606 461.86V465.407H328.867V464.515C328.519 465.103 327.844 465.462 326.896 465.462C325.602 465.462 324.806 464.786 324.806 463.798C324.806 462.916 325.372 462.175 327.016 462.175H328.833V461.825C328.833 460.846 328.278 460.313 327.21 460.313C326.47 460.313 325.773 460.575 325.305 460.988L324.957 460.411C325.533 459.922 326.382 459.639 327.286 459.639C328.769 459.639 329.606 460.38 329.606 461.86ZM328.834 463.689V462.753H327.038C325.928 462.753 325.569 463.188 325.569 463.776C325.569 464.441 326.102 464.853 327.018 464.853C327.888 464.853 328.53 464.439 328.834 463.689Z" fill="white"/>
<path d="M331.53 457.877C331.53 457.583 331.78 457.331 332.096 457.331C332.411 457.331 332.662 457.571 332.662 457.866C332.662 458.181 332.422 458.432 332.096 458.432C331.78 458.432 331.53 458.181 331.53 457.877ZM331.704 459.684H332.477V465.409H331.704V459.684Z" fill="white"/>
<path d="M339.899 462.088V465.407H339.126V462.164C339.126 460.957 338.495 460.335 337.408 460.335C336.178 460.335 335.404 461.097 335.404 462.404V465.407H334.632V459.683H335.372V460.738C335.785 460.041 336.559 459.639 337.549 459.639C338.94 459.639 339.899 460.446 339.899 462.088Z" fill="white"/>
</g>
<path opacity="0.4" d="M353.479 504.257H266.873C259.743 504.257 253.962 498.478 253.962 491.347C253.962 484.217 259.742 478.436 266.873 478.436H353.479C360.609 478.436 366.39 484.216 366.39 491.347C366.39 498.478 360.61 504.257 353.479 504.257Z" fill="white"/>
<path d="M276.399 490.686C276.399 488.116 278.362 486.239 281.008 486.239C282.351 486.239 283.518 486.699 284.314 487.594L283.505 488.376C282.834 487.668 282.015 487.345 281.058 487.345C279.094 487.345 277.641 488.761 277.641 490.686C277.641 492.612 279.094 494.029 281.058 494.029C282.015 494.029 282.834 493.693 283.505 492.985L284.314 493.768C283.518 494.661 282.351 495.134 280.996 495.134C278.362 495.134 276.399 493.258 276.399 490.686Z" fill="white"/>
<path d="M285.201 490.686C285.201 488.139 287.164 486.239 289.835 486.239C292.481 486.239 294.444 488.128 294.444 490.686C294.444 493.246 292.481 495.134 289.835 495.134C287.164 495.134 285.201 493.235 285.201 490.686ZM293.202 490.686C293.202 488.761 291.76 487.345 289.835 487.345C287.885 487.345 286.443 488.761 286.443 490.686C286.443 492.612 287.883 494.029 289.835 494.029C291.762 494.029 293.202 492.612 293.202 490.686Z" fill="white"/>
<path d="M303.832 486.338V495.036H302.812L297.594 488.55V495.036H296.351V486.338H297.37L302.589 492.825V486.338H303.832Z" fill="white"/>
<path d="M308.174 487.418H305.192V486.338H312.385V487.418H309.403V495.034H308.174V487.418Z" fill="white"/>
<path d="M313.743 486.338H314.986V495.036H313.743V486.338Z" fill="white"/>
<path d="M325.078 486.338V495.036H324.059L318.84 488.55V495.036H317.597V486.338H318.617L323.835 492.825V486.338H325.078Z" fill="white"/>
<path d="M327.617 491.283V486.338H328.86V491.233C328.86 493.159 329.742 494.029 331.308 494.029C332.874 494.029 333.77 493.159 333.77 491.233V486.338H334.974V491.283C334.974 493.805 333.596 495.135 331.296 495.135C329.01 495.134 327.617 493.805 327.617 491.283Z" fill="white"/>
<path d="M343.838 493.954V495.034H337.526V486.337H343.664V487.417H338.769V490.088H343.129V491.145H338.769V493.954H343.838Z" fill="white"/>
<path opacity="0.1" d="M460.741 289.858C409.911 340.783 279.358 454.118 131.43 445.739V289.858H460.741Z" fill="white"/>
<path opacity="0.1" d="M499.058 383.456V533.791H277.728C286.217 503.426 303.182 461.847 336.098 432.132C395.306 378.673 464.02 378.831 499.058 383.456Z" fill="white"/>
<path d="M545.814 265.874L550.969 288.66L556.125 265.874H545.814Z" fill="#407BFF"/>
<path opacity="0.7" d="M545.814 265.874L550.969 288.66L556.125 265.874H545.814Z" fill="white"/>
<path d="M608.702 270.921H493.237C485.863 270.921 479.885 264.943 479.885 257.569V214.719C479.885 207.346 485.863 201.367 493.237 201.367H608.702C616.076 201.367 622.054 207.346 622.054 214.719V257.569C622.054 264.943 616.076 270.921 608.702 270.921Z" fill="#407BFF"/>
<path opacity="0.7" d="M608.702 270.921H493.237C485.863 270.921 479.885 264.943 479.885 257.569V214.719C479.885 207.346 485.863 201.367 493.237 201.367H608.702C616.076 201.367 622.054 207.346 622.054 214.719V257.569C622.054 264.943 616.076 270.921 608.702 270.921Z" fill="white"/>
<g opacity="0.5">
<path d="M508.288 226.895V229.902H507.058V226.87L503.603 221.204H504.932L507.715 225.79L510.511 221.204H511.741L508.288 226.895Z" fill="#263238"/>
<path d="M511.473 226.611C511.473 224.646 512.926 223.255 514.902 223.255C516.877 223.255 518.32 224.648 518.32 226.611C518.32 228.573 516.879 229.978 514.902 229.978C512.927 229.976 511.473 228.573 511.473 226.611ZM517.114 226.611C517.114 225.206 516.17 224.3 514.902 224.3C513.636 224.3 512.679 225.207 512.679 226.611C512.679 228.014 513.636 228.934 514.902 228.934C516.17 228.934 517.114 228.014 517.114 226.611Z" fill="#263238"/>
<path d="M526.114 223.318V229.903H524.983V228.909C524.5 229.593 523.679 229.978 522.747 229.978C521.044 229.978 519.914 229.046 519.914 227.108V223.318H521.107V226.971C521.107 228.264 521.754 228.909 522.885 228.909C524.127 228.909 524.922 228.138 524.922 226.722V223.318H526.114Z" fill="#263238"/>
<path d="M531.934 223.255V224.412C531.835 224.399 531.748 224.399 531.661 224.399C530.38 224.399 529.586 225.181 529.586 226.623V229.903H528.393V223.318H529.536V224.424C529.957 223.652 530.778 223.255 531.934 223.255Z" fill="#263238"/>
<path d="M536.299 225.554C536.299 223.007 538.262 221.106 540.933 221.106C543.58 221.106 545.543 222.994 545.543 225.554C545.543 228.113 543.58 230.001 540.933 230.001C538.262 230.001 536.299 228.101 536.299 225.554ZM544.301 225.554C544.301 223.628 542.859 222.211 540.933 222.211C538.983 222.211 537.541 223.628 537.541 225.554C537.541 227.479 538.982 228.896 540.933 228.896C542.86 228.896 544.301 227.479 544.301 225.554Z" fill="#263238"/>
<path d="M549.053 222.286H546.071V221.204H553.266V222.286H550.284V229.902H549.053V222.286Z" fill="#263238"/>
<path d="M561.644 224.236C561.644 226.124 560.278 227.268 558.015 227.268H555.866V229.902H554.623V221.204H558.015C560.278 221.204 561.644 222.348 561.644 224.236ZM560.402 224.236C560.402 222.993 559.569 222.286 557.979 222.286H555.866V226.188H557.978C559.569 226.188 560.402 225.479 560.402 224.236Z" fill="#263238"/>
<path d="M566.236 225.554C566.236 222.982 568.198 221.106 570.845 221.106C572.187 221.106 573.354 221.565 574.15 222.46L573.342 223.243C572.671 222.536 571.852 222.213 570.895 222.213C568.93 222.213 567.477 223.63 567.477 225.555C567.477 227.481 568.93 228.898 570.895 228.898C571.852 228.898 572.671 228.562 573.342 227.854L574.15 228.637C573.354 229.532 572.187 230.003 570.832 230.003C568.198 230.001 566.236 228.126 566.236 225.554Z" fill="#263238"/>
<path d="M574.876 226.611C574.876 224.646 576.33 223.255 578.304 223.255C580.281 223.255 581.721 224.648 581.721 226.611C581.721 228.573 580.281 229.978 578.304 229.978C576.33 229.976 574.876 228.573 574.876 226.611ZM580.517 226.611C580.517 225.206 579.574 224.3 578.306 224.3C577.039 224.3 576.082 225.207 576.082 226.611C576.082 228.014 577.039 228.934 578.306 228.934C579.574 228.934 580.517 228.014 580.517 226.611Z" fill="#263238"/>
<path d="M589.592 220.684V229.903H588.448V228.861C587.914 229.607 587.07 229.978 586.1 229.978C584.175 229.978 582.77 228.623 582.77 226.611C582.77 224.598 584.173 223.255 586.1 223.255C587.033 223.255 587.852 223.604 588.4 224.312V220.685H589.592V220.684ZM588.411 226.611C588.411 225.206 587.454 224.3 586.2 224.3C584.933 224.3 583.976 225.207 583.976 226.611C583.976 228.014 584.933 228.934 586.2 228.934C587.454 228.934 588.411 228.014 588.411 226.611Z" fill="#263238"/>
<path d="M597.783 227.008H592.441C592.59 228.163 593.521 228.934 594.826 228.934C595.597 228.934 596.243 228.673 596.727 228.138L597.386 228.909C596.789 229.605 595.883 229.978 594.789 229.978C592.664 229.978 591.247 228.575 591.247 226.611C591.247 224.66 592.65 223.255 594.553 223.255C596.455 223.255 597.808 224.623 597.808 226.648C597.808 226.747 597.796 226.895 597.783 227.008ZM592.441 226.151H596.664C596.54 225.044 595.707 224.262 594.553 224.262C593.41 224.262 592.565 225.032 592.441 226.151Z" fill="#263238"/>
</g>
<g opacity="0.5">
<path d="M533.011 243.513C533.011 248.403 530.248 251.024 526.239 251.024C524.888 251.024 523.599 250.758 522.677 250.184L523.454 248.588C524.211 249.079 525.173 249.264 526.217 249.264C529.123 249.264 530.965 247.443 530.965 243.863V243.35C530.125 244.599 528.612 245.233 526.831 245.233C523.985 245.233 521.94 243.535 521.94 240.895C521.94 238.132 524.15 236.372 526.996 236.372C530.843 236.371 533.011 238.949 533.011 243.513ZM530.495 240.79C530.495 239.317 529.308 238.029 527.078 238.029C525.216 238.029 523.926 239.114 523.926 240.811C523.926 242.489 525.174 243.574 527.181 243.574C529.143 243.574 530.495 242.366 530.495 240.79Z" fill="#263238"/>
<path d="M534.98 243.697C534.98 239.032 537.477 236.371 540.834 236.371C544.169 236.371 546.666 239.032 546.666 243.697C546.666 248.362 544.169 251.022 540.834 251.022C537.477 251.024 534.98 248.363 534.98 243.697ZM544.62 243.697C544.62 240.034 543.064 238.192 540.834 238.192C538.582 238.192 537.027 240.035 537.027 243.697C537.027 247.359 538.582 249.201 540.834 249.201C543.064 249.203 544.62 247.359 544.62 243.697Z" fill="#263238"/>
<path d="M558.643 249.08V250.861H548.351V249.468L554.183 243.841C555.698 242.368 555.984 241.467 555.984 240.567C555.984 239.094 554.941 238.192 552.935 238.192C551.4 238.192 550.152 238.684 549.272 239.748L547.881 238.541C548.986 237.17 550.89 236.371 553.12 236.371C556.107 236.371 558.03 237.907 558.03 240.362C558.03 241.754 557.622 243.002 555.678 244.864L551.299 249.08H558.643Z" fill="#263238"/>
<path d="M564.766 236.534V250.859H562.739V238.315H559.505V236.534H564.766Z" fill="#263238"/>
<path d="M567.9 243.697C567.9 239.032 570.397 236.371 573.752 236.371C577.087 236.371 579.585 239.032 579.585 243.697C579.585 248.362 577.087 251.022 573.752 251.022C570.396 251.024 567.9 248.363 567.9 243.697ZM577.538 243.697C577.538 240.034 575.982 238.192 573.752 238.192C571.501 238.192 569.945 240.035 569.945 243.697C569.945 247.359 571.501 249.201 573.752 249.201C575.982 249.203 577.538 247.359 577.538 243.697Z" fill="#263238"/>
</g>
<path d="M538.192 332.704L539.794 333.76L541.557 334.887C542.748 335.633 543.975 336.343 545.207 337.039C547.679 338.425 550.189 339.759 552.759 340.932C557.901 343.283 563.185 345.184 568.56 346.393L568.812 346.453C568.902 346.475 569.009 346.498 568.912 346.483C568.832 346.48 568.738 346.483 568.526 346.488C568.163 346.511 567.454 346.61 566.604 347.125C565.762 347.631 565.207 348.432 565.022 348.881C564.814 349.356 564.828 349.582 564.835 349.608C564.877 349.708 564.935 349.294 564.915 348.839C564.901 348.366 564.837 347.791 564.741 347.187C564.316 344.725 563.557 341.899 562.665 339.139C560.89 333.574 558.78 327.852 556.686 322.234L562.682 319.014C566.276 324.209 569.476 329.512 572.293 335.274C573.659 338.188 575.013 341.114 575.993 344.604C576.236 345.488 576.459 346.415 576.626 347.46C576.779 348.519 576.929 349.645 576.761 351.26C576.675 352.043 576.497 353.019 575.957 354.181C575.448 355.317 574.394 356.738 572.893 357.638C571.387 358.556 569.897 358.791 568.778 358.833C568.184 358.856 567.709 358.819 567.25 358.767L566.786 358.707L566.475 358.66C559.811 357.756 553.362 355.945 547.322 353.373C544.296 352.094 541.319 350.724 538.455 349.133C537.03 348.324 535.614 347.498 534.219 346.62C533.522 346.177 532.82 345.74 532.13 345.263C531.42 344.775 530.798 344.334 529.967 343.711L538.192 332.704Z" fill="#DC897C"/>
<path d="M536.458 330.93C545.412 331.956 551.418 337.002 551.418 337.002L545.163 356.24C545.163 356.24 515.002 328.472 536.458 330.93Z" fill="#407BFF"/>
<path opacity="0.6" d="M536.399 347.174C540.672 352.113 545.154 356.236 545.154 356.236L547.726 348.33L551.415 337.008C551.415 337.008 545.409 331.948 536.464 330.932C523.267 329.423 529.577 339.328 536.399 347.174Z" fill="white"/>
<path opacity="0.2" d="M536.399 347.174C540.672 352.113 545.154 356.236 545.154 356.236L547.726 348.331C542.243 344.102 536.445 344.441 536.445 344.441C536.341 345.375 536.334 346.301 536.399 347.174Z" fill="black"/>
<path d="M469.327 302.548C469.327 302.548 454.874 350.606 485.316 357.053C515.757 363.501 518.951 341.389 518.951 341.389C518.951 341.389 494.013 303.527 469.327 302.548Z" fill="#263238"/>
<path d="M462.175 318.091C462.175 318.091 463.662 315.322 466.341 315.159" stroke="#263238" stroke-width="0.482" stroke-miterlimit="10" stroke-linecap="round" stroke-linejoin="round"/>
<path d="M466.528 324.432C466.528 324.432 466.198 327.695 465.275 329.91C465.275 329.91 466.724 330.948 468.456 329.969L466.528 324.432Z" fill="#DE5753"/>
<path d="M463.597 322.335C463.922 323.187 464.644 323.703 465.213 323.487C465.782 323.271 465.979 322.405 465.654 321.554C465.331 320.702 464.607 320.186 464.04 320.402C463.47 320.617 463.272 321.482 463.597 322.335Z" fill="#263238"/>
<path d="M464.29 320.352L462.161 320.331C462.161 320.331 463.676 321.538 464.29 320.352Z" fill="#263238"/>
<path d="M494.522 330.39C494.459 330.53 494.397 330.669 494.304 330.778C494.164 331.042 494.009 331.291 493.853 331.555C492.937 333.109 491.802 334.648 490.279 335.829C485.571 339.543 481.561 340.662 478.034 339.589C477.863 339.543 477.692 339.481 477.521 339.418C477.505 339.434 477.505 339.434 477.505 339.434C472.268 337.305 468.243 331.042 464.933 322.76C463.395 318.968 462.4 315.518 462.245 312.534C462.245 312.503 462.198 312.41 462.198 312.379C462.198 312.255 462.167 312.099 462.167 311.975C462.043 307.763 463.504 304.314 467.078 301.454C468.321 300.46 469.813 299.527 471.585 298.673C487.202 291.089 502.307 315.736 494.522 330.39Z" fill="#E4897B"/>
<path opacity="0.2" d="M493.853 331.555C492.936 333.109 491.802 334.648 490.279 335.829C485.57 339.543 481.561 340.662 478.034 339.589C480.893 338.828 484.312 337.305 486.876 334.228C488.554 332.255 491.103 331.571 493.853 331.555Z" fill="black"/>
<path d="M462.184 312.432C462.184 312.432 466.523 323.846 479.185 323.641C479.185 323.641 489.067 332.954 495.735 330C504.826 325.97 506.7 309.437 497.429 297.885C485.407 282.904 459.17 293.628 462.184 312.432Z" fill="#263238"/>
<path d="M472.411 322.979C471.603 321.26 471.62 317.725 474.473 316.854C477.426 315.953 482.177 322.037 476.108 326.767C475.236 327.446 474.096 326.562 472.411 322.979Z" fill="#E4897B"/>
<path d="M475.818 291.676C475.818 291.676 464.065 293.986 460.257 300.951C455.811 309.084 455.653 315.398 467.418 319.519C467.418 319.519 482.343 305.471 488.775 303.911C495.205 302.351 500.205 302.077 500.205 302.077C495.934 289.854 480.556 286.525 475.818 291.676Z" fill="#263238"/>
<path d="M487.205 336.13C487.205 336.13 495.286 341.732 497.393 350.954L522.587 336.259C522.587 336.259 502.863 331.756 499.469 324.129C499.466 324.129 486.295 325.767 487.205 336.13Z" fill="#E4897B"/>
<path d="M512.231 396.665C512.231 396.665 479.662 364.593 476.083 354.525C476.083 354.525 489.799 333.153 517.232 332.259C544.665 331.364 563.319 383.544 563.319 383.544L512.231 396.665Z" fill="#407BFF"/>
<path opacity="0.6" d="M563.317 383.552L512.237 396.668C512.237 396.668 505.12 389.659 497.163 381.174C494.708 378.517 492.144 375.72 489.673 372.954C483.193 365.603 477.474 358.424 476.091 354.523C476.091 354.523 489.797 333.156 517.226 332.255C544.669 331.369 563.317 383.552 563.317 383.552Z" fill="white"/>
<path d="M481.71 318.16C481.71 318.16 486.48 334.011 503.232 339.272C519.984 344.534 515.779 361.625 532.018 359.61C540.66 358.537 548.055 340.943 521.555 325.442C506.107 316.405 512.1 286.736 479.319 289.518C479.319 289.518 486.116 309.855 481.71 318.16Z" fill="#263238"/>
<path d="M498.015 638.273L490.253 636.506C491.42 597.69 497.027 550.672 501.99 515.384C502.77 509.852 503.526 504.623 504.259 499.749C504.613 497.432 504.944 495.207 505.272 493.064C506.878 482.483 508.253 474.119 509.107 468.949C509.735 465.177 510.094 463.108 510.094 463.108L538.024 469.936L536.023 476.985L529.417 500.259L528.668 502.921L524.29 518.285L516.863 544.45C517.358 583.967 498.015 638.273 498.015 638.273Z" fill="#E4897B"/>
<path d="M564.525 631.772L556.565 631.373C550.508 589.6 547.951 537.365 546.857 501.038C546.694 495.411 546.557 490.147 546.449 485.383C546.442 485.135 546.449 484.909 546.439 484.677C546.237 475.216 546.138 467.692 546.094 462.926C546.079 459.196 546.065 457.151 546.065 457.151L574.762 459.036L573.53 470.994L571.727 488.567L571.372 492.01L570.135 503.984L566.821 536.096C574.159 574.926 564.525 631.772 564.525 631.772Z" fill="#E4897B"/>
<path d="M567.502 630.228C567.479 629.232 555.233 630.012 555.233 630.012C555.233 630.012 547.7 637.675 540.382 639.396C533.062 641.118 537.154 645.51 545.333 645.51C553.513 645.51 559.755 645.51 565.567 645.51C571.376 645.511 567.745 640.56 567.502 630.228Z" fill="#263238"/>
<path d="M547.709 632.852C547.471 632.658 547.227 632.273 547.412 631.547C547.501 631.196 547.721 630.916 548.066 630.719C548.716 630.346 549.776 630.316 550.812 630.419C549.816 629.887 548.943 629.241 548.907 628.598C548.884 628.178 549.154 627.833 549.712 627.567C550.236 627.32 550.77 627.305 551.297 627.524C552.958 628.214 553.987 631.073 554.029 631.194C554.058 631.278 554.052 631.367 554.017 631.443C554.004 631.466 553.99 631.49 553.973 631.511C553.943 631.547 553.908 631.575 553.864 631.595C553.221 631.901 550.5 633.148 548.789 633.148C548.341 633.146 547.964 633.062 547.709 632.852ZM548.388 631.278C548.197 631.387 548.083 631.527 548.037 631.707C547.915 632.187 548.068 632.313 548.117 632.355C548.694 632.831 550.938 632.155 552.742 631.39C551.37 631.084 549.271 630.772 548.388 631.278ZM549.989 628.153C549.821 628.231 549.543 628.391 549.552 628.562C549.583 629.114 551.336 630.066 553.149 630.755C552.725 629.828 551.953 628.498 551.048 628.122C550.882 628.052 550.717 628.018 550.553 628.018C550.366 628.016 550.178 628.063 549.989 628.153Z" fill="#263238"/>
<path d="M501.959 630.228C501.936 629.232 489.689 630.012 489.689 630.012C489.689 630.012 482.155 637.675 474.837 639.396C467.518 641.118 471.608 645.51 479.788 645.51C487.968 645.51 494.211 645.51 500.021 645.51C505.835 645.511 502.201 640.56 501.959 630.228Z" fill="#263238"/>
<path d="M482.167 632.852C481.93 632.658 481.686 632.273 481.871 631.547C481.959 631.196 482.18 630.916 482.525 630.719C483.174 630.346 484.234 630.316 485.271 630.419C484.275 629.887 483.403 629.241 483.365 628.598C483.341 628.178 483.611 627.833 484.17 627.567C484.694 627.32 485.229 627.305 485.756 627.524C487.417 628.214 488.445 631.073 488.489 631.194C488.518 631.278 488.512 631.367 488.477 631.443C488.464 631.466 488.45 631.49 488.433 631.511H488.431C488.402 631.547 488.366 631.575 488.323 631.595C487.678 631.901 484.958 633.148 483.247 633.148C482.8 633.146 482.421 633.062 482.167 632.852ZM482.846 631.278C482.655 631.387 482.542 631.527 482.495 631.707C482.374 632.187 482.526 632.313 482.576 632.355C483.154 632.831 485.398 632.155 487.202 631.39C485.829 631.084 483.729 630.772 482.846 631.278ZM484.447 628.153C484.279 628.231 484.001 628.391 484.01 628.562C484.041 629.114 485.794 630.066 487.608 630.755C487.184 629.828 486.411 628.498 485.507 628.122C485.339 628.052 485.176 628.018 485.011 628.018C484.823 628.016 484.637 628.063 484.447 628.153Z" fill="#263238"/>
<path d="M505.603 474.787L512.231 428.209V396.666C529.682 383.547 563.319 383.547 563.319 383.547C563.319 383.547 589.173 419.39 576.609 478.397L544.166 483.137L542.091 472.133L538.023 483.137L505.603 474.787Z" fill="#263238"/>
<path opacity="0.2" d="M505.603 474.787L512.231 428.209V396.666C529.682 383.547 563.319 383.547 563.319 383.547C563.319 383.547 589.173 419.39 576.609 478.397L544.166 483.137L542.091 472.133L538.023 483.137L505.603 474.787Z" fill="white"/>
<path opacity="0.2" d="M542.093 472.132L548.341 452.722C548.341 452.722 554.901 450.735 563.319 437.709C563.319 437.709 561.86 459.878 542.093 472.132Z" fill="black"/>
<path opacity="0.2" d="M528.265 405.611L542.829 404.22C542.829 404.22 546.354 411.178 545.162 421.515L535.819 427.12L529.061 422.32C529.061 422.32 528.862 409.984 528.265 405.611Z" fill="black"/>
<path opacity="0.2" d="M563.319 402.032C563.319 402.032 566.034 408.194 567.623 416.941L572.792 419.128L575.575 415.669C575.575 415.669 573.684 405.513 570.504 400.544L563.319 402.032Z" fill="black"/>
<path d="M505.008 472.132L539.446 482.24L537.285 486.864L504.56 476.8L505.008 472.132Z" fill="#263238"/>
<path d="M542.829 481.571L543.396 485.819L577.165 481.571L577.687 476.203L542.829 481.571Z" fill="#263238"/>
<path d="M549.917 390.001C559.877 388.415 566.619 388.376 566.619 388.376L564.542 384.937C558.874 384.77 553.401 385.17 548.256 385.909L549.917 390.001Z" fill="#263238"/>
<path d="M518.938 394.278C514.487 396.203 511.914 397.659 511.914 397.659L511.943 401.902C514.449 400.629 516.972 399.479 519.488 398.435L518.938 394.278Z" fill="#263238"/>
<path d="M521.083 397.793C530.688 393.972 540.082 391.698 547.824 390.351L546.273 386.213C535.648 387.95 526.591 391.086 520.444 393.641L521.083 397.793Z" fill="#263238"/>
<path d="M427.723 409.958L418.898 406.415L417.407 414.742C417.407 414.742 425.366 419.572 428.679 413.826L427.723 409.958Z" fill="#E4897B"/>
<path d="M414.519 406.926L411.69 413.372L417.407 414.742L418.898 406.415L414.519 406.926Z" fill="#E4897B"/>
<path d="M563.185 320.432L562.136 310.98L554.093 313.603C554.093 313.603 553.599 322.899 560.229 323.101L563.185 320.432Z" fill="#E4897B"/>
<path d="M559.616 307.363L552.599 307.917L554.094 313.603L562.138 310.98L559.616 307.363Z" fill="#E4897B"/>
<path opacity="0.2" d="M497.163 381.174C494.708 378.517 492.144 375.72 489.673 372.954C488.725 367.173 488.119 362.091 488.119 362.091C488.119 362.091 497.816 368.556 497.163 381.174Z" fill="black"/>
<path d="M489.024 359.403C488.108 363.266 487.022 366.791 485.892 370.43C484.736 374.031 483.428 377.582 482.071 381.122C480.73 384.666 479.235 388.163 477.611 391.619C476.815 393.352 475.972 395.07 475.089 396.774C474.666 397.63 474.188 398.472 473.732 399.317L473.042 400.585L472.688 401.233C472.48 401.589 472.27 401.965 472.043 402.29C470.209 404.951 468.102 406.48 466.122 407.7C464.124 408.902 462.166 409.779 460.231 410.522C456.36 411.989 452.554 412.915 448.766 413.662C441.162 415.064 433.731 415.788 426.091 415.819L425.462 409.042C428.921 408.29 432.502 407.509 435.965 406.603C439.451 405.754 442.898 404.798 446.23 403.693C449.561 402.618 452.815 401.406 455.712 399.987C457.156 399.285 458.498 398.509 459.583 397.704C460.663 396.915 461.459 396.049 461.641 395.616C461.675 395.56 461.667 395.524 461.693 395.484L461.959 394.899L462.503 393.701C462.862 392.899 463.24 392.113 463.574 391.294C464.259 389.67 464.961 388.054 465.609 386.405C466.921 383.118 468.158 379.785 469.348 376.425C470.539 373.067 471.625 369.662 472.683 366.251C473.77 362.879 474.761 359.347 475.686 356.09L489.024 359.403Z" fill="#DC897C"/>
<path d="M481.421 347.695C473.813 352.66 469.745 365.597 468.456 371.927L484.248 383.546L492.216 375.779C495.448 357.937 484.298 345.818 481.421 347.695Z" fill="#407BFF"/>
<path opacity="0.6" d="M481.421 347.695C473.813 352.66 469.745 365.597 468.456 371.927L484.248 383.546L492.216 375.779C495.448 357.937 484.298 345.818 481.421 347.695Z" fill="white"/>
<path d="M558.484 323.471L547.216 324.671C546.582 324.738 546.051 324.199 546.03 323.467L545.35 299.575C545.33 298.842 545.827 298.194 546.461 298.126L557.729 296.926C558.363 296.858 558.894 297.398 558.915 298.13L559.595 322.021C559.616 322.753 559.118 323.403 558.484 323.471Z" fill="#263238"/>
<path opacity="0.6" d="M558.484 323.471L547.216 324.671C546.582 324.738 546.051 324.199 546.03 323.467L545.35 299.575C545.33 298.842 545.827 298.194 546.461 298.126L557.729 296.926C558.363 296.858 558.894 297.398 558.915 298.13L559.595 322.021C559.616 322.753 559.118 323.403 558.484 323.471Z" fill="white"/>
<path d="M557.493 323.575L546.225 324.775C545.591 324.842 545.059 324.303 545.039 323.571L544.358 299.68C544.338 298.946 544.835 298.298 545.469 298.23L556.738 297.03C557.372 296.962 557.903 297.502 557.923 298.234L558.604 322.126C558.626 322.859 558.128 323.509 557.493 323.575Z" fill="#263238"/>
<path opacity="0.7" d="M557.493 323.575L546.225 324.775C545.591 324.842 545.059 324.303 545.039 323.571L544.358 299.68C544.338 298.946 544.835 298.298 545.469 298.23L556.738 297.03C557.372 296.962 557.903 297.502 557.923 298.234L558.604 322.126C558.626 322.859 558.128 323.509 557.493 323.575Z" fill="white"/>
<path d="M556.752 297.496L553.805 297.81L553.426 298.719L548.86 299.206L548.431 298.384L545.485 298.697C545.075 298.741 544.75 299.164 544.764 299.638L545.445 323.529C545.459 324.004 545.804 324.354 546.215 324.31L557.483 323.111C557.894 323.067 558.217 322.645 558.205 322.171L557.524 298.279C557.508 297.804 557.162 297.453 556.752 297.496Z" fill="#407BFF"/>
<path opacity="0.8" d="M555.244 306.13L546.955 307.013C546.551 307.056 546.212 306.713 546.2 306.245L546.135 303.941C546.121 303.474 546.438 303.061 546.842 303.018L555.131 302.135C555.535 302.091 555.874 302.435 555.886 302.903L555.951 305.207C555.965 305.673 555.648 306.087 555.244 306.13Z" fill="white"/>
</svg>
