<svg width="54" height="55" viewBox="0 0 54 55" fill="none" xmlns="http://www.w3.org/2000/svg">
<rect x="0.355103" y="0.940826" width="53.2544" height="53.2544" rx="26.6272" fill="#8D75F5"/>
<path d="M39.9603 29.9522C39.9603 31.8362 39.5833 33.4574 38.8695 34.641C37.9532 36.1615 36.529 36.9659 34.7512 36.9659C31.358 36.9659 29.0767 32.7089 26.6624 28.2024C24.9081 24.9288 22.731 20.8553 20.9409 20.8553C20.0783 20.8553 19.0211 21.9036 18.182 23.5907C17.2222 25.5755 16.7125 27.7477 16.6895 29.9522C16.6895 31.3283 16.9401 32.5008 17.3943 33.2549C17.8161 33.9552 18.3945 34.2808 19.2135 34.2808C20.7518 34.2808 22.6403 31.0363 23.2613 29.9746C23.4406 29.6669 23.7349 29.443 24.0793 29.3523C24.4237 29.2615 24.7901 29.3113 25.0978 29.4907C25.4055 29.67 25.6293 29.9643 25.7201 30.3087C25.8108 30.6531 25.761 31.0195 25.5816 31.3272C24.5848 33.0367 23.7323 34.236 22.8965 35.1065C21.6961 36.3573 20.4934 36.9659 19.2135 36.9659C17.4357 36.9659 16.0115 36.1615 15.0952 34.641C14.3814 33.4574 14.0044 31.8362 14.0044 29.9522C14.0044 25.0329 16.6425 18.1702 20.9409 18.1702C24.3342 18.1702 26.6154 22.4272 29.0298 26.9337C30.7863 30.2073 32.9645 34.2808 34.7512 34.2808C35.5702 34.2808 36.1486 33.9552 36.5704 33.2549C37.0246 32.5008 37.2752 31.3283 37.2752 29.9522C37.2525 27.7478 36.7433 25.5756 35.7839 23.5907C34.9448 21.9036 33.8875 20.8553 33.0238 20.8553C32.3839 20.8553 31.613 21.4147 30.7314 22.5145C30.5089 22.7925 30.185 22.9707 29.8311 23.01C29.4771 23.0492 29.1221 22.9462 28.844 22.7237C28.566 22.5011 28.3878 22.1773 28.3485 21.8233C28.3093 21.4693 28.4123 21.1143 28.6348 20.8363C30.0725 19.0429 31.5079 18.1702 33.0238 18.1702C34.9985 18.1702 36.8277 19.6705 38.1871 22.3948C39.3273 24.7526 39.9328 27.3332 39.9603 29.9522Z" fill="white"/>
</svg>
