<svg width="712" height="712" viewBox="0 0 712 712" fill="none" xmlns="http://www.w3.org/2000/svg">
<path d="M640.659 567.455H593.493V567.811H640.659V567.455Z" fill="#EBEBEB"/>
<path d="M471.657 571.32H459.278V571.676H471.657V571.32Z" fill="#EBEBEB"/>
<path d="M592.068 554.232H564.738V554.588H592.068V554.232Z" fill="#EBEBEB"/>
<path d="M136.208 556.625H74.7017V556.981H136.208V556.625Z" fill="#EBEBEB"/>
<path d="M157.906 556.625H148.888V556.981H157.906V556.625Z" fill="#EBEBEB"/>
<path d="M320.609 562.638H187.215V562.994H320.609V562.638Z" fill="#EBEBEB"/>
<path d="M339.483 481.027H64.51C60.0287 481.027 56.3818 477.38 56.3818 472.899V86.3798C56.3818 81.8985 60.0287 78.2516 64.51 78.2516H339.483C343.963 78.2516 347.61 81.8985 347.61 86.3798V472.899C347.61 477.38 343.963 481.027 339.483 481.027ZM64.51 78.6091C60.2238 78.6091 56.7378 82.095 56.7378 86.3813V472.9C56.7378 477.187 60.2238 480.673 64.51 480.673H339.483C343.768 480.673 347.254 477.187 347.254 472.9V86.3798C347.254 82.095 343.768 78.6076 339.483 78.6076L64.51 78.6091Z" fill="#EBEBEB"/>
<path d="M647.49 481.027H372.517C368.037 481.027 364.39 477.38 364.39 472.899V86.3798C364.39 81.8985 368.037 78.2516 372.517 78.2516H647.49C651.973 78.2516 655.618 81.8985 655.618 86.3798V472.899C655.618 477.38 651.971 481.027 647.49 481.027ZM372.517 78.6091C368.232 78.6091 364.746 82.095 364.746 86.3813V472.9C364.746 477.187 368.232 480.673 372.517 480.673H647.49C651.776 480.673 655.262 477.187 655.262 472.9V86.3798C655.262 82.095 651.776 78.6076 647.49 78.6076L372.517 78.6091Z" fill="#EBEBEB"/>
<path d="M712 544.535H0V544.891H712V544.535Z" fill="#EBEBEB"/>
<path d="M498.504 536.267H634.036V355.925H498.504V536.267Z" fill="#F5F5F5"/>
<path d="M472.65 536.267H498.504V355.925H472.65V536.267Z" fill="#E6E6E6"/>
<path d="M507.301 413.102H624.543V369.307H507.301V413.102Z" fill="#FAFAFA"/>
<path d="M581.21 369.307L580.697 375.146C580.528 377.071 578.916 378.549 576.982 378.549H554.859C552.926 378.549 551.313 377.072 551.144 375.146L550.631 369.307H581.21Z" fill="#EBEBEB"/>
<path d="M507.301 461.682H624.543V417.887H507.301V461.682Z" fill="#FAFAFA"/>
<path d="M581.21 417.886L580.697 423.724C580.528 425.649 578.916 427.127 576.982 427.127H554.859C552.926 427.127 551.313 425.649 551.144 423.724L550.631 417.886H581.21Z" fill="#EBEBEB"/>
<path d="M507.301 510.261H624.543V466.466H507.301V510.261Z" fill="#FAFAFA"/>
<path d="M581.21 466.465L580.697 472.304C580.528 474.229 578.916 475.707 576.982 475.707H554.859C552.926 475.707 551.313 474.229 551.144 472.304L550.631 466.465H581.21Z" fill="#EBEBEB"/>
<path d="M507.3 545.271H623.118L624.542 536.253H507.3V545.271Z" fill="#E6E6E6"/>
<path d="M483.092 545.271H507.3V536.253H481.668L483.092 545.271Z" fill="#E0E0E0"/>
<path d="M561.742 356.12H608.022L602.887 297.428H556.607L561.742 356.12Z" fill="#FAFAFA"/>
<path d="M561.742 356.12H559.532L554.397 297.428H556.607L561.742 356.12Z" fill="#EBEBEB"/>
<path d="M565.936 350.136H602.779L598.692 303.412H561.849L565.936 350.136Z" fill="#F0F0F0"/>
<path d="M568.633 346.29H599.41L595.995 307.258H565.218L568.633 346.29Z" fill="#E6E6E6"/>
<path d="M548.738 356.12L551.917 319.792H505.846L502.668 356.12H548.738Z" fill="#F0F0F0"/>
<path d="M548.738 356.12L551.917 319.792H554.397L551.219 356.12H548.738Z" fill="#E0E0E0"/>
<path d="M544.365 352.416L546.896 323.496H510.219L507.689 352.416H544.365Z" fill="#EBEBEB"/>
<path d="M541.554 350.035L543.668 325.877H513.03L510.916 350.035H541.554Z" fill="#F5F5F5"/>
<path d="M442.357 520.856C442.357 530.483 440.846 536.71 438.301 540.704C436.388 543.71 432.953 545.399 429.389 545.399H415.451C411.888 545.399 408.453 543.709 406.538 540.704C403.993 536.708 402.482 530.483 402.482 520.856C402.482 506.894 408.57 495.716 410.558 486.79C411.274 483.576 408.89 473.726 408.89 473.726H435.946C435.946 473.726 433.562 483.578 434.279 486.79C436.269 495.716 442.357 506.894 442.357 520.856Z" fill="#EBEBEB"/>
<path d="M488.432 464.348C488.432 452.225 469.427 457.258 464.637 438.451C462.821 431.324 478.279 415.194 478.279 415.194H430.084C430.084 415.194 445.541 431.324 443.725 438.451C438.935 457.258 419.93 452.225 419.93 464.348C419.93 477.699 446.74 505.506 448.032 536.804C448.147 539.602 442.989 545.401 442.989 545.401H465.372C465.372 545.401 460.214 539.602 460.329 536.804C461.622 505.506 488.432 477.699 488.432 464.348Z" fill="#F5F5F5"/>
<path d="M473.866 495.851C476.667 489.958 470.875 469.927 470.875 469.927H491.761C491.761 469.927 485.968 489.96 488.769 495.851C490.747 500.01 495.246 502.666 495.246 507.588V537.167C495.246 544.827 488.979 545.399 481.318 545.399C473.657 545.399 467.39 544.828 467.39 537.167V507.588C467.39 502.666 471.888 500.01 473.866 495.851Z" fill="#F0F0F0"/>
<path d="M235.176 321.152C223.178 315.956 216.331 304.991 219.918 296.709C223.504 288.427 236.186 285.916 248.185 291.111C260.186 296.307 267.031 307.274 263.446 315.556C259.859 323.838 247.178 326.348 235.176 321.152ZM244.729 299.093C239.105 296.658 233.164 297.835 231.484 301.716C229.804 305.596 233.011 310.734 238.634 313.169C244.257 315.604 250.2 314.428 251.88 310.547C253.56 306.667 250.351 301.528 244.729 299.093Z" fill="#E6E6E6"/>
<path d="M249.294 299.553L243.592 297.083L278.049 217.432C278.731 215.857 280.559 215.132 282.134 215.814C283.708 216.496 284.433 218.323 283.751 219.898L249.294 299.553Z" fill="#E6E6E6"/>
<path d="M286.391 227.599L275.45 222.819L277.918 217.117L288.86 221.898L286.391 227.599Z" fill="#E6E6E6"/>
<path d="M280.998 233.975L273.163 230.571L275.632 224.87L283.466 228.273L280.998 233.975Z" fill="#E6E6E6"/>
<path d="M272.473 235.764L270.004 241.466L278.79 245.27L281.259 239.568L272.473 235.764Z" fill="#E6E6E6"/>
<path d="M251.511 291.05L248.378 289.694C246.818 289.018 246.1 287.205 246.776 285.644L246.798 285.596C247.474 284.035 249.287 283.318 250.848 283.994L253.98 285.35C255.541 286.026 256.259 287.839 255.582 289.4L255.561 289.448C254.885 291.007 253.072 291.725 251.511 291.05Z" fill="#E6E6E6"/>
<path d="M496.22 263.668C505.726 270.002 508.18 283.084 501.685 292.831C495.192 302.577 482.172 305.354 472.665 299.02C463.157 292.685 460.705 279.601 467.199 269.855C473.694 260.108 486.712 257.334 496.22 263.668ZM478.925 289.626C483.381 292.594 489.48 291.293 492.523 286.727C495.566 282.16 494.417 276.03 489.961 273.062C485.506 270.093 479.405 271.393 476.362 275.96C473.32 280.527 474.47 286.658 478.925 289.626Z" fill="#E6E6E6"/>
<path d="M476.623 287.098L482.517 291.026L440.346 355.561C439.263 357.189 437.063 357.63 435.435 356.545C433.807 355.462 433.367 353.263 434.451 351.637L476.623 287.098Z" fill="#E6E6E6"/>
<path d="M434.716 337.565L447.119 345.895L440.927 355.188L428.5 346.842C426.716 345.645 426.237 343.228 427.428 341.44L429.293 338.641C430.492 336.843 432.923 336.362 434.716 337.565Z" fill="#E6E6E6"/>
<path d="M324.013 140.344L317.467 157.301C316.877 158.829 315.16 159.589 313.632 159C312.104 158.41 311.344 156.693 311.933 155.163L318.479 138.206C320.594 132.731 317.86 126.552 312.383 124.438L306.317 122.095C300.842 119.981 294.664 122.719 292.551 128.196L289.878 135.119L284.344 132.983L287.017 126.06C290.31 117.53 299.929 113.271 308.454 116.562L314.52 118.904C323.045 122.196 327.305 131.814 324.013 140.344Z" fill="#F0F0F0"/>
<path d="M322.978 143.015C322.542 142.453 321.949 141.994 321.239 141.719L288.201 128.965C287.464 128.68 286.69 128.621 285.971 128.767C284.651 129.026 283.481 129.939 282.962 131.284L270.207 164.322C269.4 166.413 270.436 168.754 272.528 169.561L305.566 182.316C307.657 183.124 309.998 182.087 310.805 179.995L323.56 146.957C324.09 145.587 323.826 144.102 322.978 143.015ZM297.892 168.545L287.415 164.499L292.954 154.829C292.256 153.426 292.128 151.743 292.737 150.162C293.894 147.169 297.257 145.671 300.252 146.827C303.245 147.984 304.739 151.356 303.584 154.349C302.975 155.929 301.749 157.089 300.28 157.657L297.892 168.545Z" fill="#E6E6E6"/>
<path d="M98.4793 526.106H362.103V384.23H98.4793V526.106Z" fill="#E6E6E6"/>
<path d="M340.969 544.515H357.538V531.996H340.969V544.515Z" fill="#E6E6E6"/>
<path d="M78.3563 544.515H94.9246L94.9246 373.675H78.3563L78.3563 544.515Z" fill="#E6E6E6"/>
<path d="M94.7258 373.675V544.515H103.562V534.941H357.538V544.515H366.375V373.675H361.957H357.538H103.563H99.1445H94.7258ZM103.563 389.139H226.133V448.476H103.563V389.139ZM357.538 519.478H234.968V389.139H357.538V519.478ZM103.563 519.478V457.312H226.133V519.478H103.563Z" fill="#F0F0F0"/>
<path d="M234.969 519.477H349.254V395.521H234.969V519.477Z" fill="#F5F5F5"/>
<path d="M240.143 453.785C240.143 456.717 242.52 459.095 245.453 459.095C248.385 459.095 250.764 456.718 250.764 453.785C250.764 450.851 248.387 448.475 245.453 448.475C242.521 448.476 240.143 450.853 240.143 453.785Z" fill="#FAFAFA"/>
<path d="M245.454 459.095C247.595 459.095 249.429 457.82 250.268 455.995C250.579 456.67 250.762 457.413 250.762 458.203C250.762 461.135 248.386 463.513 245.452 463.513C242.52 463.513 240.142 461.137 240.142 458.203C240.142 457.413 240.327 456.668 240.636 455.995C241.478 457.82 243.312 459.095 245.454 459.095Z" fill="#E0E0E0"/>
<path d="M304.931 519.478H277.666L264.638 395.522H291.903L304.931 519.478Z" fill="#FAFAFA"/>
<path d="M270.683 519.478H265.256L252.228 395.522H257.654L270.683 519.478Z" fill="#FAFAFA"/>
<path d="M198.51 448.418H209.31V395.4H198.51V448.418Z" fill="#FAFAFA"/>
<path d="M153.729 448.418H164.529V395.4H153.729V448.418Z" fill="#F5F5F5"/>
<path d="M187.71 448.417H198.509V399.124H187.71V448.417Z" fill="#F5F5F5"/>
<path d="M164.53 448.417H175.33V399.124H164.53V448.417Z" fill="#FAFAFA"/>
<path d="M175.329 448.418H182.308V395.4H175.329V448.418Z" fill="#EBEBEB"/>
<path d="M182.309 448.417H187.708V399.124H182.309V448.417Z" fill="#FAFAFA"/>
<path d="M142.93 448.418H153.73V395.4H142.93V448.418Z" fill="#EBEBEB"/>
<path d="M132.129 448.417H142.929V399.124H132.129V448.417Z" fill="#E6E6E6"/>
<path d="M108.95 448.417H119.75V399.124H108.95V448.417Z" fill="#E6E6E6"/>
<path d="M119.749 448.418H126.728V395.4H119.749V448.418Z" fill="#FAFAFA"/>
<path d="M126.729 448.417H132.128V399.124H126.729V448.417Z" fill="#EBEBEB"/>
<path d="M103.549 448.418H108.949V396.654H103.549V448.418Z" fill="#EBEBEB"/>
<path d="M114.349 466.458H103.549V519.477H114.349V466.458Z" fill="#EBEBEB"/>
<path d="M159.129 466.458H148.33V519.477H159.129V466.458Z" fill="#FAFAFA"/>
<path d="M125.148 470.185H114.349V519.478H125.148V470.185Z" fill="#FAFAFA"/>
<path d="M148.328 470.185H137.529V519.478H148.328V470.185Z" fill="#EBEBEB"/>
<path d="M137.529 466.458H130.55V519.477H137.529V466.458Z" fill="#FAFAFA"/>
<path d="M130.549 470.185H125.15V519.478H130.549V470.185Z" fill="#F5F5F5"/>
<path d="M169.929 466.458H159.129V519.477H169.929V466.458Z" fill="#EBEBEB"/>
<path d="M180.728 470.185H169.929V519.478H180.728V470.185Z" fill="#F5F5F5"/>
<path d="M203.908 470.185H193.109V519.478H203.908V470.185Z" fill="#E6E6E6"/>
<path d="M193.109 466.458H186.13V519.477H193.109V466.458Z" fill="#FAFAFA"/>
<path d="M216.289 466.458H209.31V519.477H216.289V466.458Z" fill="#FAFAFA"/>
<path d="M186.13 470.185H180.73V519.478H186.13V470.185Z" fill="#EBEBEB"/>
<path d="M209.309 467.714H203.91V519.478H209.309V467.714Z" fill="#EBEBEB"/>
<path d="M115.6 282.362C115.6 282.362 113.788 283.197 112.959 284.883C112.13 286.569 114.7 289.681 114.7 289.681C114.7 289.681 116.858 291.184 119.002 290.21C121.147 289.236 121.147 289.236 121.147 289.236C121.147 289.236 117.48 282.873 115.7 282.809L115.6 282.362Z" fill="#E6E6E6"/>
<path d="M124.782 282.312C125.044 285.33 123.173 289.138 120.479 289.371C117.785 289.605 115.287 286.177 115.025 283.158C114.763 280.141 116.939 279.846 119.633 279.612C122.326 279.379 124.52 279.295 124.782 282.312Z" fill="#E6E6E6"/>
<path d="M116.889 281.424C116.889 281.424 118.948 283.064 123.19 282.106C123.19 282.106 116.499 286.57 116.889 281.424Z" fill="#E6E6E6"/>
<path d="M118.705 280.824C118.705 280.824 121.08 280.411 121.114 281.402C121.114 281.402 123.129 281.29 122.85 280.447C122.572 279.604 118.705 280.824 118.705 280.824Z" fill="#E6E6E6"/>
<g opacity="0.2">
<path d="M116.889 281.424C116.889 281.424 118.948 283.064 123.19 282.106C123.19 282.106 116.499 286.57 116.889 281.424Z" fill="#FAFAFA"/>
</g>
<g opacity="0.2">
<path d="M118.705 280.824C118.705 280.824 121.08 280.411 121.114 281.402C121.114 281.402 123.129 281.29 122.85 280.447C122.572 279.604 118.705 280.824 118.705 280.824Z" fill="#FAFAFA"/>
</g>
<path d="M115.955 290.325C116.812 291.715 118.561 292.43 120.181 292.236C121.803 292.042 123.263 291.03 124.198 289.691C125.134 288.353 125.58 286.717 125.684 285.088C125.711 284.666 125.743 283.611 125.188 283.447C124.678 283.298 124.364 284.011 124.127 284.343C123.448 285.3 122.727 286.196 121.863 286.994C121.024 287.768 120.097 288.445 119.105 289.006C118.826 289.163 116.106 290.57 115.955 290.325Z" fill="#E6E6E6"/>
<path d="M127.515 284.299C128.025 285.522 127.84 287.01 127.044 288.07C126.521 288.766 125.78 289.263 125.034 289.713C124.516 290.026 123.848 290.322 123.34 289.993C122.791 289.639 122.841 288.833 122.967 288.192C123.16 287.205 123.381 286.223 123.629 285.247C123.832 284.447 123.955 283.108 124.423 282.429C124.865 281.79 125.49 282.168 126.156 282.633C126.75 283.047 127.236 283.627 127.515 284.299Z" fill="#E6E6E6"/>
<g opacity="0.2">
<path d="M116.644 288.653C115.603 288.609 114.619 287.904 114.24 286.935C113.961 286.217 113.966 284.396 114.896 284.165C115.307 285.781 115.663 287.251 116.644 288.653Z" fill="#FAFAFA"/>
</g>
<g opacity="0.2">
<path d="M123.666 288.581C124.648 288.3 125.466 287.497 125.765 286.52C125.93 285.98 125.721 283.222 124.902 284.381C124.634 284.76 124.684 285.971 124.544 286.46C124.335 287.197 124.04 287.911 123.666 288.581Z" fill="#FAFAFA"/>
</g>
<g opacity="0.2">
<path d="M119.904 290.284C120.664 290.93 121.879 290.962 122.671 290.355C122.567 290.889 120.886 291.335 120.365 291.487C119.008 291.886 118.297 291.289 116.98 290.74C116.98 290.74 119.066 291.057 119.904 290.284Z" fill="#FAFAFA"/>
</g>
<path d="M117.547 345.749L117.675 304.663L119.783 292.169L120.583 292.305L118.485 304.742L118.337 346.529L117.547 345.749Z" fill="#E0E0E0"/>
<path d="M118.403 304.455L117.759 304.95C117.114 304.109 116.533 303.013 115.861 301.743C114.821 299.78 113.642 297.555 111.852 295.587L112.453 295.041C114.312 297.086 115.516 299.359 116.579 301.364C117.232 302.601 117.799 303.669 118.403 304.455Z" fill="#E0E0E0"/>
<path d="M118.898 298.945C119.992 298.657 120.972 297.961 121.602 297.022C122.319 295.957 122.568 294.654 122.802 293.392C121.383 293.817 119.86 293.128 118.39 293.297C117.218 293.432 116.126 294.146 115.533 295.167C114.766 296.488 114.454 297.988 115.132 298.593C115.69 299.09 117.436 299.329 118.898 298.945Z" fill="#E6E6E6"/>
<path d="M113.439 296.108C112.128 296.938 110.444 297.149 108.97 296.668C107.496 296.188 107.066 293.972 106.495 292.529C107.832 292.255 111.228 292.447 111.997 292.524C112.766 292.601 113.547 292.948 113.961 293.6C114.374 294.253 114.299 295.232 113.672 295.684C113.629 295.658 113.439 296.108 113.439 296.108Z" fill="#E6E6E6"/>
<path d="M106.699 298.507C107.6 297.417 109.822 296.626 111.213 296.88C112.604 297.133 113.792 298.092 114.29 299.229C113.923 300.112 112.937 300.612 111.983 300.68C111.029 300.749 110.088 300.467 109.172 300.188C108.258 299.909 107.317 299.625 106.363 299.694L106.699 298.507Z" fill="#E6E6E6"/>
<path d="M134.108 291.444C134.108 291.444 135.595 292.776 135.891 294.63C136.187 296.485 132.815 298.705 132.815 298.705C132.815 298.705 130.311 299.507 128.548 297.946C126.785 296.384 126.785 296.384 126.785 296.384C126.785 296.384 132.16 291.38 133.879 291.843L134.108 291.444Z" fill="#E6E6E6"/>
<path d="M125.346 288.697C124.209 291.506 124.878 295.694 127.386 296.709C129.892 297.724 133.288 295.182 134.424 292.374C135.562 289.568 133.569 288.646 131.062 287.631C128.556 286.616 126.484 285.889 125.346 288.697Z" fill="#E6E6E6"/>
<path d="M133.153 290.168C133.153 290.168 130.702 291.131 126.928 288.968C126.928 288.968 132.011 295.201 133.153 290.168Z" fill="#E6E6E6"/>
<path d="M131.592 289.061C131.592 289.061 129.445 287.967 129.119 288.904C129.119 288.904 127.226 288.205 127.74 287.48C128.256 286.758 131.592 289.061 131.592 289.061Z" fill="#E6E6E6"/>
<g opacity="0.2">
<path d="M133.153 290.168C133.153 290.168 130.702 291.131 126.928 288.968C126.928 288.968 132.011 295.201 133.153 290.168Z" fill="#FAFAFA"/>
</g>
<g opacity="0.2">
<path d="M131.592 289.061C131.592 289.061 129.445 287.967 129.119 288.904C129.119 288.904 127.226 288.205 127.74 287.48C128.256 286.758 131.592 289.061 131.592 289.061Z" fill="#FAFAFA"/>
</g>
<path d="M131.427 298.95C130.199 300.027 128.318 300.196 126.824 299.534C125.332 298.872 124.234 297.475 123.733 295.92C123.232 294.366 123.287 292.67 123.667 291.083C123.766 290.671 124.045 289.653 124.624 289.662C125.157 289.669 125.247 290.442 125.375 290.829C125.744 291.944 126.168 293.011 126.76 294.029C127.334 295.014 128.022 295.934 128.805 296.763C129.026 296.997 131.21 299.141 131.427 298.95Z" fill="#E6E6E6"/>
<path d="M122.151 289.791C121.304 290.811 121.045 292.287 121.493 293.535C121.788 294.354 122.35 295.047 122.93 295.696C123.334 296.148 123.885 296.628 124.468 296.463C125.097 296.285 125.287 295.5 125.354 294.851C125.459 293.85 125.537 292.847 125.587 291.842C125.628 291.017 125.905 289.701 125.655 288.915C125.422 288.175 124.713 288.353 123.94 288.601C123.249 288.82 122.615 289.231 122.151 289.791Z" fill="#E6E6E6"/>
<g opacity="0.2">
<path d="M131.262 297.15C132.27 297.414 133.416 297.031 134.064 296.213C134.543 295.61 135.072 293.868 134.252 293.374C133.382 294.798 132.61 296.098 131.262 297.15Z" fill="#FAFAFA"/>
</g>
<g opacity="0.2">
<path d="M124.57 295.016C123.713 294.459 123.168 293.451 123.169 292.428C123.169 291.864 124.182 289.288 124.623 290.637C124.767 291.077 124.364 292.22 124.353 292.729C124.337 293.496 124.409 294.267 124.57 295.016Z" fill="#FAFAFA"/>
</g>
<g opacity="0.2">
<path d="M127.665 297.75C126.749 298.144 125.579 297.817 124.999 297.005C124.941 297.545 126.416 298.466 126.87 298.765C128.051 299.546 128.904 299.184 130.325 299.046C130.325 299.046 128.239 298.735 127.665 297.75Z" fill="#FAFAFA"/>
</g>
<path d="M116.379 339.614L116.891 337.931L117.581 335.664L118.38 333.018L124.768 311.984L125.567 305.948L126.276 300.592L126.423 299.48L126.82 299.531L126.826 299.537L127.229 299.588L127.217 299.685L127.075 300.733L126.322 306.458L125.704 311.123L125.567 312.148L125.517 312.313L118.376 335.806L117.57 338.442L117.201 339.665L116.691 341.339L116.379 339.614Z" fill="#E0E0E0"/>
<path d="M124.933 311.738L125.403 312.4C126.266 311.786 127.145 310.909 128.16 309.894C129.731 308.323 131.512 306.544 133.802 305.187L133.389 304.49C131.011 305.897 129.193 307.715 127.588 309.32C126.597 310.308 125.742 311.164 124.933 311.738Z" fill="#E0E0E0"/>
<path d="M126.08 306.324C125.12 305.727 124.388 304.773 124.059 303.692C123.687 302.463 123.833 301.145 123.981 299.87C125.213 300.692 126.87 300.482 128.226 301.076C129.307 301.549 130.14 302.553 130.406 303.702C130.75 305.192 130.608 306.715 129.782 307.096C129.104 307.406 127.364 307.121 126.08 306.324Z" fill="#E6E6E6"/>
<path d="M132.133 305.219C133.143 306.396 134.689 307.094 136.24 307.069C137.791 307.043 138.853 305.051 139.823 303.84C138.625 303.185 135.323 302.369 134.565 302.217C133.808 302.065 132.959 302.167 132.372 302.668C131.786 303.171 131.571 304.129 132.036 304.745C132.082 304.732 132.133 305.219 132.133 305.219Z" fill="#E6E6E6"/>
<path d="M137.869 309.494C137.328 308.186 135.438 306.777 134.033 306.61C132.629 306.443 131.212 307.01 130.402 307.951C130.494 308.904 131.289 309.67 132.18 310.016C133.072 310.362 134.054 310.369 135.011 310.371C135.968 310.372 136.949 310.379 137.842 310.724L137.869 309.494Z" fill="#E6E6E6"/>
<path d="M105.266 289.803C105.266 289.803 103.633 290.95 103.12 292.757C102.608 294.564 105.696 297.166 105.696 297.166C105.696 297.166 108.089 298.257 110.023 296.913C111.956 295.568 111.956 295.568 111.956 295.568C111.956 295.568 107.206 289.968 105.444 290.225L105.266 289.803Z" fill="#E6E6E6"/>
<path d="M114.29 288.104C115.089 291.026 113.933 295.107 111.324 295.82C108.715 296.534 105.642 293.61 104.843 290.688C104.043 287.766 106.131 287.087 108.739 286.372C111.348 285.657 113.49 285.182 114.29 288.104Z" fill="#E6E6E6"/>
<path d="M106.366 288.648C106.366 288.648 108.687 289.891 112.688 288.186C112.688 288.186 106.907 293.78 106.366 288.648Z" fill="#E6E6E6"/>
<path d="M108.044 287.731C108.044 287.731 110.306 286.898 110.518 287.866C110.518 287.866 112.48 287.393 112.054 286.614C111.629 285.837 108.044 287.731 108.044 287.731Z" fill="#E6E6E6"/>
<g opacity="0.2">
<path d="M106.366 288.648C106.366 288.648 108.687 289.891 112.688 288.186C112.688 288.186 106.907 293.78 106.366 288.648Z" fill="#FAFAFA"/>
</g>
<g opacity="0.2">
<path d="M108.044 287.731C108.044 287.731 110.306 286.898 110.518 287.866C110.518 287.866 112.48 287.393 112.054 286.614C111.629 285.837 108.044 287.731 108.044 287.731Z" fill="#FAFAFA"/>
</g>
<path d="M107.046 297.572C108.14 298.785 109.987 299.174 111.548 298.693C113.108 298.211 114.361 296.952 115.042 295.467C115.721 293.982 115.867 292.293 115.676 290.671C115.626 290.251 115.469 289.207 114.893 289.147C114.364 289.092 114.183 289.849 114.01 290.22C113.513 291.283 112.966 292.293 112.258 293.234C111.572 294.146 110.782 294.979 109.906 295.709C109.661 295.913 107.24 297.785 107.046 297.572Z" fill="#E6E6E6"/>
<path d="M117.336 289.566C118.058 290.678 118.142 292.175 117.55 293.361C117.161 294.14 116.522 294.762 115.868 295.338C115.414 295.738 114.81 296.151 114.25 295.919C113.647 295.668 113.551 294.866 113.56 294.213C113.573 293.207 113.614 292.201 113.682 291.197C113.738 290.374 113.618 289.034 113.957 288.282C114.276 287.574 114.96 287.835 115.699 288.171C116.359 288.473 116.94 288.955 117.336 289.566Z" fill="#E6E6E6"/>
<g opacity="0.2">
<path d="M107.424 295.803C106.391 295.947 105.298 295.43 104.751 294.544C104.346 293.888 104.025 292.097 104.898 291.702C105.592 293.219 106.206 294.6 107.424 295.803Z" fill="#FAFAFA"/>
</g>
<g opacity="0.2">
<path d="M114.319 294.47C115.236 294.018 115.895 293.082 116.013 292.065C116.079 291.504 115.377 288.829 114.779 290.116C114.584 290.537 114.85 291.719 114.802 292.226C114.729 292.989 114.567 293.744 114.319 294.47Z" fill="#FAFAFA"/>
</g>
<g opacity="0.2">
<path d="M110.924 296.821C111.787 297.32 112.989 297.133 113.658 296.394C113.652 296.937 112.079 297.679 111.593 297.922C110.33 298.559 109.524 298.099 108.129 297.794C108.129 297.794 110.239 297.733 110.924 296.821Z" fill="#FAFAFA"/>
</g>
<path d="M118.569 351.808L111.316 311.368L111.142 298.698L111.954 298.687L112.126 311.299L119.488 352.433L118.569 351.808Z" fill="#E0E0E0"/>
<path d="M111.992 311.033L111.446 311.635C110.66 310.925 109.893 309.951 109.003 308.821C107.627 307.077 106.068 305.101 103.953 303.486L104.446 302.841C106.642 304.518 108.235 306.537 109.641 308.319C110.508 309.418 111.257 310.368 111.992 311.033Z" fill="#E0E0E0"/>
<path d="M111.491 305.522C112.515 305.042 113.353 304.181 113.806 303.145C114.32 301.969 114.33 300.643 114.333 299.359C113.014 300.031 111.391 299.627 109.976 300.057C108.846 300.4 107.901 301.298 107.502 302.409C106.985 303.847 106.947 305.378 107.723 305.852C108.359 306.243 110.121 306.164 111.491 305.522Z" fill="#E6E6E6"/>
<path d="M105.61 303.714C104.469 304.764 102.85 305.274 101.313 305.068C99.7769 304.86 98.9552 302.758 98.135 301.441C99.4009 300.931 102.777 300.51 103.548 300.447C104.318 300.384 105.148 300.585 105.672 301.153C106.196 301.721 106.297 302.698 105.762 303.255C105.718 303.235 105.61 303.714 105.61 303.714Z" fill="#E6E6E6"/>
<path d="M99.4109 307.285C100.102 306.05 102.145 304.873 103.559 304.873C104.973 304.871 106.313 305.6 107.008 306.631C106.804 307.565 105.924 308.233 104.999 308.473C104.072 308.712 103.096 308.604 102.146 308.493C101.197 308.381 100.22 308.273 99.2927 308.511L99.4109 307.285Z" fill="#E6E6E6"/>
<path d="M121.546 326.997H113.031C112.393 326.985 111.824 327.395 111.633 328.004C110.934 330.213 109.446 336.021 109.446 345.17C109.446 355.223 112.067 368.565 112.892 372.507C113.03 373.171 113.612 373.648 114.29 373.653H120.218C120.896 373.648 121.479 373.171 121.617 372.507C122.441 368.565 125.063 355.221 125.063 345.17C125.063 336.021 123.573 330.213 122.876 328.004C122.689 327.42 122.156 327.017 121.546 326.997Z" fill="#F0F0F0"/>
<path d="M356 608.071C508.485 608.071 632.098 600.852 632.098 591.947C632.098 583.042 508.485 575.823 356 575.823C203.515 575.823 79.9021 583.042 79.9021 591.947C79.9021 600.852 203.515 608.071 356 608.071Z" fill="#F5F5F5"/>
<path d="M171.995 536.525C171.511 536.493 171.133 536.083 171.145 535.593C172.199 493.742 174.357 425.088 174.47 424.712C174.614 424.231 175.121 423.969 175.6 424.1C176.08 424.244 176.357 424.749 176.216 425.231C176.189 425.323 174.008 494.215 172.965 535.64C172.953 536.142 172.535 536.539 172.032 536.528C172.019 536.526 172.008 536.525 171.995 536.525Z" fill="#263238"/>
<path d="M166.37 396.771C166.72 399.995 170.579 411.169 173.803 410.818C177.026 410.468 178.393 398.724 178.043 395.5C177.692 392.278 174.794 389.948 171.572 390.298C168.348 390.65 166.02 393.548 166.37 396.771Z" fill="#407BFF"/>
<path d="M182.014 432.02C181.664 428.796 177.805 417.622 174.581 417.972C171.357 418.323 169.99 430.067 170.34 433.29C170.691 436.513 173.588 438.843 176.811 438.492C180.036 438.142 182.366 435.246 182.014 432.02Z" fill="#407BFF"/>
<path d="M156.567 422.219C159.791 421.869 170.965 418.01 170.615 414.786C170.265 411.563 158.521 410.196 155.299 410.546C152.075 410.897 149.746 413.794 150.097 417.017C150.447 420.241 153.343 422.569 156.567 422.219Z" fill="#407BFF"/>
<path d="M191.817 406.573C188.593 406.924 177.419 410.783 177.769 414.007C178.121 417.231 189.863 418.598 193.087 418.246C196.311 417.896 198.639 414.998 198.289 411.775C197.939 408.553 195.04 406.223 191.817 406.573Z" fill="#407BFF"/>
<path d="M156.197 407.465C158.725 409.497 169.355 414.67 171.387 412.143C173.419 409.615 166.081 400.345 163.555 398.313C161.027 396.282 157.332 396.684 155.3 399.211C153.269 401.737 153.671 405.433 156.197 407.465Z" fill="#407BFF"/>
<path d="M192.186 421.327C189.658 419.295 179.028 414.123 176.996 416.651C174.965 419.177 182.302 428.447 184.829 430.479C187.357 432.51 191.052 432.109 193.083 429.582C195.116 427.055 194.713 423.358 192.186 421.327Z" fill="#407BFF"/>
<path d="M167.262 432.39C169.292 429.863 174.466 419.233 171.938 417.201C169.41 415.169 160.142 422.507 158.11 425.034C156.077 427.562 156.48 431.257 159.008 433.288C161.534 435.32 165.23 434.918 167.262 432.39Z" fill="#407BFF"/>
<path d="M181.124 396.402C179.093 398.929 173.92 409.559 176.448 411.592C178.975 413.622 188.246 406.286 190.276 403.758C192.308 401.231 191.905 397.535 189.378 395.505C186.851 393.473 183.155 393.876 181.124 396.402Z" fill="#407BFF"/>
<g opacity="0.6">
<path d="M166.37 396.771C166.72 399.995 170.579 411.169 173.803 410.818C177.026 410.468 178.393 398.724 178.043 395.5C177.692 392.278 174.794 389.948 171.572 390.298C168.348 390.65 166.02 393.548 166.37 396.771Z" fill="white"/>
<path d="M182.014 432.02C181.664 428.796 177.805 417.622 174.581 417.972C171.357 418.323 169.99 430.067 170.34 433.29C170.691 436.513 173.588 438.843 176.811 438.492C180.036 438.142 182.366 435.246 182.014 432.02Z" fill="white"/>
<path d="M156.567 422.219C159.791 421.869 170.965 418.01 170.615 414.786C170.265 411.563 158.521 410.196 155.299 410.546C152.075 410.897 149.746 413.794 150.097 417.017C150.447 420.241 153.343 422.569 156.567 422.219Z" fill="white"/>
<path d="M191.817 406.573C188.593 406.924 177.419 410.783 177.769 414.007C178.121 417.231 189.863 418.598 193.087 418.246C196.311 417.896 198.639 414.998 198.289 411.775C197.939 408.553 195.04 406.223 191.817 406.573Z" fill="white"/>
<path d="M156.197 407.465C158.725 409.497 169.355 414.67 171.387 412.143C173.419 409.615 166.081 400.345 163.555 398.313C161.027 396.282 157.332 396.684 155.3 399.211C153.269 401.737 153.671 405.433 156.197 407.465Z" fill="white"/>
<path d="M192.186 421.327C189.658 419.295 179.028 414.123 176.996 416.651C174.965 419.177 182.302 428.447 184.829 430.479C187.357 432.51 191.052 432.109 193.083 429.582C195.116 427.055 194.713 423.358 192.186 421.327Z" fill="white"/>
<path d="M167.262 432.39C169.292 429.863 174.466 419.233 171.938 417.201C169.41 415.169 160.142 422.507 158.11 425.034C156.077 427.562 156.48 431.257 159.008 433.288C161.534 435.32 165.23 434.918 167.262 432.39Z" fill="white"/>
<path d="M181.124 396.402C179.093 398.929 173.92 409.559 176.448 411.592C178.975 413.622 188.246 406.286 190.276 403.758C192.308 401.231 191.905 397.535 189.378 395.505C186.851 393.473 183.155 393.876 181.124 396.402Z" fill="white"/>
</g>
<path d="M167.28 415.147C167.694 418.965 171.126 421.723 174.944 421.308C178.762 420.893 181.52 417.461 181.104 413.644C180.688 409.826 177.257 407.067 173.44 407.483C169.622 407.899 166.866 411.33 167.28 415.147Z" fill="#407BFF"/>
<path d="M167.964 505.859C159.941 506.035 146.213 498.624 140.812 491.39C135.331 484.049 150.702 488.569 149.108 482.797C147.514 477.026 128.591 481.35 125.073 473.087C121.554 464.823 135.222 466.686 134.666 462.458C134.112 458.23 119.961 459.132 115.391 450.35C110.821 441.568 123.286 446.458 121.32 442.82C119.355 439.18 103.706 423.885 110.228 420.668C116.748 417.451 131.424 433.386 136.329 435.156C141.235 436.924 142.349 425.884 148.741 431.144C155.133 436.406 150.428 459.491 157.944 462.512C163.542 464.764 161.133 454.206 167.578 456.853C178.861 461.487 171.222 505.788 167.964 505.859Z" fill="#407BFF"/>
<g opacity="0.2">
<path d="M167.964 505.859C159.941 506.035 146.213 498.624 140.812 491.39C135.331 484.049 150.702 488.569 149.108 482.797C147.514 477.026 128.591 481.35 125.073 473.087C121.554 464.823 135.222 466.686 134.666 462.458C134.112 458.23 119.961 459.132 115.391 450.35C110.821 441.568 123.286 446.458 121.32 442.82C119.355 439.18 103.706 423.885 110.228 420.668C116.748 417.451 131.424 433.386 136.329 435.156C141.235 436.924 142.349 425.884 148.741 431.144C155.133 436.406 150.428 459.491 157.944 462.512C163.542 464.764 161.133 454.206 167.578 456.853C178.861 461.487 171.222 505.788 167.964 505.859Z" fill="white"/>
</g>
<path d="M179.494 495.679C179.628 495.904 178.427 497.042 182.389 497.205C192.145 497.607 209.393 496.949 215.871 488.079C225.12 475.415 203.789 476.577 205.863 469.594C207.938 462.611 230.853 468.314 235.326 458.344C239.799 448.375 223.132 450.322 223.904 445.192C224.677 440.063 242.164 446.709 247.927 436.134C253.69 425.56 238.415 431.217 240.89 426.835C243.364 422.455 262.756 404.215 254.9 400.15C247.044 396.084 228.821 415.124 222.812 417.162C216.803 419.199 215.413 400.524 207.514 406.774C199.615 413.024 204.798 441.214 195.586 444.714C188.724 447.321 192.468 437.218 184.001 437.605C172.498 438.133 168.715 477.661 179.494 495.679Z" fill="#407BFF"/>
<g opacity="0.3">
<path d="M179.494 495.679C179.628 495.904 178.427 497.042 182.389 497.205C192.145 497.607 209.393 496.949 215.871 488.079C225.12 475.415 203.789 476.577 205.863 469.594C207.938 462.611 230.853 468.314 235.326 458.344C239.799 448.375 223.132 450.322 223.904 445.192C224.677 440.063 242.164 446.709 247.927 436.134C253.69 425.56 238.415 431.217 240.89 426.835C243.364 422.455 262.756 404.215 254.9 400.15C247.044 396.084 228.821 415.124 222.812 417.162C216.803 419.199 215.413 400.524 207.514 406.774C199.615 413.024 204.798 441.214 195.586 444.714C188.724 447.321 192.468 437.218 184.001 437.605C172.498 438.133 168.715 477.661 179.494 495.679Z" fill="white"/>
</g>
<path d="M172.183 530.201C172.166 530.199 172.149 530.198 172.13 530.197C171.783 530.155 171.535 529.839 171.578 529.49C179.585 463.963 217.331 437.329 217.709 437.068C217.999 436.872 218.393 436.943 218.591 437.232C218.789 437.52 218.716 437.916 218.427 438.114C218.051 438.371 180.769 464.718 172.836 529.644C172.796 529.974 172.51 530.214 172.183 530.201Z" fill="#263238"/>
<path d="M209.121 446.172C208.864 446.162 208.627 445.993 208.543 445.735C208.435 445.402 208.617 445.044 208.95 444.936C209.185 444.859 214.806 443.082 224.015 445.037C224.358 445.11 224.577 445.447 224.505 445.789C224.432 446.132 224.095 446.353 223.753 446.279C214.903 444.402 209.398 446.126 209.343 446.143C209.269 446.165 209.194 446.175 209.121 446.172Z" fill="#263238"/>
<path d="M202.144 454.131C201.808 454.116 201.54 453.843 201.536 453.503C201.341 433.685 212.812 418.202 212.929 418.048C213.138 417.769 213.537 417.712 213.818 417.923C214.098 418.133 214.154 418.531 213.944 418.811C213.83 418.962 202.615 434.118 202.806 453.491C202.809 453.842 202.528 454.128 202.178 454.132C202.167 454.132 202.155 454.131 202.144 454.131Z" fill="#263238"/>
<path d="M190.903 470.904C190.743 470.897 190.585 470.831 190.467 470.705C190.226 470.451 190.238 470.05 190.493 469.807C190.578 469.728 199.071 461.876 210.192 465.86C210.521 465.978 210.693 466.341 210.575 466.672C210.457 467.001 210.094 467.175 209.764 467.055C199.367 463.325 191.442 470.655 191.364 470.73C191.236 470.853 191.068 470.91 190.903 470.904Z" fill="#263238"/>
<path d="M185.027 482.605C184.791 482.595 184.569 482.453 184.47 482.22C184.292 481.805 180.133 471.841 182.425 457.645C182.482 457.3 182.794 457.058 183.153 457.121C183.499 457.177 183.734 457.501 183.679 457.847C181.449 471.66 185.595 481.624 185.638 481.722C185.775 482.044 185.625 482.417 185.303 482.554C185.212 482.592 185.118 482.608 185.027 482.605Z" fill="#263238"/>
<path d="M172.438 553.607C172.109 553.594 171.841 553.327 171.831 552.993L171.008 535.638C168.58 477.93 128.996 438.68 128.596 438.292C128.345 438.047 128.339 437.645 128.584 437.394C128.831 437.144 129.231 437.14 129.481 437.383C129.884 437.776 169.825 477.36 172.275 535.592L173.098 552.955C173.11 553.305 172.835 553.597 172.485 553.61C172.469 553.608 172.453 553.607 172.438 553.607Z" fill="#263238"/>
<path d="M144.922 459.969C144.888 459.968 144.852 459.963 144.818 459.956C144.762 459.945 144.694 459.918 144.633 459.885L144.428 459.802C139.246 457.649 133.456 456.533 128.127 456.65C127.771 456.667 127.486 456.381 127.479 456.029C127.471 455.679 127.748 455.389 128.099 455.381C133.601 455.263 139.573 456.412 144.915 458.63L145.125 458.717C145.164 458.732 145.199 458.749 145.234 458.769C145.483 458.895 145.627 459.177 145.567 459.464C145.503 459.774 145.225 459.982 144.922 459.969Z" fill="#263238"/>
<path d="M150.52 467.401C150.51 467.401 150.498 467.4 150.488 467.398C150.139 467.368 149.882 467.058 149.913 466.71C151.445 449.678 142.625 435.664 142.535 435.525C142.347 435.23 142.433 434.837 142.727 434.649C143.025 434.461 143.415 434.546 143.603 434.841C143.694 434.984 152.75 449.347 151.176 466.824C151.146 467.163 150.856 467.415 150.52 467.401Z" fill="#263238"/>
<path d="M156.295 477.268C156.142 477.262 155.988 477.198 155.871 477.081C155.807 477.016 149.379 470.672 139.972 473.178C139.632 473.271 139.286 473.066 139.196 472.728C139.106 472.389 139.307 472.042 139.646 471.952C149.786 469.246 156.495 475.905 156.774 476.19C157.02 476.439 157.017 476.839 156.768 477.087C156.637 477.214 156.466 477.275 156.295 477.268Z" fill="#263238"/>
<path d="M163.627 493.53C163.536 493.526 163.445 493.503 163.36 493.459C163.049 493.296 162.93 492.913 163.092 492.603C163.136 492.517 167.492 484.003 166.5 471.72C166.471 471.371 166.73 471.065 167.081 471.038C167.432 470.995 167.736 471.269 167.764 471.619C168.789 484.287 164.403 492.834 164.217 493.192C164.099 493.415 163.865 493.538 163.627 493.53Z" fill="#263238"/>
<path d="M208.127 556.34C208.127 576.58 199.024 592.996 171.454 592.996C145.141 592.996 134.78 576.58 134.78 556.34C134.78 548.706 137.125 541.604 141.117 535.733H201.791C205.782 541.604 208.127 548.706 208.127 556.34Z" fill="#407BFF"/>
<path opacity="0.7" d="M208.127 556.34C208.127 576.58 199.024 592.996 171.454 592.996C145.141 592.996 134.78 576.58 134.78 556.34C134.78 548.706 137.125 541.604 141.117 535.733H201.791C205.782 541.604 208.127 548.706 208.127 556.34Z" fill="white"/>
<path d="M418.8 575.101L432.983 573.03L429.402 539.85L415.217 541.92L418.8 575.101Z" fill="#E8BFBF"/>
<path d="M443.888 573.527C445.12 573.436 446.284 572.931 447.192 572.092C447.579 571.604 447.701 570.956 447.519 570.36C447.438 569.987 447.169 569.683 446.807 569.557C444.912 568.881 439.724 572.703 439.145 573.134C439.032 573.226 438.984 573.372 439.019 573.512C439.068 573.646 439.194 573.735 439.337 573.737C440.856 573.805 442.38 573.735 443.888 573.527ZM445.883 570.201C446.096 570.148 446.32 570.155 446.529 570.218C446.679 570.265 446.79 570.389 446.823 570.543C446.94 570.936 446.861 571.362 446.612 571.688C445.883 572.596 443.567 573.109 440.338 573.107C442.02 571.82 443.909 570.83 445.926 570.18L445.883 570.201Z" fill="#407BFF"/>
<path d="M439.415 573.752L439.532 573.698C441.105 572.662 443.943 569.049 443.411 567.488C443.247 567.139 442.951 566.692 442 566.745C441.312 566.756 440.66 567.061 440.208 567.581C438.672 569.344 438.977 573.228 438.981 573.386C438.977 573.506 439.029 573.62 439.123 573.693C439.206 573.758 439.314 573.779 439.415 573.752ZM441.8 567.458L441.99 567.37C442.616 567.344 442.689 567.577 442.709 567.655C443.043 568.599 441.162 571.374 439.596 572.656C439.451 571.023 439.831 569.385 440.678 567.981C440.981 567.665 441.392 567.473 441.829 567.444L441.8 567.458Z" fill="#407BFF"/>
<path d="M431.533 567.156L418.955 570.154C418.388 570.271 418.002 570.798 418.064 571.373L418.469 589.573C418.645 590.849 419.821 591.74 421.095 591.565C421.184 591.552 421.272 591.535 421.357 591.514C426.806 590.157 429.377 589.231 436.305 587.634C440.55 586.657 454.003 585.643 459.513 583.188C465.023 580.734 462.877 575.149 460.364 575.676C452.281 577.415 441.896 573.955 435.996 568.687C435.196 568.296 432.396 566.933 431.533 567.156Z" fill="#263238"/>
<path opacity="0.2" d="M429.402 539.85L431.247 556.952L417.065 559.038L415.204 541.939L429.402 539.85Z" fill="black"/>
<path d="M436.977 549.913L410.734 554.813C410.734 554.813 397.991 536.62 395.586 523.7C393.082 510.248 395.758 464.449 395.586 463.841C388.162 438.783 367.996 373.843 358.257 349.948C352.864 336.705 349.079 327.789 349.079 327.789L351.806 327.177L373.228 318.402L388.837 321.344C388.837 321.344 436.275 417.268 441.248 453.353C444.959 480.297 436.977 549.913 436.977 549.913Z" fill="#407BFF"/>
<path opacity="0.3" d="M436.977 549.913L410.734 554.813C410.734 554.813 397.991 536.62 395.586 523.7C393.082 510.248 395.758 464.449 395.586 463.841C388.162 438.783 367.996 373.843 358.257 349.948C352.864 336.705 349.079 327.789 349.079 327.789L351.806 327.177L373.228 318.402L388.837 321.344C388.837 321.344 436.275 417.268 441.248 453.353C444.959 480.297 436.977 549.913 436.977 549.913Z" fill="white"/>
<path opacity="0.2" d="M389.404 442.139C381.981 417.081 367.009 379.067 357.269 355.171L350.817 332.401L349.576 328.021L351.835 332.159L377.259 388.473C388.477 410.035 389.575 442.747 389.404 442.139Z" fill="black"/>
<path d="M274.223 567.287L286.864 572.613L300.354 543.668L287.714 538.342L274.223 567.287Z" fill="#E8BFBF"/>
<path d="M295.1 578.672C296.102 579.299 297.287 579.567 298.462 579.431C299.037 579.273 299.497 578.842 299.694 578.279C299.843 577.945 299.806 577.557 299.598 577.257C298.517 575.663 292.351 575.683 291.661 575.688C291.523 575.695 291.402 575.78 291.35 575.908C291.312 576.039 291.359 576.18 291.469 576.261C292.602 577.174 293.818 577.982 295.1 578.672ZM298.52 577.231C298.714 577.311 298.883 577.442 299.01 577.61C299.098 577.731 299.115 577.89 299.053 578.026C298.92 578.396 298.62 578.679 298.243 578.79C297.166 579.08 295.088 578.167 292.596 576.341C294.623 576.298 296.642 576.602 298.566 577.238L298.52 577.231Z" fill="#407BFF"/>
<path d="M291.52 576.318L291.641 576.343C293.442 576.432 297.674 575.246 298.146 573.74C298.217 573.378 298.24 572.864 297.477 572.368C296.938 571.988 296.263 571.854 295.621 572.001C293.438 572.494 291.477 575.666 291.39 575.79C291.319 575.88 291.296 575.998 291.328 576.108C291.353 576.205 291.426 576.281 291.52 576.318ZM296.918 572.807L297.115 572.845C297.613 573.18 297.539 573.399 297.509 573.472C297.233 574.39 294.213 575.47 292.279 575.574C293.091 574.231 294.308 573.181 295.756 572.576C296.169 572.504 296.595 572.588 296.948 572.813L296.918 572.807Z" fill="#407BFF"/>
<path d="M289.162 566.771L277.756 561.976C277.253 561.747 276.656 561.935 276.379 562.413L266.406 576.694C265.821 577.778 266.224 579.131 267.308 579.718C267.383 579.759 267.46 579.794 267.54 579.826C272.514 581.856 275.021 582.595 281.274 585.278C285.105 586.923 296.065 593.744 301.706 594.963C307.346 596.183 308.847 590.657 306.607 589.643C299.383 586.416 293.32 577.875 291.742 570.474C291.345 569.721 289.954 567.087 289.162 566.771Z" fill="#263238"/>
<path opacity="0.2" d="M300.907 544.008L293.593 558.755L281.079 553.139L288.38 538.386L300.907 544.008Z" fill="black"/>
<path d="M303.54 560.079L278.364 546.658C278.364 546.658 273.536 528.734 278.364 517.301C287.654 495.297 311.823 462.945 311.987 462.336C318.436 437.009 329.75 367.651 333.613 342.137C335.759 328 337.02 324.95 337.02 324.95L339.675 325.82L378.199 325.897C378.199 325.897 385.467 384.234 357.613 474.558C350.683 497.031 339.073 515.717 319.97 540.995C312.715 550.592 303.54 560.079 303.54 560.079Z" fill="#407BFF"/>
<path opacity="0.3" d="M303.54 560.079L278.364 546.658C278.364 546.658 273.536 528.734 278.364 517.301C287.654 495.297 311.823 462.945 311.987 462.336C318.436 437.009 329.75 367.651 333.613 342.137C335.759 328 337.02 324.95 337.02 324.95L339.675 325.82L378.199 325.897C378.199 325.897 385.467 384.234 357.613 474.558C350.683 497.031 339.073 515.717 319.97 540.995C312.715 550.592 303.54 560.079 303.54 560.079Z" fill="white"/>
<path d="M412.328 278.23C412.61 273.904 415.479 268.331 417.954 265.755C418.749 264.932 421.752 263.679 423.453 262.571C431.818 257.083 448.559 250.238 448.559 250.238L453.725 254.742C453.725 254.742 443.528 264.599 437.461 269.325C436.269 270.254 434.888 271.382 433.433 272.574C430.796 274.775 418.374 282.967 416.003 285.021L412.328 278.23Z" fill="#E8BFBF"/>
<path d="M463.287 247.691L453.732 254.751L448.371 250.803C448.371 250.803 450.558 248.017 452.806 245.858C453.793 244.91 454.326 243.604 454.339 242.235C454.357 240.131 454.675 237.688 455.818 235.897C455.847 235.856 455.861 235.813 455.888 235.785C457.96 232.663 462.803 233.602 463.783 237.213L465.162 242.306C465.705 244.317 464.962 246.455 463.287 247.691Z" fill="#E8BFBF"/>
<path d="M415.384 280.139L412.865 282.449C412.08 281.82 410.835 280.811 409.268 279.51C396.993 269.32 366.22 244.602 378.488 237.547C389.003 231.501 400.17 250.005 405.74 255.561C406.874 256.709 409.981 260.292 412.487 264.786C415.103 269.501 417.05 275.212 415.384 280.139Z" fill="#263238"/>
<path d="M412.48 262.573C408.124 265.757 404.405 269.81 401.606 274.422C403.624 281.11 408.707 286.93 415.116 289.71C418.628 281.56 420.264 272.799 419.567 263.951C417.345 263.473 414.702 263.051 412.48 262.573Z" fill="#263238"/>
<path d="M344.904 236.106C340.513 237.517 335.486 236.388 332.668 240.039C329.85 243.691 329.002 248.509 329.007 253.122C329.012 259.537 330.479 265.849 331.939 272.095C333.707 279.669 335.476 287.242 337.244 294.816C338.453 299.994 337.182 324.068 338.472 324.471C338.472 324.471 378.727 323.682 388.82 322.268C388.82 322.268 389.697 297.521 390.508 289.092C390.687 287.222 393.527 279.282 393.86 277.287C395.432 267.886 392.35 261.256 389.095 252.296C389.095 252.296 381.967 237.943 378.486 237.552C372.29 236.853 357.141 232.175 344.904 236.106Z" fill="#263238"/>
<path d="M343.21 247.982C343.067 247.147 335.923 232.714 329.076 242.802C319.546 256.843 318.903 274.472 318.903 274.472C318.903 274.472 313.046 291.614 317.128 295.358C321.209 299.101 325.61 301.511 328.463 299.387C331.314 297.264 333.163 293.022 333.163 293.022C333.163 293.022 345.713 262.671 343.21 247.982Z" fill="#263238"/>
<path d="M342.75 230.754C339.744 233.099 340.139 238.534 343.453 240.418C342.62 243.329 343.594 246.678 345.858 248.689C348.122 250.699 351.563 251.27 354.355 250.099C353.148 252.262 354.509 255.117 356.592 256.455C358.676 257.794 361.25 258.037 363.704 258.366C366.159 258.695 368.752 259.224 370.533 260.944C373.071 257.293 375.607 253.643 378.145 249.992C379.133 248.571 380.157 247.045 380.234 245.317C380.311 243.587 378.995 241.68 377.269 241.807C379.025 239.977 379.06 236.768 377.346 234.9C375.631 233.032 372.432 232.793 370.459 234.385C370.812 232.922 369.955 231.369 368.721 230.509C367.485 229.648 365.947 229.355 364.449 229.208L342.75 230.754Z" fill="#263238"/>
<path d="M347.317 212.169C349.297 219.436 351.701 232.834 346.895 238.13C346.895 238.13 360.491 243.574 370.155 254.499C374.652 250.13 374.185 245.221 372.808 241.631C371.74 238.85 369.445 236.786 366.703 235.621C361.411 233.372 361.366 228.162 362.246 223.168L347.317 212.169Z" fill="#E8BFBF"/>
<path opacity="0.2" d="M350.279 224.543L355.278 225.901C357.42 226.482 359.658 226.614 361.853 226.291C361.833 227.367 361.639 229.654 362.317 230.86C359.446 232.246 354.589 231.295 352.443 228.766C351.554 227.779 350.763 225.781 350.279 224.543Z" fill="black"/>
<path d="M337.612 205.983C342.905 217.153 344.907 221.99 353.055 225.546C365.332 230.92 377.856 221.947 376 209.422C374.333 198.157 365.952 181.781 352.923 181.722C343.613 181.631 335.99 189.103 335.899 198.414C335.875 201.035 336.46 203.626 337.612 205.983Z" fill="#E8BFBF"/>
<path d="M343.428 184.651C339.571 182.85 334.778 184.32 331.567 187.145C328.299 190.02 326.31 194.041 324.403 197.953C323.366 200.079 322.32 202.234 321.84 204.55C321.36 206.867 321.498 209.401 322.723 211.426C323.922 213.411 326.155 214.714 328.463 214.849C329.79 214.926 331.344 215.885 331.774 217.144C332.172 218.313 331.983 219.579 331.796 220.794C331.616 221.97 331.443 223.198 331.812 224.327C332.427 226.207 334.438 227.347 336.406 227.538C338.374 227.729 340.329 227.159 342.224 226.595C343.426 226.238 344.635 226.444 345.569 227.282C345.803 227.491 345.994 227.742 346.139 228.018C346.728 229.139 348.436 228.962 348.927 227.794C350.65 223.7 348.142 217.154 344.407 212.159C342.425 209.507 342.533 210.184 341.754 206.966C341.107 204.288 342.088 201.495 343.287 199.014C344.887 195.706 346.943 192.479 346.308 188.53C346.039 186.86 344.96 185.366 343.428 184.651Z" fill="#263238"/>
<path d="M337.947 217.409C339.702 219.277 342.127 220.373 344.691 220.454C348.091 220.528 348.954 217.284 347.312 214.517C345.83 212.022 342.276 208.989 339.197 210.194C336.118 211.4 335.805 215.081 337.947 217.409Z" fill="#E8BFBF"/>
<path d="M358.895 203.995C359.288 204.973 360.066 205.49 360.681 205.238C361.296 204.986 361.447 204.058 361.107 203.109C360.765 202.161 359.939 201.624 359.321 201.866C358.704 202.107 358.528 203.065 358.895 203.995Z" fill="#263238"/>
<path d="M369.318 199.51C369.701 200.491 370.488 201.005 371.093 200.756C371.698 200.506 371.859 199.575 371.519 198.627C371.179 197.678 370.351 197.141 369.743 197.381C369.137 197.618 368.939 198.581 369.318 199.51Z" fill="#263238"/>
<path d="M369.476 197.549L371.455 195.999C371.455 195.999 371.026 198.205 369.476 197.549Z" fill="#263238"/>
<path d="M366.612 201.601C369.031 203.989 370.852 204.427 373.473 206.067C373.397 208.394 371.207 208.928 371.207 208.928L366.612 201.601Z" fill="#ED847E"/>
<path d="M370.102 213.487C370.553 213.318 370.991 213.112 371.409 212.869C371.546 212.797 371.597 212.626 371.525 212.491C371.522 212.486 371.519 212.482 371.517 212.476C371.436 212.341 371.265 212.288 371.122 212.355C368.913 213.638 366.223 213.781 363.892 212.737C363.747 212.66 363.566 212.714 363.488 212.861C363.409 213.006 363.465 213.188 363.611 213.265C365.656 214.205 367.995 214.285 370.102 213.487Z" fill="#263238"/>
<path d="M358.506 196.241C358.492 196.508 358.309 196.736 358.051 196.807C355.32 197.617 354.108 201.083 354.102 201.111C353.994 201.433 353.646 201.607 353.325 201.499C353.003 201.391 352.829 201.043 352.936 200.721C353.041 200.59 354.364 196.615 357.692 195.621C358.017 195.529 358.356 195.713 358.455 196.036C358.489 196.099 358.506 196.17 358.506 196.241Z" fill="#263238"/>
<path d="M371.107 194.565C370.88 194.705 370.589 194.684 370.384 194.513C368.161 192.73 364.622 193.71 364.597 193.721C364.271 193.816 363.929 193.628 363.835 193.302C363.74 192.976 363.928 192.634 364.254 192.54C364.422 192.552 368.442 191.373 371.156 193.543C371.416 193.758 371.458 194.141 371.25 194.407C371.214 194.47 371.166 194.524 371.107 194.565Z" fill="#263238"/>
<path d="M359.073 202.03L361.054 200.491C361.054 200.491 360.605 202.692 359.073 202.03Z" fill="#263238"/>
<path d="M344.278 182.786C341.168 183.035 338.216 184.805 336.528 187.43C335.396 189.191 334.998 191.868 336.672 193.126C337.455 193.714 338.488 193.821 339.465 193.906C343.799 194.286 349.142 190.938 349.142 190.938C347.472 183.861 362.32 178.384 369.639 189.348C371.79 192.569 371.209 194.909 374.784 196.397C376.467 197.097 378.686 196.904 379.764 198.375C381.552 200.814 378.115 204.945 380.298 207.04C381.792 208.472 385.178 207.925 385.386 209.984C385.484 210.953 384.85 212.354 385.782 212.637C386.297 212.794 386.771 212.323 387.105 211.9C387.909 210.877 388.738 209.808 389.014 208.538C389.29 207.266 388.838 205.735 387.654 205.197C386.744 204.783 384.339 205.245 384.503 206.231C384.699 207.417 383.681 201.596 384.137 199.396C384.534 197.48 386.364 195.82 385.809 193.943C385.218 191.941 382.838 191.142 380.775 190.836C378.71 190.53 376.368 190.279 375.099 188.622C373.682 186.77 374.326 184.126 373.871 181.839C373.292 178.931 370.867 176.666 368.145 175.487C359.891 171.905 347.12 172.414 344.278 182.786Z" fill="#263238"/>
<path d="M367.727 220.783L339.254 235.087C329.893 239.789 325.658 250.846 329.482 260.601L343.214 295.621C347.039 305.374 357.665 310.616 367.731 307.712L398.35 298.882C409.824 295.574 415.966 283.121 411.607 272.004L395.73 231.51C391.371 220.394 378.397 215.423 367.727 220.783ZM363.022 280.927C356.674 283.412 349.508 280.28 347.019 273.933C344.53 267.587 347.661 260.427 354.009 257.942C360.358 255.457 367.52 258.587 370.009 264.934C372.499 271.281 369.37 278.442 363.022 280.927Z" fill="#407BFF"/>
<path d="M367.727 220.783L339.254 235.087C329.893 239.789 325.658 250.846 329.482 260.601L343.214 295.621C347.039 305.374 357.665 310.616 367.731 307.712L398.35 298.882C409.824 295.574 415.966 283.121 411.607 272.004L395.73 231.51C391.371 220.394 378.397 215.423 367.727 220.783ZM363.022 280.927C356.674 283.412 349.508 280.28 347.019 273.933C344.53 267.587 347.661 260.427 354.009 257.942C360.358 255.457 367.52 258.587 370.009 264.934C372.499 271.281 369.37 278.442 363.022 280.927Z" fill="#407BFF"/>
<path opacity="0.1" d="M411.613 272.01L395.727 231.517C391.374 220.39 378.398 215.42 367.732 220.781L359.46 224.938L353.904 227.723L339.264 235.085C329.9 239.789 325.659 250.846 329.48 260.602L343.211 295.622C347.046 305.378 357.67 310.613 367.734 307.716L398.36 298.885C400.865 298.157 403.119 296.995 405.064 295.497C406.576 294.349 407.892 293.005 408.997 291.508C413.013 286.104 414.273 278.812 411.613 272.01ZM363.015 280.925C356.674 283.417 349.507 280.282 347.016 273.926C344.524 267.585 347.66 260.42 354.015 257.942C360.355 255.45 367.522 258.586 370.014 264.927C372.491 271.282 369.37 278.435 363.015 280.925Z" fill="white"/>
<path d="M368.021 223.447L341.317 236.861C332.538 241.271 328.567 251.642 332.154 260.791L345.032 293.634C348.619 302.782 358.585 307.698 368.027 304.977L396.744 296.695C407.505 293.592 413.266 281.914 409.178 271.487L394.286 233.508C390.197 223.082 378.028 218.419 368.021 223.447ZM347.019 273.933C344.53 267.587 347.661 260.427 354.009 257.942C360.357 255.457 367.52 258.587 370.009 264.934C372.499 271.281 369.37 278.442 363.022 280.927C356.674 283.412 349.508 280.28 347.019 273.933Z" fill="#407BFF"/>
<path opacity="0.1" d="M368.021 223.447L341.317 236.861C332.538 241.271 328.567 251.642 332.154 260.791L345.032 293.634C348.619 302.782 358.585 307.698 368.027 304.977L396.744 296.695C407.505 293.592 413.266 281.914 409.178 271.487L394.286 233.508C390.197 223.082 378.028 218.419 368.021 223.447ZM347.019 273.933C344.53 267.587 347.661 260.427 354.009 257.942C360.357 255.457 367.52 258.587 370.009 264.934C372.499 271.281 369.37 278.442 363.022 280.927C356.674 283.412 349.508 280.28 347.019 273.933Z" fill="#407BFF"/>
<path d="M500.704 210.782L499.888 212.273L499.435 213.1L498.147 215.454L498.686 221.479C498.709 221.737 498.679 221.992 498.604 222.227C498.432 222.748 498.036 223.182 497.503 223.391L486.248 227.797C485.717 228.005 485.133 227.958 484.651 227.689C484.496 227.604 484.352 227.497 484.224 227.364L477.863 220.895L477.846 220.877L468.798 224.418L470.11 227.762L461.061 231.303L463.22 236.81L456.559 239.417C456.013 239.631 455.411 239.594 454.905 239.33C454.739 239.248 454.585 239.137 454.446 239.007L450.606 235.396L441.558 238.937L443.717 244.444L434.203 248.168L436.372 253.697C436.727 254.6 436.281 255.619 435.378 255.973L409.323 266.173L398.017 237.34L492.264 200.447L493.738 201.203L498.517 203.656C501.121 204.993 502.111 208.216 500.704 210.782Z" fill="#407BFF"/>
<g opacity="0.1">
<path d="M500.704 210.782L499.888 212.273L499.435 213.1L498.147 215.454L498.686 221.479C498.709 221.737 498.679 221.992 498.604 222.227C498.432 222.748 498.036 223.182 497.503 223.391L486.248 227.797C485.717 228.005 485.133 227.958 484.651 227.689C484.496 227.604 484.352 227.497 484.224 227.364L477.863 220.895L477.846 220.877L468.798 224.418L470.11 227.762L461.061 231.303L463.22 236.81L456.559 239.417C456.013 239.631 455.411 239.594 454.905 239.33C454.739 239.248 454.585 239.137 454.446 239.007L450.606 235.396L441.558 238.937L443.717 244.444L434.203 248.168L436.372 253.697C436.727 254.6 436.281 255.619 435.378 255.973L409.323 266.173L398.017 237.34L492.264 200.447L493.738 201.203L498.517 203.656C501.121 204.993 502.111 208.216 500.704 210.782Z" fill="white"/>
</g>
<path d="M500.334 207.5L399.57 246.943L396.634 239.542L492.707 201.935L497.486 204.388C499.306 205.322 500.351 206.189 500.334 207.5Z" fill="#407BFF"/>
<path opacity="0.1" d="M500.334 207.5L399.57 246.943L396.634 239.542L492.707 201.935L497.486 204.388C499.306 205.322 500.351 206.189 500.334 207.5Z" fill="black"/>
<path d="M498.345 213.056L497.369 215.246C497.354 215.282 497.346 215.322 497.351 215.36L497.896 221.325C497.916 221.543 497.897 221.759 497.846 221.963C497.829 222.033 497.775 222.088 497.708 222.115L485.472 226.931C485.406 226.957 485.331 226.954 485.269 226.916C485.151 226.842 485.039 226.752 484.939 226.65L477.94 219.618C477.876 219.552 477.779 219.532 477.694 219.567L467.76 223.477C467.642 223.524 467.583 223.656 467.63 223.774L468.812 226.772C468.859 226.89 468.801 227.023 468.683 227.07L460.211 230.405C460.093 230.452 460.036 230.584 460.082 230.702L462.122 235.877C462.169 235.995 462.111 236.128 461.993 236.175L455.777 238.621C455.714 238.647 455.642 238.644 455.582 238.61C455.451 238.534 455.328 238.443 455.216 238.338L450.672 234.15C450.606 234.09 450.514 234.073 450.433 234.106L440.564 237.99C440.446 238.037 440.388 238.17 440.435 238.288L442.525 243.591C442.572 243.709 442.514 243.841 442.396 243.888L404.506 258.799C404.388 258.846 404.255 258.788 404.208 258.671L400.428 249.18C400.381 249.062 400.439 248.928 400.557 248.881L499.292 210.02C499.484 209.945 499.67 210.141 499.585 210.329L498.345 213.056Z" fill="#407BFF"/>
<path opacity="0.1" d="M498.345 213.056L497.369 215.246C497.354 215.282 497.346 215.322 497.351 215.36L497.896 221.325C497.916 221.543 497.897 221.759 497.846 221.963C497.829 222.033 497.775 222.088 497.708 222.115L485.472 226.931C485.406 226.957 485.331 226.954 485.269 226.916C485.151 226.842 485.039 226.752 484.939 226.65L477.94 219.618C477.876 219.552 477.779 219.532 477.694 219.567L467.76 223.477C467.642 223.524 467.583 223.656 467.63 223.774L468.812 226.772C468.859 226.89 468.801 227.023 468.683 227.07L460.211 230.405C460.093 230.452 460.036 230.584 460.082 230.702L462.122 235.877C462.169 235.995 462.111 236.128 461.993 236.175L455.777 238.621C455.714 238.647 455.642 238.644 455.582 238.61C455.451 238.534 455.328 238.443 455.216 238.338L450.672 234.15C450.606 234.09 450.514 234.073 450.433 234.106L440.564 237.99C440.446 238.037 440.388 238.17 440.435 238.288L442.525 243.591C442.572 243.709 442.514 243.841 442.396 243.888L404.506 258.799C404.388 258.846 404.255 258.788 404.208 258.671L400.428 249.18C400.381 249.062 400.439 248.928 400.557 248.881L499.292 210.02C499.484 209.945 499.67 210.141 499.585 210.329L498.345 213.056Z" fill="black"/>
<path opacity="0.3" d="M353.256 254.862C345.293 257.979 341.367 266.96 344.488 274.923C347.611 282.886 356.598 286.812 364.561 283.695C372.526 280.578 376.45 271.597 373.329 263.634C370.206 255.671 361.22 251.745 353.256 254.862ZM363.022 280.927C356.674 283.412 349.508 280.28 347.019 273.933C344.53 267.587 347.661 260.427 354.009 257.942C360.357 255.457 367.52 258.587 370.009 264.934C372.499 271.281 369.37 278.442 363.022 280.927Z" fill="white"/>
<path opacity="0.1" d="M408.991 291.494C407.885 292.992 406.569 294.335 405.058 295.483L353.9 227.709L353.858 227.653C353.858 227.653 358.365 225.386 359.386 224.714C359.386 224.77 359.415 224.841 359.456 224.924C361.695 229.724 401.908 281.933 408.991 291.494Z" fill="white"/>
<path opacity="0.1" d="M401.601 297.625C401.279 297.778 386.373 302.314 386.373 302.314L369.759 280.31C374.055 276.096 375.666 269.575 373.327 263.625C370.206 255.661 361.22 251.728 353.256 254.849C352.555 255.115 351.898 255.437 351.268 255.8L336.571 236.33C336.571 236.33 349.491 230.171 350.918 229.275C351.295 232.007 401.601 297.051 401.601 297.625Z" fill="white"/>
<path d="M340.604 190.732C338.939 192.711 338.26 195.482 338.821 198.007C339.382 200.532 341.168 202.755 343.514 203.846C344.73 204.411 346.069 204.681 347.271 205.274C348.474 205.866 349.589 206.91 349.717 208.244C349.858 209.718 348.772 211.095 348.874 212.572C348.968 213.925 350.026 214.998 351.094 215.834C352.162 216.67 353.356 217.459 353.944 218.681C354.532 219.903 354.15 221.713 352.842 222.069C352.565 222.491 352.46 223.5 352.812 223.863C353.163 224.224 353.773 224.301 354.203 224.036C356.212 222.8 357.592 220.469 357.608 218.11C357.623 215.75 356.142 213.448 353.989 212.482C353.602 211.698 353.902 210.702 354.227 209.889C354.879 208.259 355.53 206.628 356.182 204.998C356.439 204.357 356.211 203.191 355.774 202.658C355.336 202.125 354.677 201.835 354.043 201.563L349.845 199.763C348.261 199.084 343.558 192.781 349.141 190.941C348.411 189.322 347.151 188.814 345.404 188.495C343.657 188.176 341.747 189.372 340.604 190.732Z" fill="#263238"/>
<path d="M348.222 183.952C348.083 185.61 347.943 187.266 347.803 188.924C349.195 186.639 351.772 182.212 351.684 182.384C350.59 182.978 349.317 183.357 348.222 183.952Z" fill="#263238"/>
<path d="M350.106 186.675C352.051 184.876 353.995 183.078 355.94 181.281C354.439 180.718 352.622 181.137 351.519 182.3C351.552 182.178 350.652 184.941 350.106 186.675Z" fill="#263238"/>
<path d="M338.247 321.397C330.651 330.821 333.179 338.049 322.697 354.734C335.917 364.534 350.412 366.157 368.432 364.758C370.561 360.985 371.637 357.048 373.767 353.274C376.822 357.064 379.274 360.249 382.327 364.038C391.768 362.559 402.985 359.906 410.451 355.094C403.858 347.533 399.764 338.087 395.542 329.75C393.562 325.841 394.391 324.195 389.139 319.069C372.41 319.84 355.819 320.249 339.09 321.021C339.533 321.045 337.806 321.374 338.247 321.397Z" fill="#263238"/>
<path d="M340.329 319.822L339.281 324.221C339.129 324.567 339.537 324.894 340.1 324.863L386.213 322.822C386.655 322.829 387.006 322.567 387.025 322.3L387.27 317.928C387.274 317.635 386.891 317.387 386.408 317.42L341.099 319.42C340.789 319.406 340.496 319.56 340.329 319.822Z" fill="#407BFF"/>
<path d="M340.329 319.822L339.281 324.221C339.129 324.567 339.537 324.894 340.1 324.863L386.213 322.822C386.655 322.829 387.006 322.567 387.025 322.3L387.27 317.928C387.274 317.635 386.891 317.387 386.408 317.42L341.099 319.42C340.789 319.406 340.496 319.56 340.329 319.822Z" fill="#407BFF"/>
<path d="M350.485 324.869L349.146 324.927C348.892 324.923 348.679 324.813 348.697 324.652L349.057 318.97C349.06 318.809 349.289 318.666 349.557 318.657L350.897 318.584C351.151 318.589 351.364 318.7 351.347 318.873L350.986 324.541C350.971 324.702 350.74 324.86 350.485 324.869Z" fill="#263238"/>
<path d="M383.78 323.433L382.441 323.492C382.186 323.487 381.974 323.376 381.991 323.217L382.351 317.548C382.354 317.374 382.583 317.23 382.838 317.222L384.177 317.163C384.432 317.168 384.644 317.279 384.627 317.438L384.267 323.106C384.264 323.281 384.047 323.425 383.78 323.433Z" fill="#263238"/>
<path d="M356.44 297.216C356.527 297.636 360.108 303.333 362.915 302.939C362.938 302.936 362.962 302.932 362.985 302.929C363.803 302.814 364.619 303.145 365.124 303.8C366.251 305.269 366.932 306.11 367.694 307.074C368.93 308.639 371.076 309.14 372.884 308.3C373.42 308.051 373.949 307.778 374.476 307.499C376.215 306.576 377.102 304.584 376.629 302.673C376.111 300.578 375.305 298.554 374.234 296.682C373.868 296.041 373.448 295.395 372.812 295.024C372.175 294.653 365.996 292.786 363.597 292.861C361.098 292.94 358.727 296.211 356.44 297.216Z" fill="#E8BFBF"/>
<path d="M363.658 292.673C363.658 292.673 325.805 281.212 317.64 288.843C312.84 293.33 315.107 297.566 317.79 300.297C319.786 302.329 324.135 301.83 326.98 301.697L356.797 298.772L363.658 292.673Z" fill="#E8BFBF"/>
<path d="M341.907 287.437C341.702 285.388 340.115 283.686 338.273 282.768C336.43 281.849 334.342 281.577 332.3 281.318C327.544 280.716 322.788 280.112 318.032 279.51C315.617 282.564 313.88 286.759 313.955 290.653C314.03 294.546 315.496 298.398 318.026 301.357C320.302 296.957 323.304 292.427 327.748 290.241C332.194 288.057 337.032 286.554 341.907 287.437Z" fill="#263238"/>
<path opacity="0.1" d="M332.148 218.298C332.105 218.213 332.105 218.171 332.148 218.157C332.446 218.072 332.403 218.128 332.148 218.298Z" fill="white"/>
<path d="M426.188 157.016L436.734 176.57L479.764 140.03C480.143 139.709 479.704 139.126 479.29 139.4L438.951 166.026L432.732 153.897L426.188 157.016Z" fill="#407BFF"/>
<path d="M494.078 157.107C494.078 174.534 475.784 188.656 453.221 188.656C444.557 188.656 436.536 186.584 429.93 183.015L405.941 193.443L421.084 176.576C415.626 171.229 412.363 164.469 412.363 157.106C412.363 139.679 430.658 125.557 453.221 125.557C475.784 125.558 494.078 139.682 494.078 157.107Z" stroke="#407BFF" stroke-width="1.3" stroke-miterlimit="10"/>
</svg>
