<svg width="14" height="15" viewBox="0 0 14 15" fill="none" xmlns="http://www.w3.org/2000/svg">
<path d="M13.1889 11.6298C12.8521 10.8319 12.3632 10.1072 11.7497 9.49592C11.1379 8.8829 10.4133 8.39414 9.61573 8.05663C9.60858 8.05306 9.60144 8.05128 9.5943 8.04771C10.7068 7.24413 11.43 5.9352 11.43 4.45842C11.43 2.01199 9.44787 0.0298462 7.00144 0.0298462C4.55501 0.0298462 2.57287 2.01199 2.57287 4.45842C2.57287 5.9352 3.29608 7.24413 4.40858 8.04949C4.40144 8.05306 4.3943 8.05485 4.38715 8.05842C3.58715 8.39592 2.8693 8.87985 2.25323 9.49771C1.64021 10.1094 1.15145 10.8341 0.81394 11.6316C0.482372 12.4124 0.30355 13.2496 0.287154 14.0977C0.286677 14.1168 0.29002 14.1357 0.296986 14.1535C0.303951 14.1712 0.314399 14.1874 0.327712 14.201C0.341025 14.2147 0.356935 14.2255 0.374504 14.2329C0.392074 14.2403 0.410947 14.2441 0.430011 14.2441H1.50144C1.58001 14.2441 1.64251 14.1816 1.6443 14.1048C1.68001 12.7263 2.23358 11.4352 3.21215 10.4566C4.22465 9.44413 5.5693 8.88699 7.00144 8.88699C8.43358 8.88699 9.77823 9.44413 10.7907 10.4566C11.7693 11.4352 12.3229 12.7263 12.3586 14.1048C12.3604 14.1834 12.4229 14.2441 12.5014 14.2441H13.5729C13.5919 14.2441 13.6108 14.2403 13.6284 14.2329C13.6459 14.2255 13.6619 14.2147 13.6752 14.201C13.6885 14.1874 13.6989 14.1712 13.7059 14.1535C13.7129 14.1357 13.7162 14.1168 13.7157 14.0977C13.6979 13.2441 13.5211 12.4138 13.1889 11.6298V11.6298ZM7.00144 7.52985C6.1818 7.52985 5.41037 7.21021 4.83001 6.62985C4.24965 6.04949 3.93001 5.27806 3.93001 4.45842C3.93001 3.63878 4.24965 2.86735 4.83001 2.28699C5.41037 1.70663 6.1818 1.38699 7.00144 1.38699C7.82108 1.38699 8.59251 1.70663 9.17287 2.28699C9.75322 2.86735 10.0729 3.63878 10.0729 4.45842C10.0729 5.27806 9.75322 6.04949 9.17287 6.62985C8.59251 7.21021 7.82108 7.52985 7.00144 7.52985Z" fill="#1890FF"/>
</svg>
