<svg width="164" height="31" viewBox="0 0 164 31" fill="none" xmlns="http://www.w3.org/2000/svg">
<path d="M7.51465 23.3461L11.7627 6.80798H13.9893L13.7402 11.0707L9.19922 28.1361H6.88477L7.51465 23.3461ZM4.33594 6.80798L7.77832 23.2142L8.08594 28.1361H5.625L0.688477 6.80798H4.33594ZM18.8086 23.1703L22.207 6.80798H25.8691L20.9326 28.1361H18.4717L18.8086 23.1703ZM14.8535 6.80798L19.0576 23.39L19.6729 28.1361H17.3584L12.8906 11.0707L12.6562 6.80798H14.8535ZM34.7607 28.4291C33.5889 28.4291 32.5293 28.2386 31.582 27.8578C30.6445 27.4672 29.8438 26.9252 29.1797 26.2318C28.5254 25.5385 28.0225 24.723 27.6709 23.7855C27.3193 22.848 27.1436 21.8373 27.1436 20.7533V20.1674C27.1436 18.9271 27.3242 17.8041 27.6855 16.7982C28.0469 15.7924 28.5498 14.933 29.1943 14.2201C29.8389 13.4974 30.6006 12.9457 31.4795 12.5648C32.3584 12.184 33.3105 11.9935 34.3359 11.9935C35.4688 11.9935 36.46 12.184 37.3096 12.5648C38.1592 12.9457 38.8623 13.4828 39.4189 14.1761C39.9854 14.8597 40.4053 15.6752 40.6787 16.6224C40.9619 17.5697 41.1035 18.6146 41.1035 19.7572V21.266H28.8574V18.7318H37.6172V18.4535C37.5977 17.8187 37.4707 17.223 37.2363 16.6664C37.0117 16.1097 36.665 15.6605 36.1963 15.3187C35.7275 14.9769 35.1025 14.806 34.3213 14.806C33.7354 14.806 33.2129 14.933 32.7539 15.1869C32.3047 15.431 31.9287 15.7875 31.626 16.2562C31.3232 16.725 31.0889 17.2914 30.9229 17.9554C30.7666 18.6097 30.6885 19.347 30.6885 20.1674V20.7533C30.6885 21.4467 30.7812 22.0912 30.9668 22.6869C31.1621 23.2728 31.4453 23.7855 31.8164 24.225C32.1875 24.6644 32.6367 25.0111 33.1641 25.265C33.6914 25.5092 34.292 25.6312 34.9658 25.6312C35.8154 25.6312 36.5723 25.4603 37.2363 25.1185C37.9004 24.7767 38.4766 24.2933 38.9648 23.6683L40.8252 25.4701C40.4834 25.9681 40.0391 26.4467 39.4922 26.9056C38.9453 27.3549 38.2764 27.7211 37.4854 28.0043C36.7041 28.2875 35.7959 28.4291 34.7607 28.4291ZM47.6367 5.63611V28.1361H44.0918V5.63611H47.6367ZM57.9785 25.6166C58.5547 25.6166 59.0723 25.5043 59.5312 25.2797C60 25.0453 60.376 24.723 60.6592 24.3129C60.9521 23.9027 61.1133 23.4291 61.1426 22.892H64.4678C64.4482 23.9174 64.1455 24.85 63.5596 25.6898C62.9736 26.5297 62.1973 27.1986 61.2305 27.6967C60.2637 28.1849 59.1943 28.4291 58.0225 28.4291C56.8115 28.4291 55.7568 28.224 54.8584 27.8138C53.96 27.3939 53.2129 26.8177 52.6172 26.0853C52.0215 25.3529 51.5723 24.5082 51.2695 23.5511C50.9766 22.5941 50.8301 21.5687 50.8301 20.475V19.9623C50.8301 18.8685 50.9766 17.8431 51.2695 16.8861C51.5723 15.9193 52.0215 15.0697 52.6172 14.3373C53.2129 13.6049 53.96 13.0336 54.8584 12.6234C55.7568 12.2035 56.8066 11.9935 58.0078 11.9935C59.2773 11.9935 60.3906 12.2474 61.3477 12.7552C62.3047 13.2533 63.0566 13.9515 63.6035 14.85C64.1602 15.7386 64.4482 16.7738 64.4678 17.9554H61.1426C61.1133 17.3695 60.9668 16.8422 60.7031 16.3734C60.4492 15.8949 60.0879 15.514 59.6191 15.2308C59.1602 14.9476 58.6084 14.806 57.9639 14.806C57.251 14.806 56.6602 14.9525 56.1914 15.2455C55.7227 15.5287 55.3564 15.9193 55.0928 16.4174C54.8291 16.9056 54.6387 17.4574 54.5215 18.0726C54.4141 18.6781 54.3604 19.308 54.3604 19.9623V20.475C54.3604 21.1293 54.4141 21.764 54.5215 22.3793C54.6289 22.9945 54.8145 23.5463 55.0781 24.0345C55.3516 24.5131 55.7227 24.8988 56.1914 25.1918C56.6602 25.475 57.2559 25.6166 57.9785 25.6166ZM66.5039 20.3871V20.0502C66.5039 18.9076 66.6699 17.848 67.002 16.8715C67.334 15.8851 67.8125 15.0306 68.4375 14.308C69.0723 13.5756 69.8438 13.0092 70.752 12.6088C71.6699 12.1986 72.7051 11.9935 73.8574 11.9935C75.0195 11.9935 76.0547 12.1986 76.9629 12.6088C77.8809 13.0092 78.6572 13.5756 79.292 14.308C79.9268 15.0306 80.4102 15.8851 80.7422 16.8715C81.0742 17.848 81.2402 18.9076 81.2402 20.0502V20.3871C81.2402 21.5297 81.0742 22.5892 80.7422 23.5658C80.4102 24.5424 79.9268 25.3969 79.292 26.1293C78.6572 26.8519 77.8857 27.4183 76.9775 27.8285C76.0693 28.2289 75.0391 28.4291 73.8867 28.4291C72.7246 28.4291 71.6846 28.2289 70.7666 27.8285C69.8584 27.4183 69.0869 26.8519 68.4521 26.1293C67.8174 25.3969 67.334 24.5424 67.002 23.5658C66.6699 22.5892 66.5039 21.5297 66.5039 20.3871ZM70.0342 20.0502V20.3871C70.0342 21.1 70.1074 21.7738 70.2539 22.4086C70.4004 23.0433 70.6299 23.6 70.9424 24.0785C71.2549 24.557 71.6553 24.933 72.1436 25.2064C72.6318 25.4799 73.2129 25.6166 73.8867 25.6166C74.541 25.6166 75.1074 25.4799 75.5859 25.2064C76.0742 24.933 76.4746 24.557 76.7871 24.0785C77.0996 23.6 77.3291 23.0433 77.4756 22.4086C77.6318 21.7738 77.71 21.1 77.71 20.3871V20.0502C77.71 19.347 77.6318 18.683 77.4756 18.058C77.3291 17.4232 77.0947 16.8617 76.7725 16.3734C76.46 15.8851 76.0596 15.5043 75.5713 15.2308C75.0928 14.9476 74.5215 14.806 73.8574 14.806C73.1934 14.806 72.6172 14.9476 72.1289 15.2308C71.6504 15.5043 71.2549 15.8851 70.9424 16.3734C70.6299 16.8617 70.4004 17.4232 70.2539 18.058C70.1074 18.683 70.0342 19.347 70.0342 20.0502ZM87.7295 15.5092V28.1361H84.1992V12.2865H87.5244L87.7295 15.5092ZM87.1582 19.6254L85.957 19.6107C85.957 18.517 86.0938 17.5062 86.3672 16.5785C86.6406 15.6508 87.041 14.8451 87.5684 14.1615C88.0957 13.4681 88.75 12.9359 89.5312 12.5648C90.3223 12.184 91.2354 11.9935 92.2705 11.9935C92.9932 11.9935 93.6523 12.101 94.248 12.3158C94.8535 12.5209 95.376 12.848 95.8154 13.2972C96.2646 13.7465 96.6064 14.3226 96.8408 15.0258C97.085 15.7289 97.207 16.5785 97.207 17.5746V28.1361H93.6768V17.8822C93.6768 17.1107 93.5596 16.5052 93.3252 16.0658C93.1006 15.6263 92.7734 15.3138 92.3438 15.1283C91.9238 14.933 91.4209 14.8353 90.835 14.8353C90.1709 14.8353 89.6045 14.9623 89.1357 15.2162C88.6768 15.4701 88.3008 15.8168 88.0078 16.2562C87.7148 16.6957 87.5 17.2035 87.3633 17.7797C87.2266 18.3558 87.1582 18.9711 87.1582 19.6254ZM96.9873 18.6879L95.332 19.0541C95.332 18.097 95.4639 17.1937 95.7275 16.3441C96.001 15.4847 96.3965 14.7328 96.9141 14.0883C97.4414 13.434 98.0908 12.9213 98.8623 12.5502C99.6338 12.1791 100.518 11.9935 101.514 11.9935C102.324 11.9935 103.047 12.1058 103.682 12.3304C104.326 12.5453 104.873 12.8871 105.322 13.3558C105.771 13.8246 106.113 14.4349 106.348 15.1869C106.582 15.9291 106.699 16.8275 106.699 17.8822V28.1361H103.154V17.8676C103.154 17.0668 103.037 16.4467 102.803 16.0072C102.578 15.5677 102.256 15.265 101.836 15.099C101.416 14.9232 100.913 14.8353 100.327 14.8353C99.7803 14.8353 99.2969 14.9379 98.877 15.1429C98.4668 15.3383 98.1201 15.6166 97.8369 15.9779C97.5537 16.3295 97.3389 16.7347 97.1924 17.1937C97.0557 17.6527 96.9873 18.1508 96.9873 18.6879ZM117.319 28.4291C116.147 28.4291 115.088 28.2386 114.141 27.8578C113.203 27.4672 112.402 26.9252 111.738 26.2318C111.084 25.5385 110.581 24.723 110.229 23.7855C109.878 22.848 109.702 21.8373 109.702 20.7533V20.1674C109.702 18.9271 109.883 17.8041 110.244 16.7982C110.605 15.7924 111.108 14.933 111.753 14.2201C112.397 13.4974 113.159 12.9457 114.038 12.5648C114.917 12.184 115.869 11.9935 116.895 11.9935C118.027 11.9935 119.019 12.184 119.868 12.5648C120.718 12.9457 121.421 13.4828 121.978 14.1761C122.544 14.8597 122.964 15.6752 123.237 16.6224C123.521 17.5697 123.662 18.6146 123.662 19.7572V21.266H111.416V18.7318H120.176V18.4535C120.156 17.8187 120.029 17.223 119.795 16.6664C119.57 16.1097 119.224 15.6605 118.755 15.3187C118.286 14.9769 117.661 14.806 116.88 14.806C116.294 14.806 115.771 14.933 115.312 15.1869C114.863 15.431 114.487 15.7875 114.185 16.2562C113.882 16.725 113.647 17.2914 113.481 17.9554C113.325 18.6097 113.247 19.347 113.247 20.1674V20.7533C113.247 21.4467 113.34 22.0912 113.525 22.6869C113.721 23.2728 114.004 23.7855 114.375 24.225C114.746 24.6644 115.195 25.0111 115.723 25.265C116.25 25.5092 116.851 25.6312 117.524 25.6312C118.374 25.6312 119.131 25.4603 119.795 25.1185C120.459 24.7767 121.035 24.2933 121.523 23.6683L123.384 25.4701C123.042 25.9681 122.598 26.4467 122.051 26.9056C121.504 27.3549 120.835 27.7211 120.044 28.0043C119.263 28.2875 118.354 28.4291 117.319 28.4291ZM133.799 30.2361H163.799V0.236108H133.799V30.2361Z" fill="#16151C"/>
</svg>
