<svg width="14" height="14" viewBox="0 0 14 14" fill="none" xmlns="http://www.w3.org/2000/svg">
<g clip-path="url(#clip0_2001_2703)">
<rect width="14" height="14" fill="white" fill-opacity="0.01"/>
<path d="M12.0312 2.51575H9.73438V1.64075C9.73438 1.58059 9.68516 1.53137 9.625 1.53137H8.85938C8.79922 1.53137 8.75 1.58059 8.75 1.64075V2.51575H5.25V1.64075C5.25 1.58059 5.20078 1.53137 5.14062 1.53137H4.375C4.31484 1.53137 4.26562 1.58059 4.26562 1.64075V2.51575H1.96875C1.72676 2.51575 1.53125 2.71125 1.53125 2.95325V12.0314C1.53125 12.2734 1.72676 12.4689 1.96875 12.4689H12.0312C12.2732 12.4689 12.4688 12.2734 12.4688 12.0314V2.95325C12.4688 2.71125 12.2732 2.51575 12.0312 2.51575ZM9.49512 5.91594L6.58848 9.9177C6.56804 9.94567 6.5413 9.96842 6.51041 9.98411C6.47953 9.99979 6.44538 10.008 6.41074 10.008C6.3761 10.008 6.34196 9.99979 6.31107 9.98411C6.28019 9.96842 6.25344 9.94567 6.23301 9.9177L4.50488 7.53879C4.45293 7.46633 4.50488 7.36516 4.59375 7.36516H5.34844C5.41816 7.36516 5.48516 7.39934 5.52617 7.4554L6.41074 8.67219L8.47383 5.83118C8.51484 5.77512 8.58047 5.74094 8.65156 5.74094H9.40625C9.49512 5.74231 9.54707 5.84348 9.49512 5.91594Z" fill="black" fill-opacity="0.45"/>
</g>
<defs>
<clipPath id="clip0_2001_2703">
<rect width="14" height="14" fill="white"/>
</clipPath>
</defs>
</svg>
