<svg width="18" height="16" viewBox="0 0 18 16" fill="none" xmlns="http://www.w3.org/2000/svg">
<path d="M9.65287 10.3032L7.74787 8.42073L7.77037 8.39823C9.07537 6.94323 10.0054 5.27073 10.5529 3.50073H12.7504V2.00073H7.50037V0.500732H6.00037V2.00073H0.750366V3.49323H9.12787C8.62537 4.94073 7.83037 6.31323 6.75037 7.51323C6.05287 6.74073 5.47537 5.89323 5.01787 5.00073H3.51787C4.06537 6.22323 4.81537 7.37823 5.75287 8.42073L1.93537 12.1857L3.00037 13.2507L6.75037 9.50073L9.08287 11.8332L9.65287 10.3032ZM13.8754 6.50073H12.3754L9.00037 15.5007H10.5004L11.3404 13.2507H14.9029L15.7504 15.5007H17.2504L13.8754 6.50073ZM11.9104 11.7507L13.1254 8.50323L14.3404 11.7507H11.9104Z" fill="white"/>
</svg>
