<svg width="14" height="14" viewBox="0 0 14 14" fill="none" xmlns="http://www.w3.org/2000/svg">
<path d="M11.8784 9.9382C11.4873 9.54679 11.0303 9.22732 10.5284 8.99445C11.2362 8.42101 11.6878 7.54601 11.6878 6.56476C11.6878 4.83351 10.244 3.4132 8.51278 3.43976C6.8081 3.46632 5.43466 4.85538 5.43466 6.56476C5.43466 7.54601 5.88778 8.42101 6.59403 8.99445C6.09201 9.22715 5.635 9.54664 5.24403 9.9382C4.39091 10.7929 3.90653 11.921 3.87528 13.1241C3.87487 13.1408 3.87779 13.1574 3.88389 13.1729C3.88998 13.1885 3.89912 13.2026 3.91077 13.2146C3.92242 13.2265 3.93634 13.236 3.95171 13.2425C3.96709 13.2489 3.9836 13.2523 4.00028 13.2523H4.87528C4.94247 13.2523 4.99872 13.1991 5.00028 13.1319C5.02997 12.2257 5.39716 11.3773 6.04247 10.7335C6.37269 10.4015 6.76547 10.1384 7.19808 9.95919C7.63069 9.78003 8.09454 9.68846 8.56278 9.68976C9.51435 9.68976 10.4097 10.0601 11.0831 10.7335C11.7268 11.3773 12.094 12.2257 12.1253 13.1319C12.1268 13.1991 12.1831 13.2523 12.2503 13.2523H13.1253C13.142 13.2523 13.1585 13.2489 13.1739 13.2425C13.1892 13.236 13.2031 13.2265 13.2148 13.2146C13.2264 13.2026 13.2356 13.1885 13.2417 13.1729C13.2478 13.1574 13.2507 13.1408 13.2503 13.1241C13.219 11.921 12.7347 10.7929 11.8784 9.9382ZM8.56278 8.56476C8.02841 8.56476 7.52528 8.35695 7.14872 7.97882C6.95974 7.79133 6.81046 7.5677 6.70979 7.32126C6.60913 7.07482 6.55913 6.81063 6.56278 6.54445C6.56747 6.03195 6.77216 5.53663 7.12997 5.16945C7.50497 4.78507 8.00653 4.57101 8.54247 4.56476C9.07216 4.56007 9.58622 4.76632 9.96435 5.13663C10.3518 5.51632 10.5643 6.02413 10.5643 6.56476C10.5643 7.09913 10.3565 7.6007 9.97841 7.97882C9.7929 8.16522 9.57226 8.31298 9.32927 8.41356C9.08628 8.51413 8.82576 8.56553 8.56278 8.56476ZM4.64872 6.97726C4.63466 6.84132 4.62685 6.70382 4.62685 6.56476C4.62685 6.31632 4.65028 6.07413 4.69403 5.8382C4.70497 5.78195 4.67528 5.72413 4.62372 5.7007C4.41122 5.60538 4.21591 5.47413 4.04716 5.30851C3.84831 5.11571 3.69184 4.88357 3.58773 4.62692C3.48361 4.37027 3.43414 4.09473 3.44247 3.81788C3.45653 3.31632 3.6581 2.83976 4.00966 2.48038C4.3956 2.08507 4.91435 1.86945 5.46591 1.8757C5.96435 1.88038 6.4456 2.07257 6.80966 2.4132C6.9331 2.52882 7.03935 2.65695 7.12841 2.79445C7.15966 2.84288 7.2206 2.8632 7.27372 2.84445C7.54872 2.74913 7.83935 2.68195 8.13778 2.6507C8.22528 2.64132 8.27528 2.54757 8.23622 2.46945C7.72841 1.46476 6.69091 0.771009 5.49091 0.752259C3.7581 0.725696 2.31435 2.14601 2.31435 3.8757C2.31435 4.85695 2.76591 5.73195 3.47372 6.30538C2.97685 6.53507 2.51903 6.85226 2.12216 7.24913C1.26591 8.10382 0.781533 9.23195 0.750283 10.4366C0.749866 10.4533 0.752791 10.4699 0.758886 10.4854C0.764981 10.501 0.774122 10.5151 0.785771 10.5271C0.79742 10.539 0.811342 10.5485 0.826715 10.555C0.842088 10.5614 0.858602 10.5648 0.875283 10.5648H1.75185C1.81903 10.5648 1.87528 10.5116 1.87685 10.4444C1.90653 9.5382 2.27372 8.68976 2.91903 8.04601C3.37841 7.58663 3.94091 7.26788 4.55497 7.1132C4.61591 7.09757 4.65653 7.03976 4.64872 6.97726Z" fill="black" fill-opacity="0.45"/>
</svg>
