<svg width="12" height="12" viewBox="0 0 12 12" fill="none" xmlns="http://www.w3.org/2000/svg">
<path d="M11.0312 0.53125H0.96875C0.726758 0.53125 0.53125 0.726758 0.53125 0.96875V11.0312C0.53125 11.2732 0.726758 11.4688 0.96875 11.4688H11.0312C11.2732 11.4688 11.4688 11.2732 11.4688 11.0312V0.96875C11.4688 0.726758 11.2732 0.53125 11.0312 0.53125ZM4.03125 9.17188C4.03125 9.23203 3.98203 9.28125 3.92188 9.28125H2.82812C2.76797 9.28125 2.71875 9.23203 2.71875 9.17188V2.82812C2.71875 2.76797 2.76797 2.71875 2.82812 2.71875H3.92188C3.98203 2.71875 4.03125 2.76797 4.03125 2.82812V9.17188ZM6.65625 5.34375C6.65625 5.40391 6.60703 5.45312 6.54688 5.45312H5.45312C5.39297 5.45312 5.34375 5.40391 5.34375 5.34375V2.82812C5.34375 2.76797 5.39297 2.71875 5.45312 2.71875H6.54688C6.60703 2.71875 6.65625 2.76797 6.65625 2.82812V5.34375ZM9.28125 6.32812C9.28125 6.38828 9.23203 6.4375 9.17188 6.4375H8.07812C8.01797 6.4375 7.96875 6.38828 7.96875 6.32812V2.82812C7.96875 2.76797 8.01797 2.71875 8.07812 2.71875H9.17188C9.23203 2.71875 9.28125 2.76797 9.28125 2.82812V6.32812Z" fill="black" fill-opacity="0.45"/>
</svg>
