<svg width="14" height="14" viewBox="0 0 14 14" fill="none" xmlns="http://www.w3.org/2000/svg">
<g clip-path="url(#clip0_2001_7798)">
<path d="M13.45 5.02695C13.0986 4.19525 12.5892 3.43962 11.95 2.80195C11.3123 2.16275 10.5567 1.65333 9.725 1.30195C8.86094 0.936328 7.94531 0.751953 7 0.751953C6.05469 0.751953 5.13906 0.936328 4.275 1.30195C3.4433 1.65333 2.68767 2.16275 2.05 2.80195C1.41079 3.43962 0.901382 4.19525 0.55 5.02695C0.184375 5.89102 0 6.80664 0 7.75195C0 9.82539 0.910937 11.7785 2.49844 13.1129L2.525 13.1348C2.61563 13.2098 2.72969 13.252 2.84687 13.252H11.1547C11.2719 13.252 11.3859 13.2098 11.4766 13.1348L11.5031 13.1129C13.0891 11.7785 14 9.82539 14 7.75195C14 6.80664 13.8141 5.89102 13.45 5.02695ZM10.8969 12.0645H3.10313C2.49937 11.5201 2.01682 10.8548 1.68681 10.1119C1.35679 9.36893 1.18667 8.5649 1.1875 7.75195C1.1875 6.19883 1.79219 4.73945 2.89062 3.64258C3.98906 2.54414 5.44844 1.93945 7 1.93945C8.55313 1.93945 10.0125 2.54414 11.1094 3.64258C12.2078 4.74102 12.8125 6.20039 12.8125 7.75195C12.8125 9.40195 12.1172 10.9629 10.8969 12.0645ZM8.74219 5.58789C8.71869 5.56463 8.68697 5.55158 8.65391 5.55158C8.62084 5.55158 8.58912 5.56463 8.56563 5.58789L7.24531 6.9082C6.95312 6.83008 6.62969 6.90508 6.4 7.13477C6.31865 7.21597 6.2541 7.31241 6.21007 7.41859C6.16603 7.52476 6.14336 7.63857 6.14336 7.75352C6.14336 7.86846 6.16603 7.98227 6.21007 8.08845C6.2541 8.19462 6.31865 8.29107 6.4 8.37227C6.4812 8.45362 6.57765 8.51816 6.68382 8.5622C6.78999 8.60624 6.90381 8.6289 7.01875 8.6289C7.13369 8.6289 7.24751 8.60624 7.35368 8.5622C7.45985 8.51816 7.5563 8.45362 7.6375 8.37227C7.74632 8.26377 7.82458 8.12848 7.86436 7.98005C7.90414 7.83162 7.90404 7.67533 7.86406 7.52695L9.18437 6.20664C9.23281 6.1582 9.23281 6.07852 9.18437 6.03008L8.74219 5.58789ZM6.65625 4.00195H7.34375C7.4125 4.00195 7.46875 3.9457 7.46875 3.87695V2.62695C7.46875 2.5582 7.4125 2.50195 7.34375 2.50195H6.65625C6.5875 2.50195 6.53125 2.5582 6.53125 2.62695V3.87695C6.53125 3.9457 6.5875 4.00195 6.65625 4.00195ZM10.7188 7.4082V8.0957C10.7188 8.16445 10.775 8.2207 10.8438 8.2207H12.0938C12.1625 8.2207 12.2188 8.16445 12.2188 8.0957V7.4082C12.2188 7.33945 12.1625 7.2832 12.0938 7.2832H10.8438C10.775 7.2832 10.7188 7.33945 10.7188 7.4082ZM10.9172 4.32695L10.4312 3.84102C10.4078 3.81775 10.376 3.8047 10.343 3.8047C10.3099 3.8047 10.2782 3.81775 10.2547 3.84102L9.37031 4.72539C9.34705 4.74888 9.334 4.78061 9.334 4.81367C9.334 4.84673 9.34705 4.87846 9.37031 4.90195L9.85625 5.38789C9.90469 5.43633 9.98438 5.43633 10.0328 5.38789L10.9172 4.50352C10.9656 4.45508 10.9656 4.37539 10.9172 4.32695ZM3.75156 3.84102C3.72807 3.81775 3.69634 3.8047 3.66328 3.8047C3.63022 3.8047 3.59849 3.81775 3.575 3.84102L3.08906 4.32695C3.0658 4.35045 3.05275 4.38217 3.05275 4.41524C3.05275 4.4483 3.0658 4.48002 3.08906 4.50352L3.97344 5.38789C4.02187 5.43633 4.10156 5.43633 4.15 5.38789L4.63594 4.90195C4.68438 4.85352 4.68438 4.77383 4.63594 4.72539L3.75156 3.84102ZM3.09375 7.2832H1.84375C1.775 7.2832 1.71875 7.33945 1.71875 7.4082V8.0957C1.71875 8.16445 1.775 8.2207 1.84375 8.2207H3.09375C3.1625 8.2207 3.21875 8.16445 3.21875 8.0957V7.4082C3.21875 7.33945 3.1625 7.2832 3.09375 7.2832Z" fill="#1890FF"/>
</g>
<defs>
<clipPath id="clip0_2001_7798">
<rect width="14" height="14" fill="white"/>
</clipPath>
</defs>
</svg>
