<svg width="14" height="14" viewBox="0 0 14 14" fill="none" xmlns="http://www.w3.org/2000/svg">
<path d="M12.0312 2.51575H9.73438V1.64075C9.73438 1.58059 9.68516 1.53137 9.625 1.53137H8.85938C8.79922 1.53137 8.75 1.58059 8.75 1.64075V2.51575H5.25V1.64075C5.25 1.58059 5.20078 1.53137 5.14062 1.53137H4.375C4.31484 1.53137 4.26562 1.58059 4.26562 1.64075V2.51575H1.96875C1.72676 2.51575 1.53125 2.71125 1.53125 2.95325V12.0314C1.53125 12.2734 1.72676 12.4689 1.96875 12.4689H12.0312C12.2732 12.4689 12.4688 12.2734 12.4688 12.0314V2.95325C12.4688 2.71125 12.2732 2.51575 12.0312 2.51575ZM8.86348 5.83528L7.66445 8.03782H8.28926C8.36445 8.03782 8.42598 8.09934 8.42598 8.17454V8.46575C8.42598 8.54094 8.36445 8.60247 8.28926 8.60247H7.42246V9.00852H8.28926C8.36445 9.00852 8.42598 9.07004 8.42598 9.14524V9.43645C8.42598 9.51165 8.36445 9.57317 8.28926 9.57317H7.42246V10.2814C7.42246 10.3566 7.36094 10.4181 7.28574 10.4181H6.72109C6.6459 10.4181 6.58437 10.3566 6.58437 10.2814V9.57317H5.72168C5.64648 9.57317 5.58496 9.51165 5.58496 9.43645V9.14524C5.58496 9.07004 5.64648 9.00852 5.72168 9.00852H6.58437V8.60247H5.72168C5.64648 8.60247 5.58496 8.54094 5.58496 8.46575V8.17454C5.58496 8.09934 5.64648 8.03782 5.72168 8.03782H6.33965L5.13652 5.83528C5.10098 5.76965 5.12422 5.68625 5.19121 5.64934C5.21172 5.6384 5.23359 5.63293 5.25684 5.63293H5.88574C5.9377 5.63293 5.98418 5.66165 6.00742 5.70813L7.0041 7.68098L8.00488 5.70813C8.01624 5.68558 8.03363 5.66662 8.0551 5.65335C8.07658 5.64008 8.10132 5.63301 8.12656 5.63293H8.7418C8.81699 5.63293 8.87852 5.69446 8.87852 5.76965C8.87988 5.7929 8.87441 5.81477 8.86348 5.83528Z" fill="black" fill-opacity="0.45"/>
</svg>
