<svg width="14" height="14" viewBox="0 0 14 14" fill="none" xmlns="http://www.w3.org/2000/svg">
<path d="M11.1562 10.5001H10.8281V5.85168C10.8281 3.92258 9.40215 2.32708 7.54688 2.06184V1.53137C7.54688 1.22922 7.30215 0.984497 7 0.984497C6.69785 0.984497 6.45312 1.22922 6.45312 1.53137V2.06184C4.59785 2.32708 3.17188 3.92258 3.17188 5.85168V10.5001H2.84375C2.60176 10.5001 2.40625 10.6956 2.40625 10.9376V11.3751C2.40625 11.4353 2.45547 11.4845 2.51562 11.4845H5.46875C5.46875 12.3294 6.15508 13.0157 7 13.0157C7.84492 13.0157 8.53125 12.3294 8.53125 11.4845H11.4844C11.5445 11.4845 11.5938 11.4353 11.5938 11.3751V10.9376C11.5938 10.6956 11.3982 10.5001 11.1562 10.5001ZM7 12.1407C6.6377 12.1407 6.34375 11.8468 6.34375 11.4845H7.65625C7.65625 11.8468 7.3623 12.1407 7 12.1407Z" fill="black" fill-opacity="0.45"/>
</svg>
